<mxfile host="app.diagrams.net" modified="2024-07-11T19:18:53.015Z" agent="Mozilla/5.0 (Windows NT 10.0; Win64; x64) AppleWebKit/537.36 (KHTML, like Gecko) Chrome/126.0.0.0 Safari/537.36" etag="sMXhYh0pEkcuEEhg8YDv" version="24.6.5" type="github">
  <diagram name="Page-1" id="Q0Pa1QlPspIjUwoLGnK9">
    <mxGraphModel dx="712" dy="1057" grid="1" gridSize="10" guides="1" tooltips="1" connect="1" arrows="1" fold="1" page="1" pageScale="1" pageWidth="1100" pageHeight="850" background="none" math="0" shadow="0">
      <root>
        <mxCell id="0" />
        <mxCell id="1" parent="0" />
        <mxCell id="Ppe9uCJr2pv7-PK-GDrQ-1" value="" style="shape=image;verticalLabelPosition=bottom;verticalAlign=top;imageAspect=0;aspect=fixed;image=data:image/png,iVBORw0KGgoAAAANSUhEUgAAA5gAAAOYCAYAAACwyFy9AAAACXBIWXMAAAsTAAALEwEAmpwYAAAKT2lDQ1BQaG90b3Nob3AgSUNDIHByb2ZpbGUAAHjanVNnVFPpFj333vRCS4iAlEtvUhUIIFJCi4AUkSYqIQkQSoghodkVUcERRUUEG8igiAOOjoCMFVEsDIoK2AfkIaKOg6OIisr74Xuja9a89+bN/rXXPues852zzwfACAyWSDNRNYAMqUIeEeCDx8TG4eQuQIEKJHAAEAizZCFz/SMBAPh+PDwrIsAHvgABeNMLCADATZvAMByH/w/qQplcAYCEAcB0kThLCIAUAEB6jkKmAEBGAYCdmCZTAKAEAGDLY2LjAFAtAGAnf+bTAICd+Jl7AQBblCEVAaCRACATZYhEAGg7AKzPVopFAFgwABRmS8Q5ANgtADBJV2ZIALC3AMDOEAuyAAgMADBRiIUpAAR7AGDIIyN4AISZABRG8lc88SuuEOcqAAB4mbI8uSQ5RYFbCC1xB1dXLh4ozkkXKxQ2YQJhmkAuwnmZGTKBNA/g88wAAKCRFRHgg/P9eM4Ors7ONo62Dl8t6r8G/yJiYuP+5c+rcEAAAOF0ftH+LC+zGoA7BoBt/qIl7gRoXgugdfeLZrIPQLUAoOnaV/Nw+H48PEWhkLnZ2eXk5NhKxEJbYcpXff5nwl/AV/1s+X48/Pf14L7iJIEyXYFHBPjgwsz0TKUcz5IJhGLc5o9H/LcL//wd0yLESWK5WCoU41EScY5EmozzMqUiiUKSKcUl0v9k4t8s+wM+3zUAsGo+AXuRLahdYwP2SycQWHTA4vcAAPK7b8HUKAgDgGiD4c93/+8//UegJQCAZkmScQAAXkQkLlTKsz/HCAAARKCBKrBBG/TBGCzABhzBBdzBC/xgNoRCJMTCQhBCCmSAHHJgKayCQiiGzbAdKmAv1EAdNMBRaIaTcA4uwlW4Dj1wD/phCJ7BKLyBCQRByAgTYSHaiAFiilgjjggXmYX4IcFIBBKLJCDJiBRRIkuRNUgxUopUIFVIHfI9cgI5h1xGupE7yAAygvyGvEcxlIGyUT3UDLVDuag3GoRGogvQZHQxmo8WoJvQcrQaPYw2oefQq2gP2o8+Q8cwwOgYBzPEbDAuxsNCsTgsCZNjy7EirAyrxhqwVqwDu4n1Y8+xdwQSgUXACTYEd0IgYR5BSFhMWE7YSKggHCQ0EdoJNwkDhFHCJyKTqEu0JroR+cQYYjIxh1hILCPWEo8TLxB7iEPENyQSiUMyJ7mQAkmxpFTSEtJG0m5SI+ksqZs0SBojk8naZGuyBzmULCAryIXkneTD5DPkG+Qh8lsKnWJAcaT4U+IoUspqShnlEOU05QZlmDJBVaOaUt2ooVQRNY9aQq2htlKvUYeoEzR1mjnNgxZJS6WtopXTGmgXaPdpr+h0uhHdlR5Ol9BX0svpR+iX6AP0dwwNhhWDx4hnKBmbGAcYZxl3GK+YTKYZ04sZx1QwNzHrmOeZD5lvVVgqtip8FZHKCpVKlSaVGyovVKmqpqreqgtV81XLVI+pXlN9rkZVM1PjqQnUlqtVqp1Q61MbU2epO6iHqmeob1Q/pH5Z/YkGWcNMw09DpFGgsV/jvMYgC2MZs3gsIWsNq4Z1gTXEJrHN2Xx2KruY/R27iz2qqaE5QzNKM1ezUvOUZj8H45hx+Jx0TgnnKKeX836K3hTvKeIpG6Y0TLkxZVxrqpaXllirSKtRq0frvTau7aedpr1Fu1n7gQ5Bx0onXCdHZ4/OBZ3nU9lT3acKpxZNPTr1ri6qa6UbobtEd79up+6Ynr5egJ5Mb6feeb3n+hx9L/1U/W36p/VHDFgGswwkBtsMzhg8xTVxbzwdL8fb8VFDXcNAQ6VhlWGX4YSRudE8o9VGjUYPjGnGXOMk423GbcajJgYmISZLTepN7ppSTbmmKaY7TDtMx83MzaLN1pk1mz0x1zLnm+eb15vft2BaeFostqi2uGVJsuRaplnutrxuhVo5WaVYVVpds0atna0l1rutu6cRp7lOk06rntZnw7Dxtsm2qbcZsOXYBtuutm22fWFnYhdnt8Wuw+6TvZN9un2N/T0HDYfZDqsdWh1+c7RyFDpWOt6azpzuP33F9JbpL2dYzxDP2DPjthPLKcRpnVOb00dnF2e5c4PziIuJS4LLLpc+Lpsbxt3IveRKdPVxXeF60vWdm7Obwu2o26/uNu5p7ofcn8w0nymeWTNz0MPIQ+BR5dE/C5+VMGvfrH5PQ0+BZ7XnIy9jL5FXrdewt6V3qvdh7xc+9j5yn+M+4zw33jLeWV/MN8C3yLfLT8Nvnl+F30N/I/9k/3r/0QCngCUBZwOJgUGBWwL7+Hp8Ib+OPzrbZfay2e1BjKC5QRVBj4KtguXBrSFoyOyQrSH355jOkc5pDoVQfujW0Adh5mGLw34MJ4WHhVeGP45wiFga0TGXNXfR3ENz30T6RJZE3ptnMU85ry1KNSo+qi5qPNo3ujS6P8YuZlnM1VidWElsSxw5LiquNm5svt/87fOH4p3iC+N7F5gvyF1weaHOwvSFpxapLhIsOpZATIhOOJTwQRAqqBaMJfITdyWOCnnCHcJnIi/RNtGI2ENcKh5O8kgqTXqS7JG8NXkkxTOlLOW5hCepkLxMDUzdmzqeFpp2IG0yPTq9MYOSkZBxQqohTZO2Z+pn5mZ2y6xlhbL+xW6Lty8elQfJa7OQrAVZLQq2QqboVFoo1yoHsmdlV2a/zYnKOZarnivN7cyzytuQN5zvn//tEsIS4ZK2pYZLVy0dWOa9rGo5sjxxedsK4xUFK4ZWBqw8uIq2Km3VT6vtV5eufr0mek1rgV7ByoLBtQFr6wtVCuWFfevc1+1dT1gvWd+1YfqGnRs+FYmKrhTbF5cVf9go3HjlG4dvyr+Z3JS0qavEuWTPZtJm6ebeLZ5bDpaql+aXDm4N2dq0Dd9WtO319kXbL5fNKNu7g7ZDuaO/PLi8ZafJzs07P1SkVPRU+lQ27tLdtWHX+G7R7ht7vPY07NXbW7z3/T7JvttVAVVN1WbVZftJ+7P3P66Jqun4lvttXa1ObXHtxwPSA/0HIw6217nU1R3SPVRSj9Yr60cOxx++/p3vdy0NNg1VjZzG4iNwRHnk6fcJ3/ceDTradox7rOEH0x92HWcdL2pCmvKaRptTmvtbYlu6T8w+0dbq3nr8R9sfD5w0PFl5SvNUyWna6YLTk2fyz4ydlZ19fi753GDborZ752PO32oPb++6EHTh0kX/i+c7vDvOXPK4dPKy2+UTV7hXmq86X23qdOo8/pPTT8e7nLuarrlca7nuer21e2b36RueN87d9L158Rb/1tWeOT3dvfN6b/fF9/XfFt1+cif9zsu72Xcn7q28T7xf9EDtQdlD3YfVP1v+3Njv3H9qwHeg89HcR/cGhYPP/pH1jw9DBY+Zj8uGDYbrnjg+OTniP3L96fynQ89kzyaeF/6i/suuFxYvfvjV69fO0ZjRoZfyl5O/bXyl/erA6xmv28bCxh6+yXgzMV70VvvtwXfcdx3vo98PT+R8IH8o/2j5sfVT0Kf7kxmTk/8EA5jz/GMzLdsAAAAgY0hSTQAAeiUAAICDAAD5/wAAgOkAAHUwAADqYAAAOpgAABdvkl/FRgAApddJREFUeNrs/Xt8W/Wd7/u/rYtvsh2HkDgJZrBjCIRSx+wUQjJTMGmT6bTk4FB641JCuyfQaXcJhGn3/GA3gQOPTmkDlN3pAL/NJFCgTNsp7g603bgEw8zJhZCDYyChCXbM4CTk4sSxJMu2bucPSY5lLd0lW7Jez8fDD9tauiyttSStt77f7+db5Pf7BQAAAABAukxsAgAAAAAAARMAAAAAQMAEAAAAABAwAQAAAAAgYAIAAAAACJgAAAAAAAImAAAAAICACQAAAAAAARMAAAAAQMAEAAAAABAwAQAAAAAETAAAAAAACJgAAAAAAAImAAAAAICACQAAAAAAARMAAAAAQMAEAAAAABAwAQAAAAAETAAAAAAACJgAAAAAAAImAAAAAICACQAAAAAgYAIAAAAAQMAEAAAAABAwAQAAAAAETAAAAAAAARMAAAAAAAImAAAAAICACQAAAAAgYAIAAAAAQMAEAAAAABAwAQAAAAAETAAAAAAAARMAAAAAAAImAAAAAICACQAAAAAgYAIAAAAACJgAAAAAABAwAQAAAAAETAAAAAAAARMAAAAAQMAEAAAAAICACQAAAAAgYAIAAAAACJgAAAAAABAwAQAAAAAETAAAAAAAARMAAAAAQMAEAAAAAICACQAAAAAgYAIAAAAACJgAAAAAAAImAAAAAAAETAAAAAAAARMAAAAAQMAEAAAAABAwAQAAAAAgYAIAAAAACJgAAAAAAAImAAAAAAAETAAAAAAAARMAAAAAQMAEAAAAABAwAQAAAAAgYAIAAAAACJgAAAAAAAImAAAAAICACQAAAAAAARMAAAAAQMAEAAAAABAwAQAAAAAETAAAAAAACJgAAAAAAAImAAAAAICACQAAAAAAARMAAAAAQMAEAAAAABAwAQAAAAAETAAAAAAACJgAAAAAAAImAAAAAICACQAAAAAgYAIAAAAAQMAEAAAAABAwAQAAAAAETAAAAAAAAZNNAAAAAAAgYAIAAAAACJgAAAAAAAImAAAAAAAETAAAAAAAARMAAAAAQMAEAAAAABAwAQAAAAAgYAIAAAAACJgAAAAAAAImAAAAAICACQAAAAAAARMAAAAAQMAEAAAAABAwAQAAAAAgYAIAAAAACJgAAAAAAAImAAAAAICACQAAAAAAARMAAAAAQMAEAAAAABAwAQAAAAAETAAAAAAACJgAAAAAAAImAAAAAICACQAAAAAgYAIAAAAAQMAEAAAAABAwAQAAAAAETAAAAAAACJgAAAAAAAImAAAAAICACQAAAAAgYAIAAAAAQMAEAAAAABAwAQAAAAAETAAAAAAAARMAAAAAAAImAAAAAICACQAAAAAgYAIAAAAACJgAAAAAABAwAQAAAAAETAAAAAAAARMAAAAAAAImAAAAAICACQAAAAAgYAIAAAAACJgAAAAAABAwAQAAAAAETAAAAAAAARMAAAAAQMAEAAAAAICACQAAAAAgYAIAAAAACJgAAAAAAAImAAAAAAAETAAAAAAAARMAAAAAQMAEAAAAAICACQAAAAAgYAIAAAAACJgAAAAAAAImAAAAAAAETAAAAAAAARMAAAAAQMAEAAAAABAwAQAAAAAgYAIAAAAACJgAAAAAAAImAAAAAICACQAAAAAAARMAAAAAQMAEAAAAABAwAQAAAAAgYAIAAAAACJgAAAAAAAImAAAAAICACQAAAAAAARMAAAAAQMAEAAAAABAwAQAAAAAETAAAAAAACJgAAAAAAAImAAAAAICACQAAAAAgYLIJAAAAAAAETAAAAAAAARMAAAAAQMAEAAAAAICACQAAAAAgYAIAAAAACJgAAAAAAAImAAAAAAAETAAAAAAAARMAAAAAQMAEAAAAABAwAQAAAAAgYAIAAAAACJgAAAAAAAImAAAAAAAETAAAAAAAARMAAAAAQMAEAAAAAEw5FjYBAOSn8+vq2QgTo1pS05jf04K/xy5LVr+kjuDfPZI+HHNZT/AHE+yDnoNsBAAgYAIAkDF1kpolLQwGx1CwzEZobY5znfZg0NwTDJ7t7B4AAAETAIDc1RQMelcFf1fn0Lo1Rwmdrwd/EzgBADmnyO/3sxUAIA/RRTZlLZKuDQa4ujx+Hv3BkPk7Sa3B/5EGusgCAAETAAiYSESTpFskrVZutVJmUmswbG5mdxMwAWCyUEUWADBV1UlaK+mgpLeDf1dP4efbImmTpFOSHlF+t84CAAiYAABMumoFWilfCwbLQgxa1WOC9SaCJgBgIlHkBwAwFTRJukOBVrzqiX7wygqbLrogfo6zO5x6/0DPRK7a6uDPZkn3ielPAAAETAAAYgaoWxR/yo+MueiCOl126SW66II6XXhBfULB0sj7B3pkdzi16+33dPjIMb1/4GA2w2coaD4aDJr9HDoAgGygyA8A5KkCL/KzWtJ6TVD3z2VXXq7PfPpyLbvyclVW2LL6WLvefk/vHzioXW+/p13/73uyO5yZfoh+SbcqUBQIY1DkBwAImABAwCRYZsU5c2bp2s9frZu//IWsh8pY3j/Qo11vv6utb7ypXW+/l8m7bg0GzX5eTQRMACBgAgABs5CebrMCBXuaJiJY/t03vqxrP391zm0Eu8OprW+8qVf//U1tfePNTNxlj6RVkjp4RREwAYCACQAEzKmuLhgsW7L9QJUVNt38lWsmvcUy2bDZ+vvXMtGyeauYP5OACQAETAAgYE5R1QpMtbE+2RvW1NTI6XTK4XBMyWBp5PCRY/rFr15W6+9fS2fM5uZg0CRgAgAImABAwJwyNigw5Uh1MqFy6dKlWr5iuRoa5snhcOp7f/89dXV1xbxdy+ev1t9948uaO2fWlNl4v/v9a/r5v/xKh44cS+XmrSrgcZkETABIH9OUAAByxWolUcBnfKgcqyJOS+Rll35Cf/fNr+iySz8x5TbitZ+/Wtd+/mptfeNN/eJXLyXbfbYluP2vFsV/AAApoAUTAPLUFGrBbA4Gy+ZErty4sFGrVq3S0qVLDJdv27ZdL774ojr3dEYsq6yw6b/fcevEF/Dx++XzeSS/T36vR5Lk87pHF/s8I0l+ehfJZLYG/jRZVFRUpCKzRUVFZhWZw7873vX2e/rRT/8l2Tk2OxRoyewopNcULZgAQMAEAAJm/qpTEgV8lq9Yrptvvkk1NTWGy9teadPjjz8RdezlzV++Rn/3zS9ndZyl3+eV3++T3zMy+nfS4TEDTJZiFZksMlmsMpmLpaIi/e73r+kff7opmTGa/Qq0ZBZMyCRgAgABEwAImPmnWgkW8KmoqNCqVS1qWbUqZrfXtlfa9JOfbDRcds6cWXrgnu9kvjus3y+fd0R+r0c+rzvQIpmjn6lFZovMlhI5hjx6fPNv9YtfvUTIJGACAAETAJD3AbNFgVbLukwEy95Dh/T7l3+vf/vNvxkuz3Srpd/rkc8zLK9neLSra9598Jsten17p37w0P+S3ekiZBIwAYCACQDIu4BZpwS7wy5fsVy33357zGC5d9/72rXrLb36pz/p6McfRyzPZKul3+uR1z0kn2dYfp93yhw/h4/2ad39j2t/dy8hk4AJAARMACBg5k3AXB0Ml9WxrtS4sFG33357REXY8cFy58431dt7SLvf2iXX4GDEdZZdebkevOc7abdaet1D8o4M5m1LZSLsTpc2bHxa7dv3EDIJmABAwAQAAmZOq5a0SXFaLSsqKnT77bdp+YrlcYPlwIBdvb0fqbPDOOM8eM930qsQ6/fLOzIoz8hgzo6nzIYNDz+jLW3bCz5kEjABIH3MgwkAyIYmSS8qzljLpUuXat3d66J2h+09dEg7d+5Sb+8hSVLnng71fvRRxPXOmTNLP/3h93XRBXUEy1QC5l1fl6REQma1pNck1Yt5MgEABEwAwARYrThdYisqKrTu7nVR57IcHh7Wzp279HbHma6bPQe7DcPlRRfUadPP7k+5S6x3ZFCeYWdBBss0Q+bVhEwAAAETAJBNa4PhMqrGhY1av3591FbLru6Damt7VcPDw6OXnezr09733ou4bsvnr9YD93wnpRX1ed3yDNmn9BjLVELm4aN92t25P95Vm4Ih81K2GgBgLBObAACQIZvihcubb75JP/7xQ4bhcnh4WG+88R966aXfh4VLt9utPXs6Iu/ry9ekFi79fnmGHHI7TxEuDWz8we2aP682kas2Bfc5AACjKPIDAHkqx4r8bFKga6yheIV8jh8/obY/varjx09ELDuwf78O7P9z2GWpFvPxez1yu05PqelGssHudGnlLfckOk/mfZI2TIXnTZEfAEgfLZgAgHStjRcuH/rxQ1HD5d597+vffttqGC5drsGMhUvvyKBGnCcJlwmotJXpyYfuUqWtLJGrr1cC85sCAAiYAADE06IY3WJramr00I8fijq35c6duyLGW441fjqSlMKl3y+Pa0CeIQd7Kwnz59Vq3W1fSvTqmxSnYjAAgIAJAEAsdYoxBq+hoUE//+efRw2XbW2vasfON6Pe+dGPP1ZfX9/o/zd/+ZqUwuXI4Cl53UPsrRSsXL5EN7QsS+Sq1QpMSwMAIGACAJCSTYoyFUlFRYXWb/hB1EqxbW2vau++96Pesdvt1t69Z6rGtnz+an3/jluTy5Zej4YdJyjkk6Iis0WWEpv++53/VZdd+olEbtKkOEWeAAAETAAAjKyV1BwtXD7044dUU1OTUriUAoV9XIODkgLzXKYSLkcGTxX83JbJp8oiWUpsKq6YoWLbWTKX2GSylOixf/x+ovOMRj0uAAAETAAAjFQrUNjF0PoNP4jZLTZeuDzZ16eeg92SpMoKmx77YcLhhnCZzgmBpUQlFWfLXGJTkckctqyywqZNP7s/0buK2rINACBgAgAw3tpoAeL2b92uxsZGwxvt3LkrbrgcGBjQ7rd2jf7/4D3f0dw5swiXWWYpq5K1fJpUVBT1Okm0JNcFjxEAAAETAICYqiXdYbSgcWGjVq1qMbxRV/fBmAV9QuFy5/ZtcrvdkqRlV16uZVdeTrjMdrgssclsLU3oujd/+ZpE98l6UVUWAArzc4VNAABIQosMWi8rKip0993rDG+wd+8+PfPML3TqVL/sA6clSWXl5SorK5fVahkNl70ffTR6m8oKm/77d5MYd+n3y+06ndFwabIUy2S2SkVFKjJb5fe65fd65PUMT5kQa7IUy1xiS+o2D97zHV1/4G4dOnIskZB5Ky8ZACBgAgAQjWHr5apVLWFFfbq6utX2Spu2bdumo0ePRt5gzPQjRm7+yjVJdY0dGTwlv8+b/rMrKpKluFwma2nEOESZrYEPTr9f3pFBeYadeb8zo4XLw0eO6dV/f1O73n5PdrtThz8+LkmaO3umKittuvCCukQC5mpJ90nq4WUDAARMAADGq1NgKoowNTU1uunmm9TV1a3Ozk61vdKmrq6ulB+kssKmm7/8hYSv73ENZGQqEkuJTebi8pjjEEMh1Fxik0xmeVwDebszi8yWQAvtGHaHUz/66Sa1/v41w9skECrHoxUTAAiYAAAYaom24IvXXS+Hw5GRB7nsv3wi4aqxXveQvO6htIOWtbRKReb4H4nvH+iR3eHUZZd+YnTcYr6GTLOlJOK53fqdH8jucGb6mLlTUj8vHwAgYAIAEFKnKN1jDbvApmHrG2/K7nDGDZl+ryftcGcuLpeltCJmoPzd71/Trrff1fsHesKWnTNnlq79/NX66hf+UrYya97t0CJL8ejfh48cy0a4lALjdVdLepSXEAAUhiI/1fYAIC+dX1c/EQ9TrcCUE+szdYc1NTWqmV2jhcHpTF55pS0ipD54z3d07eevjpEu/YFxl2l0jbWUVUWtnrrr7ff086f+Vbvefi/u/VTayrTuti9p5fIleXX8FFfMGB1neu+DP4vaLTYDeiTV58M2+aDnIG8sAJAmWjABANE0Sdokg3GXyWhoaFBjY6OW/uUSzZvXoIpxLZO2igo9/s+PRwS8WAHTM+zMSrg8fOSY7nnwZwkFyxC706UNDz8jSXkVMkPh0u5wZjNcSmfG7nbwkgIAAiYAoHDD5WsymJIkETU1NVqxYrmWr1geVl3WSGOwJXN8wIzG53XLOzKY8XC59Y03dc+DP0u5m+jGJ36t5qVNqrSV5cUO9ns9KjJbIrr+hsyfV6vKinJJ0v6uj2R3utJ5uFsImABAwAQAEC6T0riwUatWrdLSpYm35DU0zFNFRUVYkaBDR45FHYeZzrhLs7XUMFz+6Keb9ItfvZTWRrM7Xdrf9ZEWNc7Pi53s83lkNlskv2/0spXLl6h5yUI1L1kYcf3DR/u0u3O/tvxph3Z37k/24VYrUOwHAEDABAAUkLpUwmVNTY3u/vt1hq2RRnoPHdKh3sM6fvy4Bux2lZSURFShff9Ajy679BNhl3mHnSnPd1lkMstSWhlxeZbHH+Ysv2dEfpNFbpdd8+fV6r51t2j+vNqo159bM0Nzly/RyuVLdPhon5587mVtadue6MNVi26yAEDABAAUnE3JhMuKigqtWtWim26+Keb1Bgbs6uruVnf3QfX2HopYXlk1TX19fWGX2e3hXVX9Pq886XSNLa2ImOMylXA5tuvo+Ja8+Q3n5s2O9rqH5PUMa/68c/TkQ3cl1bV3bs0Mbbjr67qhZZnWb3xa+7t7E7kZ3WQBgIAJACggayU1J3rlhoYGrbt7nRoa5hkuHx4eVlf3QXV07NHx4ydi3pfVGjnNx/sf9GjZlZefCUTDTinFyudFZotM4+Z9/NFPNyUULkNdRhc1ztfcmhmG19nduV92pytvxl+eSe3+tNZ5/rxa/fKf7tHGJ36t51u3xrt6i+gmCwAETABAQahWElORLF+xXLfffntERdhQsOzo6NTbHXs0PDyckZXzed3yuodSvr25uDzs/9/9/rW4Yy5vu+kaXfPZK6KGyrHyZdxltqy77UuaP692tJpuFHXBnx5ebgBAwAQATG1rlWDX2Nu/dbtWrWoxXLZz566UgmVVVVXM5d5hZ1pPzjym9fLwkWP6x59uinrdRMYjIlJoipY4IbNZ0ma2FgAQMAEAU1e1pDsSueLdd6/T8hXLIy4/fvyEXnr59xoYsGd85Xxet3yekZRvb7IUh429jDUVycrlS7Thrq9zRKQRMu1OlzY+8etoV7mWgAkAU5uJTQAABa9FCbReRguXO3fu0vO//Ne0wuXAQOTUI6FCOum2XhaZznyXuuvt96LOsUm4zIwbWpbF6jLczBYCAAImAGBqi9t6uWrVKsNw2db2qnbsfDMrK3XRBfVpt15KUtGY1sufP/WvhMsJEGNbViswDhMAQMAEAExBdQrMTxhVQ0ODbv/WbWGXDQ8P6/lf/qv27ns/qyvnG3Fl7L4OHzlm2Ho5f14t4TLD5tbMGB2TaaCZLQQABEwAwNQU92R/fLiUAi2X8aYeSYbb7Y647MKGc9OqHDveq/8e2dJaaSvTkw/dxVGQBWtu/EK0RQvZOgBAwAQATE1XxVrYuLBRjY2NYZe98cZ/qKv7YEZXwj5wOjz4VdhkKzFn5L79wbkzjVovN6y7Jf/mrswTc2tmRKvE28TWAQACJgBgamqOtXDVqlVh/3d1H9TbHXsyvhLjWzAvuqAuY62XPm9gDKfdHl4saFHjfDUvoTEtm65e2pT0MQcAIGACAPJTtWIUXKmpqdHSpWfG0Q0PD6ut7dWsrMj4KrLz6+fK7/Nm5L79Xo98XndECybjLrMvRoCvY+sAAAETADC1NMVa2Lgwsmvs8PBwxlfC5RqMuOyCujkZfQz3YL8ua7p49P+Vy5dobs0MjoAsi9JFloAJAARMAMAU1Bxr4cIxYy8HBuxZqxjrGoysFHthw7mZfRC/X//lknmj/8YoQIMMizInZjNbBgCmJgubAAAK1rRYC8e2YO7M0lyXgfB6OuKyGC1fKbvt5v9LgyNSeYmJ1ssJdOG8Wu3u3D/+4vPYMgAwNdGCCQCFqynWwpqaGkmBsZeZrho71uC4FswoLV5p8/u8uvtbX9FtN10zoRt5S9t22Z2uKXfwbHzi10bBMcIc4zBfx8sPAAiYAIACMbb1sqv7YFbGXoaMn6LkU1kKmJLkGXJkrHhQotq379EvW7dOuWPkz929ej6B53WhcWs0ARMACJgAgCmmKZErdXd1Z3UlIirIZqF77GSyO116/sVXp2QrZvv2PTp8tC/mdWjBBAACJgCgMFRHW9Awr2H072x2j5Ui58BclMUWzAn9gLUUy1JiU5HJLLvTpS1t26fO8yqrkskUKOPw5HMvx7x+jPGuhEwAIGACAApBRYVNktR76FBWH+dkX19EGKm0leV9+CqpnClrebXMJTZVVVVKUt53ky0yW2S1TQ88L2upKqsqJAXGmMZrxSRgAgABEwAwtTUlcqXjx09kdSXGt17ma/fY8eFLRUWjyy66oF6SdPhoX0JFcdLx5HMva9HffCvjraVma6mKy6fLZLZGPC9JeulPO2Lefqq0SgMACJgAAONw+VoiVxwZHsnqiowff5nx+S8ngNlaqmLbWWHha6zLLv3E6N9b4gSxdL0VDLAbn/h1xsZ8mq2lspRVhYVmSbro/LrRv1McY9rMSxEACJgAgPy2WtLbijH+cqxsd5GNGH/5yQvyLlxayqpiXicsYKbenTQpdqcrI62lRSazLKWVxs/rv3wi7PGmYqVcAAABEwAQO1xuyqUVGj9FyZzoBWFyTqzwNd6yKy8f/fulLLdihuzv7k0/QJfYIlouQyorbLrogrqw8BzN3DzarwAAAiYAIL5NuRYu8z2ImCwlUcPXeC1/c/Xo39mcsmRsgaTXtnWkmaCLAuNJY7j282ee1+GjfVFDZpT9upCXJQAQMAEA+RkuV6dyw97eiesim28FfkzWkoSvu+zKy1UZrMxrd7r05LMvZWWdxo5h3d/dm1Y32WhjSsOC85iAKcWfsmScOl6aAEDABAAUSLiUpJKSkqyu3NgiP5UV5VN6R9z8lWtG/36+dWtGurCONz6kP5Fc4AtTFJznMpbKCpuWffqy0f9jtWIaaFIetKoDAAiYAIA0w2VXV7ckaebMsydsZfNt/ku/151cwPzyF0ZbMSVp3f2PZ7yr7PjpQHZ37k+9FdPvi3sVr3tIX115ZdhlTz73cjLPazUhEwAImACAKRwuJcnhdEz4CufbFCXekeTCYWWFLawV8/DRPq353sMZDZmVtrKIVsyfPPHrlO7L53VLfr9B7vTKO+zUiKNPHteAFn3y/LAxloeP9kVUlJ0z6yxCJgAQMAEAhRgukRi/zyuPayCp24xvxdzf3ZvxkHn10qaw//d39ybTbTXs+Y0MnpJ32Dn6M+I8GQiWw075fd7R636tZVnYbZ9/8dWw6VgSKN5EyAQAAiYAIJ/DZXNZ9AqhTodTkjTz7PAusm63Wyf7+nSyr089B7vVc7B79P9UWK3WvN7YXveQRhx98rqHDFv7xvJ5hlVm9uqGlqsjAmAmQ+Y1n70i4rKNT/w6pfv3ez3yDDtHf/xej+H1xgdIu9Oljcm3nBIyAWAKsLAJAGDKeCSRcFlpMmnd9CrNt1rV7hoyvE5XV5ekQJEfl2tQB7sP6mTfibCiPEaqqqpUe+65qpk9W2Vl8Yv2VFVVqS8YTt/q3K81N34h7zZ6qCXTI6nIbFFRUfh3t36/LyyYfa1lmba0bQ9r4QuFzF/+0z1pr8/cmhmaP682rIhQKPBtuOvrKd3n4aN9OjJmff/c3SuH06XDR/u0u3N/2HMJad++R+3b96h5SVKzkayW9KGkDbycAYCACQCYPKslrU0kXD4xa4bmF8dvOezq6tZvfvNrde7pTHglBgYGtPe997T3vfdUe+65umD+/ISC5lTh93rkj7cPbGVad9uXtO7+x8MuD3VlXbl8SdrrcUPLMm14+Jmwy7a0bdfKz14RUQgomo1P/Fpvde5Pq9rtlrbtyQZMSVovqUfSZl7WAJB/6CILAFMjXMbtWmgULudazFGv/3ff+rukwuV4vR99pNdefVUH9kevYnrWjDNdcNOZszHfNC9ZaBj0tvxpR0buf+XyJYbjHpOpXJvuVCqhIC2lNAUN44gBgIAJAJgETQp0jY3LqOWywpT9j4ED+/+s/3jjdbndkdN6lJWHT01i1NUyl214+BmtXH2v1nz/EW184td6vnVr3KBsd7r05HMvG14vkyHbqLux3enSho1PJxwQ0wmXTz5012jIHV/ZNkGPBI9vAEAeoYssAOSvOkmvSaqOG4RmVEeES7vPp/0j7glZ0YGBAe3cvk2LlywNK+wzY8aMiIA1NwNdRCfC4aN9o9VZQ2MRx5pbM0NzamZobvDH7hjUn7t7Y4bITM4FunL5Ej353MsRob19+56EuuI2L21Kqfrs/Hm1um/dLamGyrGqg8f3pQp0mQUAEDABoDCcX1c/0Q9ZLenFRMPlNbbILoq/tDsndIWNQmZZWbnKysvlGhwMBMx3DmRkDOJEOBKntfXw0b5A8EziPhMdH5koo7GeUmB85YUN58YMgWtu/ILat3Uk3KW20lamNTddoxvGTVmSoeP8akn9vNMAAAETAJAdm5RA98Fo4XL/iFtPnrYn/aDnzJmlZZ++XJWVNl126SckSXa7U+9/0KOtb+zU+wd64obMfXvfU+PCM6teUzNbPQe7AwGzgMZhGkmhIE7c+1vUOD9iu9qdLq3f+LSefOiuqK2mc2tm6MmH7tK6+x+P2XW5eclCNS9ZmNIXA9+trtBj/Y54V2tSoLvsrbzsASD3Ffn9frYCAKRpglswNyhQaTOmlbZyrZ9RHXG53efTjR8f12GPN+EHbPn81brpy9foogvqYl7v8JFjuufBn2nX2+/FvN4VS5bqrGD32JN9fdqxfdvosi2bHzAsUJNr7E6XVt5yT8bmr1y5fEnK04jE3CdH+3TDtx80XM9EH3N/d6/at+8Ju2zRJy/Q/IZzE+7Wu+hvvhVxWeucGXqs36GtruFE7uI+ZXn6kg96DvJmBgAETAAoqIDZrMC4tJTCpSQ9edqecOvlZZd+Qg/e8x3NnTMrqZX80U836Re/einq8hkzZmjxkqWj/7f9nz+OFgHacNfX86abbGj+ynRD5g0ty0YrrmbDk8+9rCeeNd4fE7W9xwfMS4qtemBGlSQlEzKvltROwASA3EUVWQDIH3UKjEeLaX6xVXdNr4q6/CXnYEIP9nff/Io2/ez+pMOlJH3/jlvV8vmroy7v6+vTwMDA6P9VVWfWd/c7B/Jmh8yfV6vn/+kerVy+JKUCPZW2Mm38we1ZDZdSYDxltPGdGx5+Jq3pSDLhm1U21VsTGrWT0LhjAMDkoQUTADJgglow31accZeVJpP+99xZqowy/cju4RHddvRE3Ad68J7v6NoYATFR169eF3Vc5gXzL9QF8wOh58D+/Tqw/8+SAmP/tmx+IC+Pg/bte7S/u1dvBcc8jh/7OH9erSorynXhvFotapyvRY3zM1o5NpZYXWUrbWXa8vSDWV2XWC2YkuT0+bXm+Ck5fXHPS9oVaMnMOFowASB9FPkBgPwQd07ASpNJT8yaETVcSlL7YPyunN+/49aY4dLucOr9Az06Z/bMuK2b37/jG7r1Oz8wXHay74Sk+YZB6PDRvrwYhzleqOCN0RyUk21uzQytu+1L2vDwM5H71OnSmu89HLPoT7bZTEV64Kwq3XnidNzNrMBYzA28LQBA7qGLLADkQW6RtDbeldZNr4qY63K83cMjMZcvu/Jy3fzlawyX/e73r+mvr/+Wlvz113Xrd36gFdd/S5f85Rf13X/4kba+8abhbS679BNRu8qO7SIbGn8ZMtldNqeqlcuXRB1vub+7Vxuf+HVWHvdwnCldQuqtFn23uiKRq64Pvi4AAARMAEASqhWYkiR2cLCVG05HEhEiRtxRl1VW2PTgPd+JuNzucOq7//Aj3fPgz3ToyLGI5VvfeFPf/YcfafW379Xevfvk94VXp43WGhoKlQMDAzrU+xEBc4JsuOvrUee/3NK2XU8+93LGH9NoztBZZuNTkGVlJVpWVpLI3W4S4zEBgIAJAEjKJgWK+0Q1v9gatWJsouFSkm7+yjWqrLBFXP6jn26K2kI51lsd+/TNtQ/qlbatcg/2y+cJVAW97NJP6JwoXWn/443X9R9vvB7Rgvnnro/Y81m08Qe3R+0K+8SzL2lL2/asr8MsiznqsgSL/tQpgS9fAAAETABAQEvwJ6pKk0kbzz4roTuzxyjqVllh081fjhw3uOvt99T6+9cSXmG706V19z+u9/d3yz14WiOOPnndQ1r26csNrz+2m+z4+0H2zK2ZoScfuivq8smuLGszFekfplfKZipK+zUCACBgAgAS7Bq7bnqV5sRoCRprh2so6rLPXHm5Yevl2LksFzXOj9q1crzQ3JB+n1ce14A+39yU1JO3OwY5ArJs/rxabbjr6zH3YaZCptEXBrai2OFxltmkb1bZErl7usoCAAETAJDuSXNzWWlC4y4l6ZTXI5ffF3V5tBbGrW+8qfnzarVl8wN68kd36oaWZQkHig0bnz4TZurPmbTqpIguVtGfUGXZTLQmGwXVemv8L0aWlZVocWlxvKtVK1BlGQBAwAQAGGVHxen2N9diTmjcpSQN+Lxyjiu8E3Eif2VkwNz19nu6sOEv9ORDd41OGdK+fU/CTyI0J2TIosb5Cd1u/rzamN03kVkb7vp61H2TyZCZqu9Oq4haEGiM1aKqLAAQMAEAEaqVQNfY9TOmx5zvMmTQ59WA1xPzOhddUGd4+TmzZ+qpR+8Na3kcHzBXLl+i9t88rN1/+GfddlPk9CbPt24d/fvChnPjBssNd31dv/yne2jtnGAbf3B71O7P+7t70w6ZRl2eZ5kT69ptMxUlOnUJBX8AIAdY2AQAkFPWKk7V2K9V2rSoJG63QQ37fToZJ1xKMhx7KUlz58ySxzUgr9s7GjTGWtQ4P2wM35obvyC7YzAsVLZv65CC17nms1dEPEaFrUwXzqvV/IZzCZWTqNJWpvvW3RI1SIZC5pMP3ZXSfvqzQRfZBFolR11SbNVKW6m2OIdiXa1O0obgDwCAgAkABa9OgQnko5prMWvNtMq4d+T1+9Xncae9Qj7fmYA6vhXKaDzmmpuu0Za27aMhxe50aX93r+bPq9Xcmhlac+MX2Ms5KtQ1OVbIvOHbD8Zs7UxUAtVhI3y1olw7h0Z0zOuLdbU7JG2W1MMeBYDJQRdZAMgdcQuV3DV9WtyusT5JJ7xu+dJdG79f/jEtoLvfORC22GjcXqWtTDes+kzYZVSEza+QufEHt0ddfvhoX0rVZXd37g/7v96S/PfbNlNRIlVlq0XBHwAgYAIA4hf2aS4rVXNZadw7Ou31yB1jzstE+bwjUZfNrZkRtavk11qWhS0bH0yR28Z3fR4vVPhnMiwuLU6kqmyLKPgDAARMAChwMVtdKk0mrZs+Le6dOGJUjL2k2LjV6P0DPYaX+2OM35wTrCpruK4GrZjInCKzRdbyabKUVqjIZM7KY6xcviTmlDR2pyuiVTIao+tdUmJNed2+WWVLpIstrZgAQMAEgIK1WlJTrCt8rdKmOZbYYcLt96s/gaI+EWHB4ZTd4Yy43OdNfQzn2FbMObPOYg9nLF0Wqbh8ukyWEpmLy1VcMUNma2lWHmrNTddkpPCS0XhOW1FRyvc3y2zSyvjr1RR8XQEACJgAUHDSLuzjk9QXJxBeUhy91cioFXN8wFz0yQtG//5UnDktK21lWnfblwLrH6O1E8mxFJdL48KZpaxKRebM1+yrtJVp5fIl0ZdXlCd0P0bjNeut6bW8frWiLJEqtOs5YgCAgAkAhWat4kxLclcCXWNPez3yJDDuMtpJ+a6334u8cNz9JRooQlYuX6INd309ZndaJPmhHaW10lJiy8rjLYryRUKlrSzhSrJ/7vrI4DhMv2tvAgV/6kQrJgAQMAGggFQrTivLotKSuIV9XD5f1HGX49VbjVu6tr6xM+x/o+6xqUxNsXL5ElowM6TIbIk65tJkLp7QdWle2pTwdQ8f7TMImOmffiwuLY7ZKh+0Pvg6AwAQMAFgylsb7+Q3ka6xp5IYKxnthPz9Az06fORY3NsvitM1FtljtpREPw58nqw8ZrRCPs1LFiZ8H+O7yCYQChP21cq4YzHrRCsmABAwAaBA3BFr4UpbuRaVxG6ZOpXkfJfRKslK0qv//mbc26/87BXstUlSZDE4Fvx+eYYccjtPZeUx27fvibis0laWcMA0CqgJVIBN4ni2JjJtyR0cPQBAwASAqW610my9HPb75PL5knrQeqsl6gn+s796Oe7tm5c2qdJWJrtjkD04gZ587mUdOXYyPFt6PRoZPCXvSHb2xZa27YbdW2MV/hnvz4YFfjJbkIixmABAwAQAxBl7udJWHnNakkDX2NS6RS6O0ip66Mgx42I/Y4SqwxoFB2TH4aN9euLZl7T133eNXuZ1D2lk8FTMuUpTZXe6tKVtuzY+8WvD5cl0kzaqIBurFT0Vs8wmLSsrSev1BgAgYAJAPlutOJVj47VeOnzehKrGGgbMGF0Kf/7UvwY+HEzRQ8DK5Ut0Q8sy9uIE+WXrVknS1jcCXZg9rgF5XAMRVX4zESyffO5lrbzlHm14+BnD+Sul5KadyVYF2fG+Whm3wnGdaMUEgAlhYRMAwISLO/YyVuul1+/XQBotV4tLi2UzFcnpiwwou95+T7vefk+XXfqJwHyLUUJMMkVekJ63guMYd739njyuAXndQxm9/8NH+/Tkcy9rS9v2mNdb1Dhfd9/2pYSrCdudrogWTJupKCMVZCNDa6AVc6trONbVbpG0mSMKALKLFkwAmFjNkppiXeFrlbHHlJ3MQLfIWF0K733wZ4EPiAme+gLGxoa0fX/+IKPBcsPDz2jl6ntjhstQt+gnf3RnUlPVGBX4qbdk73vtlbbSRF57zRxRAJBdtGACwMS6JdbCRaUlmh9jGodhv0/Dfl/aK7HSVqYtTuOWsENHjunn//Ir3Xbz/yWfZ5g9lkPe6tyf0nyk44Pflj/tiNtiKQW6Q6+77UuqtJWl9DjjXVJizdq2qbdadEmxVe+OuOO9/to5kgCAgAkAU0Gd4owDizf28lSGirrMMptinoz//Kl/1bJPX6762baMj/VD6n7ZulUrly9JOvDZnS61b+vQ861bDQvvjDd/Xq3uvu1Lac17+pZhC6Y5q9vnq5VlurcvZsBcLelOSf0cTQBAwASAfBczXM61mGPOezmYRmGfVE7G7/iHH+mFJ+5TuZUdN5kqbWWjBXcOH+3Txid+rQ13fT3hULn7nQMJtVZKgQI+a278QlJTkUR7bOMKstk9mC4ptmqW2aRj3pit/GslbeDIAgACJgDku5jdY+O1Xg74vBk/GY/VinnoyDH917v+UU/84x0pdZGMFjwcziHNmTWdoyFBixrnq337ntH/t7Rt1+7O/WpeslCLGueH7Zvd7xyQ3TGotzr3J9RSmYlguaVtu/Z392rdbV8avax9W0fE9WaZTVHnYM2kr1aW67F+R7zXIQETAAiYAJDXWhRjapJKk0lXlUUvUpLp1sszJ+OxWzH//MGHWvO9h/XkQ3elHDLtTpd+2bpVW9q26/DRPp0zZ5b++Kufye06nZV5HKea5iULwwKmFGjJfL51q54PTmGSqvnzanVDy7KUguXuzv3a8PAzgSq0P7ozfNk7Bwy/0JgIi0uiV0kOqlOg2E87RxcAEDABIF9dG2vhNbYyVZqiF/bOdOvl2JP+eNM77O/u1ZrvPayNP7g9qTkQQ7ddd//jOny0b/SyQ0eOyTE4pErbdA07TjDGM17AXNqkyid+HXVeymRV2srUvLRJKz97RUpjLHd37tcTz708WsRnUeP8iPsxasHMZoGfsWymIi0uKU5kyhICJgAQMAEgL1UrzvjLlbboE8Vnq/Uy5JtVNu0cHonV4qP93b264dsPat1tX0q4tWtL23ZtePgZw2V2u1OVFTaZrWXyjgxyhMQJhGtuukYbn/h12qGyecnClOcwDY3/HN+aeveYrrGhY8UoDE9UC2bg9VQaL2C2iGI/AEDABIA81RJr4fxia8ypSbLVehliMxXpH6ZX6t6+gZjXsztd2vDwM9rypx1a+dkrogbNaEFkNOxU2DR3zixJkslaQsBMwA0ty7S/uzehYj2VtjLNbzhXF86r1fx5tbqw4dy0pjY5fLRPTz73suFj39CyLOK+ja43y2zSLPPETb1db7Wo3mrRQXfULtjVwdflZo4uAMisIj9dkwAgbefX1cda/GKskLlhRrWuidKCOejz6uQEjVPc4hzSUwPOhK8fCjKfGtM98q3O/YbzH471/Ttu1c1fvkaS5PO65XaemtLHxoaHn9GaG7+QdPfiaKJt3zk1MzL2GPGCpRQoDPT8P90TMTZ35ep7w7pES4EWxW9W2SZ0uydwPLdKWjX2gg96DvJmBgBpogUTALKrWnFaMGMV98l26+X4EHDQ7YnXtXCU3enS7gQC5Vgtn796NFxKkslUGB9DK1ffq0WN87Xys1cExlSmUZU3nbkpEw2wW/60I25r6Ya7vh7xPHZ37o8Il9LEdo8NWVZWEi9gtgRfn/28TQEAARMA8kXMcNlcVhq1uM+w35fVsZdGvltdIUkJh8ykNsTnr9YD93wn/MKiorzcqSZLsYpMFhUVFcnn9cjv90atiLvuti8F5qMMhfGHn9H8ebW6emmTFn3yAs1vODdj08CkKtT9tn37HsOAON4NLcsMg+6WP+0wvP5kBEybqUiLS4u1c2gk3utzM29TAEDABIB8EbN6bHN5jNZLr3dSVvi71RWqt1qS6i6bUrgMZUyTWX6fNy92ZpHZImvZNBWZzKOXjf7l98vrdsk74gp7PpW2Mm1Yd4vW3f94WKAbO0/l3JoZmlMzQ59qnK8KW5kunFeryorytMZOxgqTdsegdr9zQH/u+ki7O/cnVaF2UeP8sDkvxzKsHltsnZD5L40kEDCvJWACAAETAPJFtVLsHuv1+zXs903aiq+0lWqW2aTHTjtiVpdNxEUX1EUNl/kWMM2WkrBwOZ7f65HfYL81L1modbd9KWol2MNH+3T4aF/U7sahADrWpxLsKrvokxeMtjY+37o1rWq08+fVauMPbjdctqVtu2FQXVxaPGn7a3FJ3MduEd1kAYCACQB5Ima4jNU91p4DgWtxabGeLJ6ux0474rUCxfR33/hKzOVFJoukkbze0X6vRyODp2LO6XlDy7JAa2aUqVtiCQXQsRId+9q8ZOFowHSkMZfm/Hm1evKhu6J2543WPXYyA2aC3WSbFSj4AwDIABObAACy5qqYZ7UxuscO5kiLXmgKkwdmVKU8jm7ZlZfHDph5Og7zTLr0y+06HTNchqxcvkQbf3D7hI65tKcRKhMNl9FaXyd6epIUA+61vFUBAAETAPJBS8z0GaV77KDPK1+OPZFLiq16YEaVHjl7mpaVlSQ1pu79Az2xA6alOG92qFFXXu/IYNjloeq6Y8dYhn2xsGShtjz9YNR5RDPtSAJFe2JZ1Dg/ZriUpCefeznVcJf9gBm/m2wzb1UAkDl0kQWA7GhSYGyXofnF1qjdY50+X84+qXqrZbTS7Lsjbr074tG7w269O+KOehu7I3axoKKi/Pmu02h8pWdkcPTvjU/8Ws+3bh39f8vmBwznpqy0lWnDXV/Xmhu/EHOuyUw4nEbAvO2ma7Tmxi/EvI7d6TIs7iMFpgqZbDZTkeqtFh10R51Pti74eu3gbQsA0kcLJgBkR3OshStt5YaXT3Zxn2RcUmzVVyvK9MCMqpjX2/X2e7EDpsmcN9OV+DzhY/n8Xk9Y19jxYe6XY8Kmkbk1M7Thrq9ry+YHdEPLMsMwOikH75KF2rL5gbjhMvQcjbrhzjKbVG/Nje+xE2hJbeYtCwAImACQy2KOv1wUpdueM0/CpVHYjOb9AwfjfxiZrXnzXMfOd+nzhgfO2266Jqwr6fOtW6N2lR0fNNfd9iVt2fyAfvlP9+iGlmVZmaIklkpbmVYuX6Itmx/Qxh/cnlDYtTtdev7FV1MNdRMXMEusab1eAQCJo4ssAGRHc9QTeZNJ86MEssE8ma4jGX+OMwYzFDDHtw6mYsPDz2jDXV/P6vPxeUdkNgc/PscV9gkVw1nzvYdHW/XWb3w67hjG8fcRmmdy7HjOtzr364hBNdlkjA2tY+fenD+vVs1LFiZ9f+3bOqIWEVo5gYWM4qm3WmQzFcWacqeZtywAIGACQK5qUozxl9FaL91+vzx+f14+4UtKrFHHYR46ckyHjxzT3Dmzot6+yJyZj6M/d32kLW3bs1pAx+dxy1wcO8SNDZn7u3u18YlfpxR8K21lal6yUM1LFoZ1V93f3Su7Y3D0/hP+1mPJQu3+wz9nZDvYna6oxX0uKbZOevVYo3WKMV1JtRiHCQAETADIUc2xFi4qNS584szj1st6iznm8l1vv6drYwRMkzkz3SkrK8q18Ylfa1Hj/KyNZ/R5R+TzDAfn74weMjf+4Hat+f4jkjRaxCdTratjWyJTaXnMhF+2bo3amrqsvCTnjtE4ATP0uiVgAkCaGIMJAJmX0vjLoTwdfxk6eY8XMGMqKgoU+0nTpxrny+50ad39j2fvyfr9cg+e1oijT57h6BVyFzXO1203XTP6/5a27fratx9Mq4trrog19nKW2ZQT1WMjj9G436kvFACAgAkAOagp2oJo4y/zuXusdGYqiGhefePN+B9IGSj0s+iTF0gKdCGN1n1zIq258QthrY37u3t1w7cfDJvKJB9FqxwrSV+tLM/JdU6gom0zb10AQMAEgFxTrcC8eoaiFfdxToHiPrFaiOwOZ9xWTJM1/VavRY3zR4vpPPHsS9rduX/St8vGH9weVuDH7nRp4xO/1srV92pL2/aoQS1XHT7apyeefclwWa62Xp45RmN+iVHH2xcAEDABINc0xQxAU7B7bEi8YLE1TitmpsZhNi89swvW3f/4pAe40BQkRkFtw8PPaOUt92jDw8+offuevAibGx5+Juqy71ZX5PS6X1JiFQCAgAkA+aQ51kKjFkxvnnePDam3WmJ2Q9z673G6yRYVyWRJP2SOrbaa9fGYCVq5fEnUyrZ2p0tb2rZr3f2Pq/n6u7Tm+49o4xO/1pa27drduT+nQmf79j1RW4UXlxbHHYs76ceoxSwAQHZRRRYAMitmoZALrZEn4K4p0Ho5GqRspXqs32G47NCRY3r/QI8uuqAu6u1NluK058OcWzNDK5cvGa3curtzv5587uWw4DkZ1t32Jf2566O404rs7txvGOJC81aGVNrKdGHDuVHv589dH0UNp81LFuqGlmVJrb/d6dKGjU8bLrOZivTNKlvOH58JjMMEABAwASCnRE1PlSaT5hi0oLh8UydgLi4pjjmh/bO/ekkP3POdGAGzRJIj7fVYc+MXRgOmFBiPueiTF2hR4/xJ2zaVtjI9+dBdWnnLPSm1Sh4+2hdRgbZ9+56U1uW2FML2ho1PR13vlbaynJv30sgssynm8QkASB9dZAEgs5qiLTDqHuuTNDyFWjBtpiKtHFPQZrx41WSLTGYVmdP/7nNuzYyIFrpcGI8ZCpmVMbZRtt3QsizpoN2+fU/UMDvLbNLK8tK8OUbrLXy3DgAETADI83ApSfMNuucNT6HWy5CV5aVRW7PsDqd+9/vXYt7eXJyZaS7W3HSN5o7pUmp3urTmew9P+vaZP69WW55+MGz6konSvGShYcGhWGJ1jZUC05LYTEX5EzCtjMMEAAImAOSH6lgL5xq0nEyl1suQeOPxWuMFTEtmprmotJVpw11fD7tsf3dvzCqoE6XSVqZf/tM9uu2mayasNfO2m67Rxh/cnvTtYnWNtZmKcnpaEiOzzARMACBgAkB+aI610KiL7FQMmFKgoujiUuOKsLvefk+HjxyLfuOiIpmtmelyuahxvm676Zqwy7a0bQ8bnzmZ1tz4BW15+kGtu+1LGW/RrLSVqXnJQm246+tq/83DKRU5itU1VlLehUuJFkwAyDYGIgDABJk7ruXEJ8ntn7rFRr47rUJrRk4ZFlT5+b/8Knaxn+Iyed1DGQtxb42rzLrh4WdUWVGu5iULJ307VdrKdEPLMt3QskyHj/Zpd+d+HTl2Um8F1zfatCBjQ7QUGHc6t2aG5s+r1fx5tWHdg1MRr2ts6IuEfEMLJgBkV5HfTyU1AEjX+XX1kvSaYrRivvUXc8P+d/l86vO6p/R2ecHh0gv2wchQVWHTK//2z6qsiN6VdsR5Un6vJyPrYXe6dMO3HwyrwhoquDMZYyHzwbr7H49bpfaBGVU5P/elkZYjfYaXf9BzsIg9DwDpoYssAEyAuQbTk0zV7rFjfbWizLAAjN3h1C9+9XLM22aq2E8oTG78we1h4x1DRX/izUtZiLa0bU9oCpStg8N5+fzyYUoVACBgAgCaoy2YY1Dgx10gPUiijdOLW03WWqoiU+a6M86fVxtR5MbudOXE9CW5ZH93rzY+8euErrvVNaytrvwLmXSTBQACJgDktbnmwmzBlKKP0zt05Fj8kFliy+i6LGqcH1FZ9vDRPq353sOEzGDgXh+jaqyRx/odOuj25NXzzKdpVQCAgAkAhaku1sI547rIFkq4lBRzjN7P/+VXsQNmhlsxJWnl8iWG05cQMpVyl+F7Tw7kVcist1LjEAAImACQxwFzPHcBFViLFTwmoxUzFDJXLl8SETJX3nJPwY7J3PDwMyk/d6fPr3tPDmjn0AjvBABAwAQAZNv4OTALKWC+4IjdKviPP90ku8MZPWBaS2WyZH46jA13fT0iZBZi4R+706WvffvBtOcGdfr8+uEpe16MyaTIDwAQMAEgr1Wawt9uRwqgi6zT59dj/Y64rVqJVJS1lFRkZR1jhcx0A1c+2N/dqxu+/WBGA/Vj/Q5tcQ7l9PMmYAIAARMAcl1zMlee6i2Y7464deeJ/oRbs37+1L/q8JFjUZcXmS0ZnbZkfMhsXrIwImRuePiZhKup5qMnn3tZXxs3N2g0089fqOnnL0z4vp8acOqxfgfvCgBAwAQAZNtULvATarW8t29Ax7zJPc97HvxZzOWWElvGC/6Mhsx1t2j+vNqIy59v3ao1338koRCWL3Z37tfK1ffqiWdfSuj6VeddpJkL/0ozF/6VZn/qMwk/zlbXsO7tG5DT5+dFDwAETABAJs0fU7XSO0VbL19wuLTm+KmUx+Dtevu92AV/iopkKavKyrpX2sr05EN3RbRkhgLZDd9+UO3b9+T1/gm1yiYTmKefvzAsVFadd5Fmf+ozMllLErr9uyPunKwwW2+hiiwAZEuR3883iwCQrvPr6jdIWh9t+Vt/MXf0736vRw6fd8o8951DI3pqwJl0i6Vh0Kuw6d82/0Rz58yKeh3vsFOeYWfWns+Gh5+JOv6yeclCrbvtS5pbMyOvguUvW7fq+RdfTXgaFpO1RLMW/pWqzrvIcPlw/wl99EarfO7EvkywmYr0D9MrY05ZM9FajkSG7A96DjJBJgCkiRZMAJhgU2X85bsjbt3bN6AfnrJnJFxKgYI/3/2HH8WuKltiy0pV2dGAaVD4J6R9+x7d8O0H9eRzL+fFPtrStl03fPtBPfHsSwmHy5Lqs3XulS1Rw+XY6yTakun0+XVv30BeVJgFAKSHFkwAyIBkWjA/9ozIk8fvvU6fX08NOLMaFi66oE6bfna/KiuizIHp92vEeVL+LLYEb2nbrg0PPxN1+dyaGVpz4xeihtHJYne6tKVtu37ZujXpsaO22edpzuXLEw6OybZkStJ3qyu0rKxk0rcTLZgAQMAEgCkRMHvd+duK84LDpS1OV8qFW6rOu0jDp09ouP9EQiHzgXv+my66oM44Y3o9Ghk8JWXxc2x/d6/WfO/hmK1/uRI0Dx/t0y9bt2pL2/aEWyvHKj5rtopnzFHFjBpZi0tVUn12QkEzlZC50laqb1bZCJgAQMAEAKQTMIf9Ph33uPPu+b074tZj/Y6UusJayytVVbdA089vHA0sH7/1qgY+fD/ubSsrbPq7b35ZN3/5mkkLmXanSxs2Ph23yM/cmhlauXyJvtayTJW2sgnZL3anS+3bOrTlTzu0u3N/eicEZov83vBiPNPPX6gZF18WN2imEjKXlZXom1U22UyTk+kImABAwASAvA+YLp9Pfd78CZjHvD49NeDUzqGRlILljIsvjzqWL9GQKQVaM79/xzd02aWfiFjmdQ/J4xrI+rZo375HG5/4dULdTpuXLNTK5UsMq9JmKlTufueA2rd1pNRamYxEx1umEjLrrRY9cFbVpIRMAiYAEDABIO8D5oDPqwGvJ+efj9Pn15bBIb1gH0z6tuUzz1H1+QtVMbc+7nU/fPVfE+ouOzZo3vzla7TsysvDxmd63UPyDNnTbsls375Huzv368/dvYbL59bMSCrUVdrK1Ly0SYs+eYEWNc5Pqfrs4aN92t/dq92d+/VW537tj7Ju2VQ+8xzVXtkS93qphszvTrOp3jqxU4cQMAGAgAkAeR8w82GKkq2uYT014Ex6nGX5zHM0Y8FlKpt5TsK38bmH9dEbrUmFzJBlV16uz3z6cl126Sc0d86stLrLPvncy0lN45GqSluZ5jecqwvn1aqyojzq9f7c9ZHsTpf2B3/ngtmf+kzMyrLphEybqUgPnFU1oSGTgAkABEwAyPuAedzj1rDfl5PP4d0Rt16wu/TuSHJdeON1hU0kZHb/4RdJBZLxzpkzSxdeUKcL59Xq0gXnaU7NjIRbC2PNe4kzTNYSnbfiBllLy6dEyCRgAgABEwDyPmAe9Yzk3DyYqU47YrKWaMbFl2n6+emPM0wlkCRibs0MzamZoUpbmS5sOFeSNGfWWaPhc/c7B/TEsy9xACeo/LwFmt7wSdmmz0xon368+9WkWqcnMmQSMAGAgAkAeR8wc22Kki3OIb3gGEy6O+yMiy8PqwqbCY7DB3V4++85mDIQqhOd/7LSZNKikmLNL7ZqrsWswx6vdg+PaPeQ8XFqLqtQ5UWXqbjMpmk1tSoymWPev889rMPb/6DB44cSXv9ZZpMeObs6q4V/nD6/bjx6koAJAFlgYRMAQPbtHh7RopLinFmfg26PnhoYTLo7bPnMc1Tzqc/IWl6Z8XWqmFuvmQv/Ssf3/EfM6y24+GI9/uQTeuzRn+rffvObgj6uFjXO16ca52v+vFrNn1c7Wuk2bgi1mLVmWqWuKitVpckUsfwl56A29PVHXO51OeQbGdKIpBP/+YGqZ58bs8usyVqi2itb1Ldvl/r2vpnQczrm9emx0w79w/TK7B3/Hg9vSgBAwASA/JYLYy9TrQ5rLa/UzIWfTqgybDqmn79Qw/0nYk5fUltbq3Nqa/Wjn/xY9/zgf2jnjh3at3efdu7YIUmjv9Ox0lauRaXFsvv8OuzxaL/bE7VVLxWVtrKki/dU2sq0qHG+Lmw4d7QqbUjCc3UGg+U1ttjjKK+xlWv30Ii2OCOPE/fpEyqZWSu/z6tTh3tkmz4zbpfZGQsuU8m0s/XxW68m1A1659CI3h1x65JiK28cAJBn6CILABlwfl19i6QXoy1/ouZsXVJs0XHP5M2B+e6IW4/1O3TMm1zQnX7+Qs24+LKMdoc14vW45Tx1XEP2fjm735H7dPSxe797aYs+ccklMe9vYGBA+/buPRNaduyUJB3q7dXevXvDlo2GOJNJT8yaoflRgs3u4RG1D7r0umtIhz2pVQOutJVp3W1f0oUN56p9+57RirERYTBYqCjUOhmtaNH+7l6tu//xuN1i10yr1JppibcKHvF4tfLw0cgvG6adLdu8T4ZdVlxmU+XMuTJbYgfCZMZlLi4tzlor5rsjbt3bFzl3Kl1kAYCACQC5EjCbJb0WbflPZp6lxSXF6vNOTsB8asCpLc6hpG5TUn22Zi/6jEqqz87qurmHBuU8dVwjLufoZX6vR87ud+Rx9BvepqKiQo88+rD+y6JPyVZRIYs1uZaunTt26Mavfi3i8g0zquO27o0NYO2uIf3S7kgpbDYvWagN625Rpa0s5W3Xvn2PNmx8OmZr6KLSEm04q1pzLOak7/+2Y30RLbdFZoumNX468oTCZFbVzLkqscUOhclMTdM6Z0ZWjrmdQyP64Sk7ARMAssDEJgCA7Ns/4pZbE/+F3kG3R3eeOJ10uJxx8eU67zNfyWq4HLL3q+8/D+jU4Z6wcBkKMRUXXKqy2gtUZI4czeFwOPS3/3WNHn34YX14sFsfHz4k+8Bp+XyJtc4e6u2NuGyuxZxwuJSkORazvlZp0/+eW6PnZ8/USlu54XjGWOFw5S336MnnXk5prssnn3tZ6+5/POptK00mrZs+TU/MmpFQuPQp0I177M9flkaOG/Z7PfJ7I8cw+n1enT76kRx9H8c+8bCW6NwrW7L+xUXM14XHy5sSAGQJYzABIDN6cm2FtjiH9NSAM6nbZLvV0u/zavD0SQ3Z++VNoLtwycxaWaedrcEP9xm2Zv7iF8/qlVfadPPNN2n5iuWSPlZZeblstgqVlperpMS4W2+ou+xYX6usSPl5zS+2av2Mat3l8+l115CePG1PqFXT7nTpiWdf0vMvvqrmpU1qXrJQzUsWxr1NvPGW84ut2nj2WTGDpcsXCJFuvz/q+OB6i3Fg9rocslRUGy4bPH1SI65BTZt9btQusyZriWYv+ow+fPVfYz7XY16fZpn5LhwA8gldZAEgQ86vq4/6hrrSVq47p1dqwJv96pXvjrj11MCgDrqTe6wZF1+uGQsuy8o6hcZXDjvt8vtSaz1ynz6hwQ/3GbaeSVJNTY1WXbdKy5cvV0WFTZJksVpVVhYImsWlJbJarLJYrfovjQs1MBA+Bu/52TOjjr1MRaD7rDOl4kDz59WqsqJcFwZ/h31x0LY96njLSpNJX6u0xRxr6fb71ed1y5Pg5/+NR09GTGNTVnuBSmbWxj7BSKDL7PE9/6FTH0QPytnqIvvDU3btHBqJuJwusgBAwASAvAiYi0pL9MBZVVmtJPvuiFsv2F1JTz2SzVZL99CgBk/3adhpz8j9+b0eDR/v1dCRgzGvt3zFci1dulRLly6JWNbV1a2/+9bfRVwemqs003YPj+jJ0/aMVqE10lxWqnXTp8VstfRJ+tg9rGSOwnv7BiKOqdI59SqdXZfQ7cunnaWKGbMNlw33n4jZipmtgGn0nAiYAJAZdJEFgMxpl9RstMDuy71gKWWvQuyQvV+Dp0/KMzKU0fstMltUOrtOxWfN1tCRgxo5aTzer+2VNrW90qaKigotWbpECxsb1biwUTU1NXI6HRHXn2sQynyShnxejfj9cht8GWsqkqxFZ7pvlhQVyVpkiihusKikWE/MmqF215Du6+vPyrGQaIXYQZ9XyT76JSXWiGPLn0Q15FhdZmN9qVFvzd4pyjEvYzABgIAJAHls/0jmq8cedHv01MBgSsHSZC3ROUv+RmUzz8nY+iQ7vjIdpuJSlZ+3QCWzzpWr90DUarMOh2M0bEqB6rM1NTUR15tjsUSEy+OeEcNgeeYJSy6DuGYtKlJJkUklRSaVjSn601xWqkVzZ+nJ03b90u7M6PbYPTyS0PVSibZGYyC9LkdS9+EZGdLJ3u6EqszGetzMBUwfb0oAQMAEgJzXoSgtmFKgFbM4Qx3wtrqG9Vi/I6Xbls88R3OX/E3GWi29Hrdcp/vksp9OeXxlqsxlFaq44FJ5HP0aOnIwatAcGzgdjvjb7bTXEztcxuD2++X2e+WQVyavVGG2qMJklklnKrs2l5cl3G12frFVi0qKVV5UpHdHRgzHDu4eGtb+EXdGx5BmOuiFqsyWVlarckaNikxmuY4finr9S7LwXAiXAEDABIB8cjrWwv1ud0ZOmtMJlzMX/pWmn78wI0/WPTQol71fQ/b+yf8wq6hOKmjG48pQUPZJGvB65PX7NX3MdCuhbrP7R9xqdw1p/4hbh73esJbu+cVWrZs+TYtKAlOFDPt9Ou5x66Dbo3tPDkQU3tk9PJKlgGnO6P0N2fvlGR5S1ay58rpHYgTM7Jyi0D0WAAiYAJAv2iWtj7bwoNubdsB8d8SdUri0lldq7pLPZ6SQz5C9X0OO0xFzV+bEh1qKQXPuuBCV6TYul88bFjDHhshQKNw9PKLbjp4YXTY2XEpSKE/WWy367rQK/fBUeOGkjadOa+Op0xH3f6HVqmsqyrWopFhWJd+Eno2uqp6RIZ06/KHcJ3oNl9tMRVkbg3nQTcAEAAImAOSHmGnGmYGq3VucyRfNqZhbr9mf+kxaXWL9Pq9c9tNyne7L+vjKTAZNr8uh4WMfRS0GZCSblX6jsft8ah90Jbxei0uLNctsitrdc67FrDkWi+ZbLao0mbR7aFjzrRaZlTuV4/0+r4b7TxguWzwmWGcaLZgAQMAEgHzREWvhu8NuqaIsrQcwGn8XS7pdYidzfGUmmMsqVH7eApXOqY9ZdfZwlkNHuSmym+n+Ebf2u91qHxxSuyv2Fwc+SUPjgu/i0uKILxyay0q1Zlpl1K6yp1Kch7Xeakl6XtWEjq8oxYIWl2YvYNKCCQAETADIt5DZZHhi60nvBD2ZarHpdon1jAyNVoSdCkJVZ0NB0336hPxRwlZJUea7hFaZLbL7fHrJ6dLuoWHtHh6JO13J/hH3aBdZh88rz7gWcJspcj3Xz6hWpcl4/d1+v5wpfklgK8r89JC+kSH5okxjk9WA6fEIAEDABIB80RMtYDp9fjl9ftlM2Z3LPZ0uscNOu1wDJ3NyfGUmg+bgh/uS6jabrn6vV79xDMru88nu96vSVCR7nJ64oYI/gz6vBgzC8DFPZFgcGy69fr888svr92vY789Y4SJJslROT/s+JqP1MvQaBAAQMAEgX+yR1BJt4UGPJ2vTL0jSjIsv14wFlyV1G7/Pq2GnXc5Tx/NifGVGgmZJ2YQ+3pDPo1uqbGGto0c8Xu0eHo7aRXb38LAGooRLKXqLttfv10mvZ1LGkuZ6wHx3pDCObwAgYALA1NER+wQ39YAZ73YVc+uTCpdej1tD9n4Nnj6Zl+Mr0/rwq6iOudxaVJTyPJhGfJKOe9yymcyqMpllLirSHItZ11jKdY2tXHafT7+0O/WSc1CHgy2Thz1efTAyYljFdYtzKGqBH7vPm/FwOb5bqam4NO379NhPGQfMkmx2j2X8JQBkm4lNAAATFzDTLZQSa8oIx+GDcg/aE76vvv88IOep4wUXLo0C0pHxAUrZ6cbs9Hl1xDOiPq9bjmAQHPb7VFwk3VBZHjHnpFHF0xccLj01YNyFeffwiExZGC85vltpRgKmwRQyi0uLs9qF/N1hWjABINtowQSAzOpRYLqSasMT3DS76NVbLTrmjV5Jtv/AHs1c+FcJ3VdxmW3KjrVMJGCaiktHi8wcnuCWLZfPJ5fBbJvjC/nc2zcQ1nJ90OOJOYZwvtWi4gznM6MvReK1AMczGd1jQ9svzmsXAJDuZyybAAAyrj3aAqfPH7VrYyLidZM9/eH78rmHE7ova2l5Qe8kc1lF2P/7x4T/ElPufDy+O+Ie/YlXoObhUwPaPjSiYX8mH98Tc7ulwqj1MpHjO92gHGf7dfDWBQAETADIRXviBYZUxWvh8bmHdfrD9xO6r+IyW0HvpPGVUPe787/75BbnoO4+flJf+bhPa46d0mP9Dm1xDiUUTqMZP/dquq2XkuQ16Mpdb7XE7AKedsCM30r9Om9dAJCBz1c2AQBkXLuk9VED5rBby8pKUrrjWWaTZplNMVtB+w/s0fTzF8b/ACguKeidND4o7R4a0TW2yWvVfcHhSvjLh5qaGtXMrpHT4VRXV5fhdY55fdrqGpZc4S3alxRbZTMVqd5qCf5vCVsWdqwGW05jBfNURBt/mU0JjL/s4K0LAAiYAJCrATP6iW6a4zAXlxZri3Mo6nL3oF2u44dUNvOcmPdTZDLLUlwqz8hQQe4kc1mFiswW+YPTgOwePhPESoqKJmw9nD6/fnjKntBx0biwUatWrdLSpUtGL+vs7NQvfvGsOvd0Jha0go8zvmUyEabiUlmnnZ3W8/W6HKNjX8OO6xJrVrfzzuGRtF63AAACJgBMdshsNlpwzOvTQbdntAUpWcvKSmIGTCkwFjNewJSk4rLygg2YkmSddrZGTn4sKVDoZ/+IW/OLrRP2+AfdHv3wlN2wRXrVqlXq6g60TtbU1GjFiuVqbGyMDJ2Njfrxjx/Siy+26vF/fjyr61s8Y07a92HUejnLbEr59ZDodo7TRZhwCQAETADIaa9HC5hSoHBKqifUobFqsbrJDnz4vmYt/CuZrLG7wVoyMN1EXn8IVk4fDZhSYAzjuuJpE/LYO4dG9Nhph2HwufvudVq+YnlS97dqVYsaGxu18Scbo3abTTsc2k9Js+vSv49xLslyqB9fqCjK6xUAkAEU+QGA7GiNfcKbfjfZeBIp9mMt8EI/47t7vu4KtOaWFGX343Gra1g/PGU3DJc333xT0uEypKFhnn7+z/+ku+9ep4aGhrjXn33+Ai38m+tGf2afv0DFZdHHoXoc/Ro+3pvWc3efPpHS8ZxumE/n9QoASBwtmACQHR2KMR/mzqEROX3+lCeVX2kri9tNduDD9+MW+zFbrCoymeX3eQtyJxWZLTKXVYzOy3jY49Xu4REtKsle4Hms3xEovhPFvASCoSRVVk2T1WrVwMBpecZVwF2+YrmWr1guh8Op7u4uPf7PT4S1av7ljbfp3E8uigyTnwv86nrz37XnD7+V4+TxiMd19R5Qkdmi4rNmJ/3cjbrH2kxFWQ2YTp8/3hc6/aLADwBkDC2YAJA97bEWptOKmciYteH+ExruPxH3vmK1WBWC8eMKX3IMZi3o3Ns3EDNcStLGn2zU0aNHo39wm0yqPa9Os2bP1vQZM3Re/TzNnnuOysoj92NFhU2NjY0R99dw+adj7veGyz+t69Y/ooV/c53h8sEP942G8mS4+yMDa7a7xyZQ3KeVtyoAIGACQD74XcwT3xSqeI610hZ//ORAAt1kC30c5vhuslucg7L7fBntJnvQ7dGdJ/oT+lLB4XDovg33R10++5xzVFISGFs7MDCgHdu365133tHc2nM199xzDYOmw3EmDJ51znkJr/fCz12nv/5v9xiGUceBtw2rwcYMmJPQPTaB6UkYfwkABEwAyAutMQPmcHoBc3EC3Tgdh7vjXqe4wMdhmopLZRoXskNjMTPhBYdLd544bViUqeKsmYa36erq0rO/eDbi8mnTp6ssGPZ6P/pISy+/XF/+4hf15S9+UZ9bvlxutydm0Azs7+RarGvOX6AVBiHT7/XI1Xsg4fvxjQxFmZ4ky+MvacEEAAImAEwR/Yoxtsvp86fVipnI2DX3oF2OwwdjXsdaWl7wO2p8K+bzdmfa9xlotTytF+zGXW4X/s11um79I2q4/ErD5b/4xbPq6gr/guCsGWfW85GNGzUwMDD6/9733tOv//VfJUllZeWaW3uuZs89RxZr+l1QzzrnPF123c0Rl5vLKxO+D6PWy0uKrSmPQ04oXAbHOsfQHnydAgAImACQF56OdwKcjmVlJXGvk0grZsF3k60Ob0ncP+LWiRjTwMRyzOvTY/0O3XnitA66PYZh7ZrvPaiFnwuMb7zsupuidlt9/PHweS193jPFmHp7I6u5jg2ckmSrqNB59fMyso0aLv90WIurqbhUJTNrE779SN+RiMtyoHrs73iLAgACJgDkk9aYJ8DDcVtYYlpcWhy3BSheC6YkWUoKfD7MimoVmcOLJr01nFwRpndH3PrhKbvWHDsVtZDPwr+5Ttd878GwQFlcVq6lN64xvH7nnk61vdI2+r/LdaY1dMVf/3XE9ZcsXRo3dFpTLOr00Tu7w6rKls6pj9hm0fhGhgyLAmW7emy8gkqieywAEDABIM/0KF432SyPxfS5h+OGzEJvwZQiu8n+YdAlm8kc8zbHvD5tcQ5pzbFTurdvIGqLWcVZM/XX/+2e0VbL8c4657yoFVsff/wJORyBLrunT50avfybf/u3unPdOtWee65qzz1XGx99VFcsWRJx+31794Y/Vu15KW2fXb99NiyQJzNNidH0JPVWi2aZs3caksDrqiP4+gQAEDABIK/E7Ca7dXA4rTtPpJqs6/ihmMsLfaoSybib7BGDbrIH3R5tcQ7pzhOntebYKT014DQs4BNy7icX6ZrvPaia8xfEfPyFn7vOsKusw+FQ64svSpKGh4fD5ry8c906bdu5U9t27tSXvvzlrG2bPX/8bUTrZTKMpifJdvfYBF5XP+WtCQAImACQjzbHWvjuiDtmQImn3mpJoJts7HGYtGAGWjDHV5P99rGT2jQwqBccLt3bN6Abj57UnSdO66kBp+H4yvEuu+4mXf1f70w4wEfrKvvii62jrZj9/acmdLuMuAa1r/2PZ76MOGu2LBXVCd/e7/UYT09Skr35L495fYlMCdPKWxMAEDABIB/1xzuZTWCsWEzxiv24B+0a7j8R8zr5MF3J8PFejZz8OGv3XzxjTtj/dp9Pv3O69IJ9UO+OuBMeL1tcVq6//m/3aMFVn0vq8c865zzD24xtxbSfPi2fL/UvJKJNjRLNrt8+q5Hg2M8is0VltRckdXujcDnLbFK91ZK1/bjF6UokXPbz1gQABEwAyFdxusmmN+9iQtVkj8Qbh1mS0xvQ1XtArt4DGvxwn3zDg1l5jJKZtQkXrokVLlf8t3vidomNZuHfXGfY4hlqxfT5fHI67GkEzLMTvu7RD/ap6803Rv9PprDP6JcCxz6KuCzr3WPjf2HzNG9JAEDABIB81qoYLSbHvL60WjETKZiSz91kfSNDGj5+ZloOi9eTlfUtMltUft6ClG8fCpfRph1J9D6MCv6MbcU82deX8P2NryKbjD1/+O3o3+ayiqSmJQntN6PqsYl8IZJOuIzT0twvuscCAAETAKaAzTFPjNMu9lMWc/lw/wn53NEfI5enKhnfzbLIbFbVrLkqilPlNRXWaWcnVSE1k+EyZMFVnzPsyhpqxfS43WFTlsSyb+++sP9tCXaR7Xrz3/XxB2dum2zXWKP9Jk1E99ihtF6HAAACJgDki5hVK98dcSdSmCSqhLrJxpiuJKdbMIddhutbNXNuVh6v/LwFKqu9wLA7qHXa2RFTmkjSX954W0bCZUi8VsxTY1ox9773nv72G9/QV66/XuvWro3ZaplIF9kR12BY66V12tlJFfYZvZ++IxGXZbN77Lsj7kSKL1E9FgCyyMImAIAJ0yOpXVJztCtsHRzWJcWpVde0mYq0uLQ46lyMkjR4/JCqzrso6vLiMptGXM6c23BG3SwlqcRWqYoZs+Xoy3zhn5KZtSqZWRs2h6O5rEKSZH9/V9h1F1z1OZ37yUUZffyGyz+tPX8Inx5ECrRi3nTzTXINDsrlGlRZWbn+6ze+od6Pzox1HBgY0P//X/4l5cfe9/ofRx831W7D0brHZjNgJtALoFXMfQkAWUULJgBMrJitJ1tdw2lNWRKvFTNWC6YkmSzWvNug5dPOUmllddbu31JRPfpTZLZo+HivfCNDY0K58ZjJTIjWitn2Slsg6J4e0I7t28PCpST9nz/+0fD+ZidQeMhx8kRY62UqhX0k4+I+NlNRyl+gxJPgOGZaLwGAgAkAU0qr4rSgvGBPvULq4tLimMV+fO7hmNOV5Ot8mFUz507Iunsc/RoaV433sutuTniey2Q1XP5pw7GYv/jFs4GAOXBaNbNrIrdHVdXo3/v27k3qMXf99hejf6dS2CfEeO7L7LVeJvC66VGgBwEAgIAJAFPKfbEWpt2KWR47aA2eOBR1mbWkNG83aomtMqv37/d65Ox+J+yyirNmquHyT2f1cY1aMY8eParOzk5Jkq2sXF/68pfDlq+///7Rv8eOx5weZ4zo0Q/26aN3do/+n0phn1C4HNvKOxows9Q9NsHWy/t46wEAAiYATEWtijPJezqtmPG6ybqOxwiYpeV5sQFLpp094Y85+OE++b3hBWQyPe7SSLRWzBd/2yop0Ir5ox//WH9sa9P6++7TH9vaIgJnSHF57P37/zz35JnrnjU7pcI+kuTuPx5xWWiMcDYk8HrpF9VjAYCACQBTVL+yOBZzltkU80R+8PjhmLc358E4TLO1eEIfz+PoN+zy2bD40xPy+EatmNu2bdPRo0clBebFvPgTn9A3//ZvdfEnPhF2vUO9Z+YPrYgxRcmeP/42rLBPqq2Xfq9HIycjiy5lq3ssYy8BgIAJAJAeVRZbMWMFzLjjMHOwm6xpkseGGhWskSTnyRMT8vgNl3/acJzn2FZMj9t4ipvesIBp3PLrOHlC+9rPFAaKNkVLIoyCuCQtKy/JyrZJsPXyUd5yAICACQBTWb+y2Iq5rKxENlNR1OWxxmHmYqEfU0lZ+Draqib08cdOVTLWa//rEb3yPx/U0Q/2ZX0dFjR/LuKytrY2ORyBaWX6+0/FvY9oYzC3PfeERlyBoGapqFbxWbMzGsZnmU1ZqR6bROtlP285AEDABICp7tF4J75PDaQ+J2WsLon5XknWWl45oY83fuzlWB9/sE//538+qP/nuSflyGKL5oKrIgOmw+HQ9m3bJEn206fl84V/IbFzx46w/41aQT96Z7c+HhOQU+0aKwXmK53IuS8TeH30i9ZLACBgAkCB6FecVsydQyN6d8SdWsCMcVIfq9CP2Zp7YzDNZRU5//hdb76h3963NmtBs7isXA2XXxlxeWjKEp/Pp9OnordiGs2BOeIa1K7fPjv6f8nM2rS2dbSuxPEKT6Xi3RG3dg6NxLsarZcAQMAEgILyqOK2YqY2FjNWl0T3oF3uQbvhslxswRw7HnCiWy8lqXjGnISv2/XmG3rpof+f9vzxt6PdTjNlQfNfR1x29OhRbdu2PfCNxamTYa2YO3fsHP3bZlDgZ88fzhT2MRWXqnROfcrr5vd6DMdfzjKbVG+1ZHyfJPC66BetlwBAwASAAtOvOK2YB92eRMaZRbCZimKGzHzqJhsWMCd4/KUUaNlLJnyNuAa15w+/1W/vW5vRoHnWOecZtkS++OKLkiJbMcMqyM4IL/Bz9IN92vd6Zgr7SIHiPkZdibPRPXara1gH3Z54V7tPtF4CAAETAArQBkk9sa7w1IBTTp8/6TuOdXI/fDp6wMy1brKT3UVWkkpn16nigkuTqmibjaDZsDiym2znnk51dXUHvrEY04o5toLs+GA6ds5LS0W1rGnOLTp05KDh5SttZRndD06fP5Gxlz2i9RIACJgAUMDujHdS/YIj+XBySXH0FqlY4zDzodDPZLBUVKvyostUOqc+qda+UNB84b+vSXuMZsPlnzacz9KoFXNskZ+xXWTHz3lZft6CtLaL1+WQb2Qo4vJ6q0WzzKmfaoRa719wuPTDU3bd2zegO0/0J/Jly50crQAwSZ+VbAIAyAmtktolNUe7whbnkBaXFic13UOssW9DeV5JdrIUmS0qnV2nkpm1Gj7eq+FjH8WsMjte15tvqOvNN9Rw+ZVa0PzXOivK1CExQ+biT2vPH34bdlnbK226+eabVFNTo/5TJ2V3nmnlKy4rH50D8+gH+8JuWzLr3LTnGc1UcZ9jXt9oYat3R9wptdor0C22gyMVACYHLZgAkDvitrqkUvAnWiD1uYejFvrJxUqylorqnAyaVZ9YknSLZihovvTQPXrlfz6oj97ZndRtjaYskcIryr7yhz+MXl4T7B474hoM6xprKi5V6ey6tLZDtOI+UmLjL495fdriHNKdJ05rzbFTemrAqZ1DI6mGS0mqlnRQ0iO8pQAAARMAClmH4owbO+j26AWHK7mAWZJ8oR9aMFMLmmW1FyTdGvjxB/v02v96RL+9707te/2PCY3TjDZlSdsrbXI4Ai2Xf37/z6OXn1UbaCUdWzVWUtpdY6XYxX2idY91+vza6hoOC5UJFO1J1lpJbwcDJwCAgAkABSlu5csX7INJnYzHGocZs9CPxcreSDJolsysVdUnlqj8vAVJB03HyePa9dtnR8dpnjz0Yczrn7/404aXtwbHYnZ2do5eNvv8Bfrond1hVWOt087OSKtwtOI+Rq2Xx7w+Pdbv0Jrjp/RYvyMboXK8JkmvETIBgIAJAIWqX9Kt8a702GlnwndYb0mt0I/ZWszeSFHxWbNT7jornek+G6tVs+b8BYbjN3/xi2fV2dmprq6u0cumn3Oe/p/nnggLw2W1F6T9PN2nTxgW97GZirS45Mzx8+6IW/f2DWjNsVPa6hpOp/trqiFzE0clAEwMivwAQO5pVZyCPwfdHj014NQ3q2xx78xmKtIss0nHvL7IgOAciHo7a2m5RlxO9kYa0ikGJJ1p1dz122d17icX6S8aP6VzP7lIxWXlkqQFzZ8LC44hP/nxxtG/z/3kIrX/r0fCQmomCvtIMVovS4plMxVpq2tYW5xDGWuprK2t1WdXrFBVVZUO9fZq544dYVOxxNAS/GnlqAQAAiYAFKJbFWf8WDJVZeutFh3zjkQGzChFfiSpyGRmL2TA+KqzI31HDFv94vnond366J3dKi4r17mf/JT+onGRas5foOKy8ogWzqNHj575+4N9YcszUdhHkoaP98rrckRdvubYKcMvNVJRVVWl7669Q6u/8Y2IZTt37NBjj/40bEqWKB4hYALABHzu+f1+tgIAZMD5dfWZvsu1ilMJ02Yq0pMzp8tmKop5Ry84XHrBblw85twrW1Q285zI8Dk0qFOHe3Jm+9rf3yWvy6Hymeeo9sqWiOXOU8flPHU8L46VkZMfa/jYRzEDWqKMAmYsFRdcmvbYS4+jX44Db2d9O1VVVWn1N76h1d+4VVVVVTGvu/lf/kUP3P9/x7vLWyVtjrbwg56DvJEBQJpowQSA3PWopGsVo6us0+fXD0/Z9cCM2Cff9ZborZFDp08YBkzTBBT58Y0MafjYRwl12cxEGMsVxWfNVvFZs+V1OTR87CONnPw49bCaRLhMp7CPb2RIHke/3P3Ho05Lkim1tbVa/Y1bdd3118cNliGrv/ENVVVV6Xt3/32sq62PFTABAARMAJjq4naVfXfErRccLn21oizqnUSbLkKSfO4Rw8vNExUwj/dq5OTHKpl1btSum8mOXcwX5rIKlZ+3QGW1F4y2aqbSfTYRYwv7eF0O+UaGDEO73+OOuNzj6M/6tqiqqtJ111+vL17/RS24+OKU7uO666+XpFghs06BL2zaeWsBAAImABSinmDIfDHWlV6wD+qSYkvU8Zj11jiVZBdcFjVkej3urD9Jv9ejoSMH5e4/Ltu8T0a0Zo4NOF73cF7uSN/IkGF49LocowG6eMYceeynshLozGUVgW0cZd7KyVBVVaXlK1bosyuWa/mKFRm5z+uuv147d+zUv/3mN9GucgsBEwAImABQyFoV6Na3OtaVfnjKrkfOro7aWllvtRhW84xVSdZsLc5qwDSXVajIbBkNPF6XQ/b3d6l0Tr1KZtaeCZj2U6N/D/efmLQdERZ0xwTDyWr1S3Xdp1qoHO+eH/yPWAFztaQ7FWe+WQAAARMAprI7FZjPrynaFUbHY55VZVj0Z5bZpIMGWTFWJdlsj8MMddsc/HDf6GV+r0eu3gNy9x9X6Zx6WSqqI8b8DfefUEn12RkNXmNbGL2D9tHwmGtBMV8tvuIKffH6L452Y812iP3i9dfHC5mPslcAgIAJAIWqX4Gusq8pxnjMg26PHjvt0D9Mr4xYVm+1aOeQ8XjLaIFtIsZhFp81Wx77qYhCN6FKpeayioiupYMnDiUUMEPhMPQ7FByjdVdF5n3x+uv13bV36Jza2gl93NXfuDVeN1kCJgAQMAGgoHUo0JK5KdaVdg6N6LF+h75bXRF2eexCP8bjGiciYEpS+XkL5HH0Rx2jGJG2D+zRtPMuGu0uO3jisEYcp+U6eVR+r2dKVZzNV8tXrNC9P/gfGQmWAwMD2rd37+j/Cy6+OG512QUXX6za2lr19vYaLW5SoOBPD3sKAAiYAFDINku6SnHGY251DeuSEquWlZUkFDAHTxw2nKrEbC2esCdmKi5NuFXRPWjXB//7f3E05KCKigqtu3udWq5bpcqqaUnfft/evdq5Y4d27tip3t7e0WAZ6mL72RUrEp665Lrrr9djjz4abfEdCnxhAwAgYAJAQbtVccZjStJj/YFWvFDInGWOPhemb8S4BbPIZJqQJ+Rx9DPWcYqEy4d+/JAaGubJ4068Uu2+vXu1+V82qe2VVzQwEF50Kp0utstXLI8VMFsImABAwAQABFwt6aBijMcMhcx6i1n1VkvMFszh08aVWS3jpgvJlFA3Vo+jX+7+43nRpXXxFVcY/h34f7HhbWpra6MGo0O9vYbdN/ft3auBAfuYvwciuohOlOde+KWqqqoi5qVse+UVfWvNbYa3aWiYJ0lyuQY1XTNi3v/OHTv02KM/1c4dOwy393fX3hGxrZMRp5tsnQJf0nTwdgIABEwAyDkf9BycyIfrP7+u/mrFKfojSfeeHNADZ1WNhsxjXl/EdSZqbslQhdjxBX0mUygEhn5XVVWOBqpExvql6pwo4TNWoBoYGNCrr/wfHf34qLq6utXV3aXurm45HMYBvXzmOSqbeY6s5ZWylkcWfjr94fsa+PD9hEL1WMtXrNDiK66ICIYOh0NdXd1qaJgnt9sd83l8/+6/V9srr0Qsq6qq0nfX3qHV3/hGxr4Y6I1d7IeACQAETABA8MT4VkkvxrqS0+cfDZmzzGbDgBlrbklLcak8Gaq4OnTk4KSEy8VXXDHaEldbe05YoMwnVVVVamxslBql5WMu/+sVnwu7Xkn12TrvM1+Je3/uQXvMgHmotzfqNvru2jt041cjWx63b9sW7CJrHDD37d2rb625zbBV8YvXX697fvA/MhrqP7tieaxqss28jQAAARMAcEZrMGRuSiRk2oqKol7H5x6WyVoScbkpxtjNZGUzXIYCZChEhrpH5luIjMXlGjS8vKGhQV1dXaP/mw32oxGjwk5j9cYImIuvuEILLr44outuV1d32PqWlZWHhcsbv/q1iHGWmegOG+vLhRiaRDVZACBgAgDCbFYClWWdPr+c8kddPtx/Im7gSEX5tLNUMWO2JKnIfjJsvKelvFJW25nWqvKz54bd1j1ol3vQruH+43IcDu+CvHzFCi24+GItvmJxVruy5gNbhS2l21nLK2WylkSdpuaQ8djFUV+8/ot64P7wgNnZ2Tn6t8ftlsrO3Nf4cLn4iiu0+hu3avmKFVn/4iHGGNYWMScmABAwAQBhbg3+Xp3pO7aWlmvE5Uz59oOnT2rENaiqWXM1c+FfJXXbsjF/u44f0kdvtI4JmMt13fXXs+clNcxrUOeezpRuW1p9tgaPHzJc1tt7KOZtr7v+ej1w//8ddpnD4dDRo0dVU1MTVkn2337zb2EtzMtXrJiw1uVLL22KFTCvJWACAAETAJDhkBltLsxM8IwM6WRvtypmzFb5tLNSuo+S6rOTCj+FpCLFFkwp0E02WsCMV7m2qqrKsNhPKGCOrST73bV3KDD15MRrbGzU8889H21xswKFsvo5kgCAgAkAiAyZTYozR+ZkcfR9rJFBuypnzpXZYk3qtuPHh44fx1fIbBUVKd/WqLpsMtt4+YrlEQGzc0+nGhsbY1aSDWl75RX96ZU27d27N2qgDY2lXXDxxbr44gWjLaEJB8yFjfGu0qzAeGYAAAETADBOaPqSpEKm22kcJjI9F+aIy6mTvd0qq5ymIpNZxWU2mSzWpAPnZMwLmatCc09mOmAazU85nlERnY+PHpWkqJVkQ/vve3f/fUL7sTc4Z+jY9amqqtLyFSsSqjpbXlYWUQhpnKsImABAwAQAGOtPJWR6Bu2Gl2eyimyI3+fV4OmTkiTnqeNhYdZstcpSXCpLcalMZrOspWeqkJaP6c5JC2b63EODGvZ4Yl5nYGAgZoAzakk8GgyYUmQlWcm44M9YocI840NsaIqZ8cvjGR4e1ryGebECZjNHAwAQMAEAGQ6Zk80zMiTPyJCGneFh12yxymwtlnv4zHyctGCeUVNTk9T1h512uQZOjhZvKjJb5PcaB819e/fGnT5k/DjM7jFTlfgM5l09p7ZW/2/nnok5poKtqAsbG9X2Slu0qzWJcZgAkBEmNgEATPmQ2ZrIlaMVeskFXo9bIy6nipLsRluoAXOo/0TY/36fV8NOuwaOH9bxnj/r9NGPwioDm8uij+FMJMiPD6AOh2P075Hh4UndNsPBx5/X0BDvqk0cSQBAwAQAxA+ZqxSYKzO1D4ocCnWmkrKw/xMZI1iIfO5hHeveO/oTCpVD9n75fd6k7mtgwB73OgsuXhBxWWg+zOExrc6TIRRwGxrmqSKNYkgAAAImAOCMW1MNmWZaDac8S+X0qMsSCfG1Meaz9CRQSTabXK7B0b/nxS6G1MyRAAAETABAciHzzpgn48dze25JS0X1uPCzk70alOw4zEQd6u2Nex2jgjude0ItmJPbRdY1eCZgLmxs5EABgGx/VrMJAKCgPKrAlAwtbIopFjBn14RVb01GrDGYvQkETCnQihntuh63WxarcUv4wMCA9gXnwDTqjrvg4gWjVWPjTUcSES7HtF5KCY3DBAAQMAEASdqTrwFzfBAKdN+8gz2apiJz7NOBnTt2xK0ke864gNk1ppKs2xMZMHfu2KHHHv1pUuNoQ0Fz8RVXaPEVi+Ouk3NMsSFJqqiwxbp6P0cCABAwAQAZNHT6hMpmnpO3QQjZkcico+NbFx3OMZVkh4bD5sLct3dv0uEytB47d+wYvV1VVZWWr1ihz65YruUrVsQNmPPmxWzB7GBPAwABEwCQQT73SM6vo6m4VL6RQGVSqshmRqwusoFAuM8wwI214OKL1fbKK2PC3ZlpUHw+X8R1n3vhlxH3cai3N+EuuUbhc2zIHR4ejigwFKcFEwBAwAQApKA/n1d+bMA0ChYI8LoccYNjSLyW4UTmwhyvq6tr9G+Xa1DTNSPubc6prdU5MSrSJuP0qVMRl8UZo9rBUQMAGficZhMAQMHJ6xNpU3Fp2uFnKhpfRdbv9WTsvhPrIluZM9vC5/PJ6bAnGzD7OYoAIH20YAIARrmOH5IWXJbbAbOkLOz/Qyl2qZxqZqc5Tcn4luGxEumKbDRVSVdXtxoa5ml4aEiHez8KWzZ2TKYkmUwmFZeWhF1mtVijVp+NxX76dES3XEk6+nHUgNnOEQQABEwAQAEa34LZ23uIjZKh7RotYEqxuyI7HQ7DLqnOYKEfn88XNh+lpIj/Ez5xsVplHRc6TSaTSkpKx6zracPbjq1sO04HRwAAEDABAKnpSebKXo87pwMmXWQnxr69e8OmBfG43ervPzXaWuh0OiZkPTxud0TxnlDIjaezszPaotfZwwBAwAQATEDA9OV4wExkfGAhitUaaSReoZ9QV2T7wGnZBwYSaoHs3NOpxsbGnNgeR48eDSs8NE47RwwAEDABAAVofMBkqpLMBExzeaXcp09EXf7n99/Xhwe7DVsP88GLv22NtqhDFPgBgMx9TrMJAAAhg8cjxzP6vN6cD5m0Ykq2ioqs3v9//ud/xgyXNlvk438cu2rrhHE4nGpra4u2+Gle+QBAwAQATBBPki1hkxEwGYcpNTTMy+r9x5niw/Dxj+ZIwHz88cfliD5Gs5VXOQBkDl1kAQB5xyhgji1AA8mf5NhZc1nsFlCnw5n0OjgdTsPCOl1d3aNFeRwOp7q6z4yN7O7qjhoGKyoqNK9hnmpqatTQ0KClS5dEzP85Xmdnp9peaYsVLns4WgCAgAkAmCDuocGcW6fxc2EODNjZUeN4XclVdY1X5CdGgRxJ0rZt2w1v8/d3fy9jz8nhcKhzTyCwtqlNj//z47r55pt00803RVnnbt234f5Yd/lTjhQAIGACACYyqLhHcm6dxre2BQr93DHl94XJZM6p9ens7NQrr7Rp+7btsbqgZkxDQ4PmNcxTQ0ODGhrmxaxQ29XVre/9/fdirVe7qB4LAARMAEB2DXz4vqrOu0iS5Pd5c24eTCmytS00hcZUV1JSEnXZvHkN6YXXcd2OjbS90iaH06mjHx/Vtm3bsjrGsnFhoxY2NmpeQ0OwS2ziY0xffLFVz/7i2Xih9z5e7QBAwAQAZNnHb72qvr1vasbFl6us5i9ych3Ht2D2FkjAjKWiwhb2f7LTlCQSMH/yk41ZfQ7LVyzX0qVLtXTpkpRuv23bdr344ouj3Whj2CxaLwGAgAkAyJh2Sc3RFroH7fr4rVdlKi5V6Zx6FZ81O6dW3mi84M4dOyj0k0bAnGyNCxu1dOnSmN1ex+rq6tbRo0fV3dWlrq5udXZ2JtpNt0fSnRwhAEDABABMQkgZ/HCfho4czLmgaamolsfRP/r/IVox1dDQELcYTyzmsoqkiwMF9UvqkPT6mL8V/N0/7rp1kg6Ov4POPZ1hLY8NDQ2yjWuVdTqcaT2/4LqsMlgnAAABEwCQhg7FaMGMFTTLai+QddrZk/4Exrdi9vYeKvidOj6QpbtN4+hRYJqPp8cEykRvd5+k9bGulGaQjBYur05yXQEASTKxCQCgIL2eyo18I0Nydr8jx4G3w1oPJ4O5vDLs/0Al2cJWYQsfm5rMPkqi5bI9GNTqFehqmkpg2zDBQa9d0qWESwDIPlowAaAwtSvQolOdyo09jn45DrwtS0W1ymoviCi6MxHGt7bt27u3IHacyWSSz+czXNbQME/btm1LaP/5RobkHbTL63Ik+2XBfcpMgZyrJb0mqSlLm6pHqbWwAgAImACAJPUr0Pq0KZ078Tj6ZX9/l4rPmq3SOfUJVSLNlPGhdmBgQAMDA6qqqprSO66ktFSuwcGErut1OeR1OeQbdgV+jwxlovhPfwaPwUsV+JKjSYEu29OCf1cnGTx7gj8dkvYEA3APL3MAIGACACbO5uBJ/ial2JIZMnLyY42c/HhCg6bRY+zbu7egK8nOawifC9PVeyAbX0x0ZOE+2xW9VTRa2MzGugAACJgAgDS0Bk/s10q6I5+CptF979yxs6ADZkWaRX4ScN8kPK1+MWclAOQNivwAAPoVKLqSTtGWiKA58N52DX64L9VpLxIyvpssU5VkPVw+ymYAABAwAQCJBs1HFRgXd2nw7/50g6b9/V1yHHhb7tMnMr7C4wv97C2QQj/RzJvXkOm77AkGy3oFvoQAAICACQBIWocCrZnTJd2qNFs1PY5+Obvf0cB72zX0cU8mCs1IkiyV08P+L4RKsmVl5VGXZbiL7KNjgmUPLwkAAAETAJAJmxVo0bxaaY6F840MaejIQQ28t13O7nc0cvJj+b2elO9vfAumxHyY0dTU1Gj5iuW6++51euYXT+v/vPJHrVq1KtZN9rDVAADJosgPACBR7cGfZknrg79T5j59YrTbrHXa2bJWz5SlojqpwkBG828WeiXZ8X78k4c0b16DYetmnBbPHrYeACBZtGACAFIJmlcrAy2aY8Pm4If7NPDedtnf3yVX7wG5T5+I25XWeKqSfQW9cxrGTVXS2NgYNUg2LmzkaAYAZBQtmACAdIJmuzLUohnidTnkdTk0fDxQEbbIbJG5rELmsgoVWayyVFSPhkujgDnVC/2UlpdJfdGX25IYh1lTU8NRDAAgYAIApn7QDPF7PfI4+uVx9Cd0/X1792pgYEBVVVXsmQQCZkVFhRwOBxsDAJARdJEFAGQyaIa6zrZO5orsK/DpSpIxr2FetEV1bB0AAAETAJALQXOVAlNcbFaac2mmYueOnVN241ot1oze38LGRgImAICACQDIeT0KzKFZr8Ccmj0T9cBTuQXTYs1swJw3rijQ2OzJIQwAIGACAHJNv6RHg0Hzak1Aq2Yhz4WZbOGeBrrIAgAImACAPNWuQKvmdAW60W5WFlo2BwYGdKi3d8puxFitmLOTDJg1NTXRQmkThysAgIAJAMgXrTrThbY++PdmZWhuzancimnNcDfZhujdZJs5TAEAyWCaEgBALugJhsvNYy6r05lumk2Sqscs65fUIekOSS3GAXOnrrv++oLfsF1d3bG6wUqSGhc2atu2bdECZjuHJwCAgAkAmAqhsyf4d7SQUxctYO6dwoV+iktK5BocTOi6Tmf8OS5jBNCrOAwBAMmgiywAIJ+1Rluwb+9eDQwMTMknbTaZM3p/jdGnKmniEAMAEDABAIWiX4Gusoam6jhMkynzH99RxmFWEzIBAARMAEAheTp6wNw5JZ9wcWlJxu8zxvQmzRxiAAACJgCgULRHD5iFNx/m+KDYuaczodsxDhMAQMAEACDQRbbHaMFUHYdZUlIaPWDOrknpPudFn6qkiUMMAEDABAAUkvZoC6ZiK2Y2xmBWVNiiLapT+BQxAAAQMAEAU9rvogfMqTkOs6Qks+MwY4zBlGjFBAAQMAEABaQ9esCcopVkzYlNVbKnM7ExmARMAAABEwCAgP5oIXPf3r061Ns75Z5wcUnJRD5cNYcYAICACQAoJDG6yU69VkyzybgF02ar4EgAABAwAQBIU2v0gDn1xmFGa8GMMd0IAAAETAAAEtSjKNOVtL3yytT7ADcn9hHe3dWd0PUcDidHEAAgbRY2AQBgCmmVtHb8hQMDA9q3d68WXHzxlHmiZWXlCQZHR8xQuX3bNm3btl3btm3j6AEAEDABABjjdaOAKQXGYU6lgClJFqtVHrc74et3BivKdu7p1J7OTnXu6Uz0pj0cWgAAAiYAoNC0KlBRtnr8grZX2rT6G9+YUk/WGiVgNi5sDAuPf73ic5nYrgAAxMUYTADAVNNudOHOHTs0MDAwpZ7oBE1V8mgwtAMAQMAEABScqNOV/GmKFfuxWqzZfogOSfdxSAEACJgAgELVGm3BVJuupLjUuAVzYWNjJu5+s6SrReslAICACQAoYP0KtLxFmGrTlSRaSTZJ7cFgeSvhEgBAwAQAQHra6MKBgQHt3LFjSj1RizWym2xNTU2ygbxV0p2S6oPhsp1DCABAwAQAIKA12oK2V9qm1BMtMSj0UzM7ZsDsUaBwz62SLpU0XdKq4GU9HDoAAAImAACRIarDaMFUKvTj8/kML4/Tgvm0Aq2Vm6NtIwAACJgAAEQGqQi9vb3at3dv3j85+8BpfdjdJafDkWzABACAgAkAQJJaoy3I53GY9oHT+vBgt459/HHUFkxJamho4AgAABAwAQDIkB5F6QL6b7/5t7wOlh63O+71Y7RiTuPQAAAQMAEASJ5hN9l9e/fmRSumx+3Wqb4+HfzgQMLBMqShYV60RU0cFgCAbLGwCQAAU1irpEeMFtz41a+pqqpKy1es0OIrFmvxFVfonNranFhpp8Mh+8Bpw/GViWIcJgBgMhT5/X62AgDkofPr6tkIiXlbCbba1dbWavEVV2jxFYu14OKLteDiiydsJYeHh0dDZTItlSEOh1OdnZ3atm2bOvd06ujRozE//zksIn3Qc5CNAAAETAAgYCKmtYrSipmIxVdcoQUXX6za2nNGQ2dVVdWkhkqHw6nu7i51dXWrq6srkUBJwCRgAgABEwBAwMyAakmnMn2ni6+4QlVVVaOtnIuvWCxJYZeN5/P55BoclNPhkMs1GDVUhgKkJB39+KiOHj2qj48Gfnd3dcuRRtdZSf2SpnNYEDABgIAJACBgpuZFSS2T9eCLr7hCPp9Xw8PDhsudDqe6uromanXuk7SBQ4KACQAETAAAATM1LcGQWeg6JF3KZiBgAkC2ME0JAKAQtCowL2ahh8urORQAAARMAADSd2cwZBWiRxVoueznMAAAEDABAEhfazBkTZd0a/D/qR64NkuqD4ZrAACyjjGYAJCnGIOZMU3Bn4XB3815/Fx6FGil/V2BBOiMYgwmAKTPwiYAABS4DkV2na0L/oTC5lXB35MZPvvHrGePpA+Df7eP+w0AAAETAIAc0hP8iRbaqhVo7RwfSNPVHmU9AADIC3SRBQAAAABkBEV+AAAAAAAETAAAAAAAARMAAAAAQMAEAAAAAICACQAAAAAgYAIAAAAACJgAAAAAAAImAAAAAAAETAAAAAAAARMAAAAAQMAEAAAAABAwAQAAAAAgYAIAAAAACJgAAAAAAAImAAAAAAAETAAAAAAAARMAAAAAQMAEAAAAABAwAQAAAAAgYAIAAAAACJgAAAAAAAImAAAAAICACQAAAAAAARMAAAAAQMAEAAAAABAwAQAAAAAETAAAAAAACJgAAAAAAAImAAAAAICACQAAAAAAARMAAAAAQMAEAAAAABAwAQAAAAAETAAAAAAACJgAAAAAAAImAAAAAICACQAAAAAgYAIAAAAAQMAEAAAAABAwAQAAAAAETAAAAAAAARMAAAAAAAImAAAAAICACQAAAAAgYAIAAAAAQMAEAAAAABAwAQAAAAAETAAAAAAAARMAAAAAAAImAAAAAICACQAAAAAgYAIAAAAACJgAAAAAABAwAQAAAAAETAAAAAAAARMAAAAAQMAEAAAAAICACQAAAAAgYAIAAAAACJgAAAAAABAwAQAAAAAETAAAAABAbrKwCQAgPxWXlrIRJkeTpOpxlzWP+39a8Hrjb9cj6VI2YU5qDv5cZbCfOyT1B/ffHkmtwb+BlIwMDbERMGUV+f1+tgIAEDCnurrgT7Kh0Oh26XpU0p3skpz5suAOSS0GXxrE0yHpaUmbg+ETIGACBEwAIGDmoQ3j/r9q3P/VBkExl7RLupojeFLVSdqkyC8ZUtEv6b7gFwcAARMETAImABAw80y+f3ARMCfXBknrs3C/HZJuDf4GCJgoWBT5AQAAhaBa0otZCpdSoNX8NQW62wIAARMAAGAKh8uJCH+hELuaTQ6AgAkAADB1w2XTBD7mJkImAAImAADA1LNJk1P06RHldrEpACBgAgAAJGGtJm9MZLUC3WWr2Q0ACJgAAAD5rVrZK+iTqLpgyAWAgmFhEwAA8kx98MS9WoEuiOcFfzexaTDGeuVG6+EdCsyR2c8uAVAImAcTAPJUAc+DGUuzpGsV6BZZl6Pr2C7mwcy2akkHlTvdU+8MhkxAEvNggoDJiVtuaFKgYACi44QNwPiwuT74m4BZWFYrUNwnV3RIupTdAgImCgFdZPNHdQ6eJAFALmsP/mzQ5I/Fw8S6KsfWp0mBFvUedg2AqY4iPwCAqW6DpFvZDAWlOQfXqYndAoCACQDA1LBZUiuboWDUETABgIAJAEA23SoqeRaCajYBABAwAQDItn5JP2UzTHlNbAIAIGACADARNrMJprx+NgEAEDABAJgIPQpMGYGpi/0LAJOIaUryR7sC86bVBX+uUqAbUHWBniD2SHpdgW+qO0TpdwCJ+53oRomJ188mAEDARC6GzPHqgidKVylQln2qnTT1BJ/3nmCQbOcwAJCB91LmxZz6+7g5x9apg90CgICJfAlgPTpTfr9aUouka4O/81GrAi0M7aJlEgAn+kje6zkWMPvFF6QACgRjMKeefgWKWKySNF3SfcqfbjmtkuqD676ZcAkgi++TmNpaWR8AIGAiOydRG4Kh7b4cX9dQKCZUAgDS1aHcaql+ml0CgICJqRg0L1VufnPfocAE6AAAZEqufLHaLrrHAiBgYorqUKASba5h4nMAQKa15kiwu5NdAYCAiakeMh/NwZMAAAAy7VZNbs+d+0RRKQAETBSAXBoL0iEKbgAAsqNHgfH9k6FVgeEpAEDAxJSXS6Gug90BAMiidk38OP8OUVsAAAETBRgyc8GH7AoAQJZt1sR1l21VoN5BP5sdAAEThaSHTQAAKLCQeXWWP//uU6BLLuESAAETBYeWQwBAoelQYMquRzN8vz3B8LqBTQyAgAkAAFA4+hWYOqRegVbNdIPlrcH7amfTAgABEwAAFKZQOJwe/N2qxLq2dijQAnpphkIqAEwpFjYBAAAoYP3BkBgKinXBHyPtbC4AIGACAAAkqkcUwgOAlNFFFgAAAABAwAQAAAAAEDABAAAAAARMAAAAAAAImAAAAAAAAiYAAAAAgIAJAAAAACBgAgAAAABAwAQAAAAAEDABAAAAAARMAAAAAAABEwAAAAAAAiYAAAAAYBJZ2ARAzquW1BT8u3nM5dPGXD5Wh6TT4y5rD/7uCf5gamsKHjdjj5eFwcs05lj4cNwx0h88fgBgqqkL/jSNeS80+hx9fdznaf+Yz9CMKS4tLdTtX22wza9K4Fxm7PlLpvdHi6Q7Yiy/M9Zn48jQEK8uAiaQ88GgKRgGmsYFhEQZ3Wb9uP9Db9SvB3+3EzyzojkbJyYGH9rNwQ/opihfOiRi/bgP9vbg8REKngCSVx18jXawKcLes5Tlz5zqce+LyXyWRrtuT3A//o7PzIS2YbOk89L4XIq3z/qD+6ND0p4xf6f6+dcU53gCARPIq5OPFknXBt9MJ+pNrG5MMBn7Zt0aDBWtBRwqqg0+aJoM9s1VUbbpeJsl3ZqFLyJuCR47dVnYBqETgrXB/1slPR38DRTie4DR63uhwftCtJPiW4PvBfls/Pug0XZamMB1Qp83V2c4eFdLWh18b27J4udm6L47gu+Lm8WXcKEQf61S+2I8nS8Rxp/HtOvMl6MdCe7XJiGjivx+P1vBQAF0XdigyFatyXBfcF0KNVS25PB6tirwTW2+nBQZnQCOPyGalmB4zLQ7JT2aoZOnO7IUKhPRE3zNbp4Cr8PJ/PBrD55cT6XnlAufB80JBMXzEnifyNo51yRt1+YE3isT/cIsF18HLTrzhdtk6A9+Xt6nwmrVDIXtyfxMSnTfhFqdjb4IWCvpkTj3c7Vi9Eaii2wkWjCBiX0zXh98Q67Og/VtCf48EgwUP53kD89Hxp0sNufZlwrp3HZt8EO8OgeO4U3B4/hWZb/7LxDt9d8kuq1JgS+dbinQ7bI6+F402eGmOrguLcHPyUc1tVs0m4OfRy15sK6hfbM6+H8obLaO2Ud38DZCwATy9c14fZ4FIqOAszYYNCfrW9qmPN6GqdqQI8HSKGi+FvyQvlV0DwOv/8l8LRbadmk2+MIhVz4r1wcD/ypNvXG3+X4uI4V/cd6qQFfaugTff9p5u0kc05QA2X0zfi34M1VOAFZLOhh8c65mF2f1ZPrt4Id5Lm/nluDx3cQuAzABAe6RPHjPqQu+f6+eItu9bgqey1QH98+mJK4PAiYw6W/Gm6bYm/F4a4NBs4XdnZUQn0+hrYmQCWCC3mfW5tE6b1L+15jYEPysb+YQRDLoIgtk/s04210aexTo2nFaZ7psNCtQwKZ5Ak/0qyW9KLpJZnJ7PqL8/Na7Onjyl+mqkACwWvnba2Z98LP5zjxb77rg53vTJD1+j84MxWkSLYgETKBANSnwbWU234w3K1BAwOgEvn3cuoSKCU2EluBjTsUxJxMd0JqmwHO4VMwPh/ROKIGQR5RfrZZG1iowT+PmPFnfluD5TPUEve7bFRgL2RHnHKJOZ6bQulb0miFgAlPcWmV3rFyPkqvY2REMexP5IVGnwJiTqTDX20RrCgaz6inwXKoV+Nb7atGiPRku1Zm54dKZ4HyidCgwj2C7+HIKke8lmzR1hmFsSiBA5YLVSnxcYjraFSgY2J7EbXp0pgfXhuB5x2oFiirVZXl9p/GSJGACE/kBmO0ujR1pnKy3Bt+MJzK8hD6YshEyp2JgmcgvASYyMK9X/nUJmwo6xpy8jdWsM/Pu1uXAOj495v0pmZNLFMZ2qdbUHNf9ogJfAuXqZ9kmZX+IRo8yN8VVTzBoblD2p6xpEpJCkR8gvQ/AXA2XY+/j1inyIbVKgYnK64PbJdlvP3PN6uAJR/UUfH2sFUUhckl7MPDXB09wWychBI19/EdTCEa3jnn9rwreRwe7VpuD26Uo+L54p8Ln+Ms3TQr0hpmKJ/R1CnwpnYsmYvx/a/D1356l10F98LwABEwgbz8AD2b5A7Bfmetm2Bo8GZsKITN0stquwLeWV0uaHjz57MmjY2iDJqYb0mTaxFtFTuoIBrSJaGHeHDyhrE8xVEZ7/bcG1//SMa//Vnat2oPbeVVwu6xSfg1ZaFLgi9u6KbyPViv3vnxbreyPc20PHo/9WX6cDcH3hQ7eDgiYQL6Fy4nocprpN+L7NPHfaE/U+Jl+nfn2Mh+q2W5SoCvPVFen/C/RP5VlKvAZvR7vGxP8Oibo9b9KZ1ow+tm9ks5U+K5X7vf2WK2pMxY9nlx6/29S9r8M7A++PidKh870lAABEyBcBm3OwslAvwIVaCcjTDVN4OOFgmZHDh4/1Qp0iV2d5v30BI+P9jx4zdwhysvn+pcAmQ6W9cEvFiYj5PUEH7tetGiO3y5X5/AJ92plZix66H0x179gaFZutGKGPpOy7c5J2id3auKHCIGACST9RjxR365mawzBo5O03Sa6iE2/cm8+xmnB46clydt1BI+HUFfgsWNQr1b42KtHc/DEqlpTpwrkVNOU4fesyQyWRu8Bq0QLhtEJd66NUXtEybeg9SjwZeKtCrRUjX0fHPteeWnwOXfk4L5YnyPrUDcBr8XWSXyOm5WZ4UZNvH0QMIF8Dpeblb2xhJP1Rt80CR+m/cqtqTLWJvEB1R88MQ4VRNmg+N/KtwdPpKZr8r4tzuUTKUTKRPBvzbFgaRSoCJnhNih3WnebldzYv1ad6QodmhIrVnjsCO7/S5V7Xzo2T3JoSXbbp6o9B94b2jNwPlAtEDCBDJvIbp7Z/nb5d5MYsJonIWTmU/eYfp1pCbozjS8aQidUuXIyVSe+/c01dQp0X05VT/CEbZVyv7jWncrvatPZkA9j1ccHhFD14NY07uNS5VbRo1sm8bEn6ou/PTmyrTvE/MwETCCHbNDEdfFrn4CTtdZJ3JaT0ZLVmicnl60601qZiQ/AUADIlZB5i5ArqpXe9DiPKntTDWQzUOGMfuXHPLWh97GrM/jZeGsOhcyWSXrcJhXmNFIdvBcQMIFc0DzBoejpCTqx6JjE7bl6Eh73pzl8jPUHP/Cy0RLUr9z5xrZFyBWPKLUW5Q6dGdPWn2fPuUf5NV3HRNic4/txs7L3RUauTGtTp8np3XFHAR/3rYRMAiYwmao18fP4tU+xxzEyWa2YPTl4jHUEA2A2T3z7c+TDtE5Te267fJHq/LSPKvfGsCXrp+x+wxCXi25V9rvx5ko34ZYCecxcO+5TOfb5DCNgAhkJQhP5ZtIxgSFoMsdE1Glyuua059jx1TGBJ+ytOfL8m4V8C5c9weM0H1stjV5z/RwGYX6XY+vTr4kbJ9mv3OgmfNUkhMvqCXy8aTl67KcyRy8Bk4AJpH0ivHYKB6CeSd6+k9E958McDJcTebKbC603Vwn5FC5blX9jLRN57SE3t0e/Jr6VfLMm/0uH5in+Ptycw8d/vhW7ImACee6RSXjM16domDXSookv+Z0rJ8n9mpxxka2a/C8W6nhryYtw2a8z44I5+Zracmn/TtZ8lZtz4LlP5Htj0wQ/t6Ycfu/vEF3nCZjABFmtyRl031GA27kQT+Yms+hO6yQ//2beXnI+XHYo++OCgfEencRj7ukceP4TGcAm4304lz/vN4ieDQRMIMuqNTmtl/2a+Nal9kne1oXYXXKyvqEPeT1HXmPIzXC5WflfyAf5p12TOxayQ4XTTbZukp7feuV2D5Y7eRkSMIFsWjtJJ8CFeELXUmBho1WT3yrUngPboYm3mZwMl3eK8UiYeP0KdMXOhZBbCCYz5KUz9+5E7P9EjoFmXrIETCAVkzU3VM8kfbBPtkJ6s96TA+vQr9ycrgWZU51kuOxXoNXyUTYdJkFHjnwWTfb788IC2NdNkl7L4ZB5Hy9HAiaQDasn8Y1vMiqc5kLgoaroxCNgTu1w+VoS4bJDU69KLJBq0J3s124hCIXMphxct3beCwmYQDasL+APt8n8sMHEmuxxmM3sgqyGy0RfU60KtFz2sOkAuoZP8Of+2wrUu8i1YP00u4eACWT6pLeODzfCBlAA4XKzmIIEGKuHTTDh1ko6pUCX/rocWafNvC8SMIFMumWSH38y3tBy5QO1jsMPmLBweWvwBwABMxeslnRQgSJALTkSMqM5j91FwASSMdlvah0ETEyQdjbBlFGXZLhsF/NbAsjd87AXFWjVfESTN4TmTklFUX74co6ACST1plbNZpg0zWwCIGlNCoxjakrytdbCpgMKVn8erGO1At1n31agZXMywyYImEDKrmUTAMizcJlquf9cGu8EYGJ15Nn61o0Jm6Hxmi2iUYCACeSBFjbBpGJMAzAx4VI6M08mgMLUk6frXa3AeM1QN9q3JW0QvaAImECOnqxVT/I6tBf4PqjjMAQS0qzMTFTerECrAIDC0zGFzt/WB98T/cHguZZzitxhYROgwE/YJlt1BtYjlaBMyyGQP1Yrsy2P6xX4cquDTQsUlNc1NXtutQR/Hgm+rz2twHy/PexyAiYw0RbmwDo0KfANHABMRLiUznSVvZTNCxSU1mAIm8qagj+hsPnT4PPuZ/dPHLrIopA1sQkAFFi4HPv+t4FNDBSUHhVWz4Wm4HvoQVHkjIAJEDABFLhNyn5BnvW8DwIF5+kCfM7VCnxhd1CBXmPNHAYETIBwCaDQwuXqCXysajY5UDA2q7C7izYHQyZBk4AJZBwnVABy8X1pIsOldKYaI4DC0K/AuMRCFwqaL4quswRMIINvLACQS+HytQkOlyFreU8ECsqjouhNSIvOzKsJAiYAAFMqXDZN4jrQVRYoHP2S7mQzhL0Hrw8GzTo2BwETAIB81hQ8qWma5PWo09SfvgDAGZsVmA8Xke/HLWwKAiaQiqtyZD3aJRUV8M/VHIoo8JOZ15Q735iv5sQKKCirRFfZ8aoVGJe5gU2ROgubICsnDNXBE4bQSUO/zsw71M4mAoCC16Lc7Ja6Kfg5xUknMPX1B0Pma2yKCOslnSfpVjYFAXMy1AVPFK5V4kUSOoIf4E+rsCa8BQAEvoh8MUfXrToYMlexm4CC0B4MUZvYFBFWB38TMpNEF9n0TxAOKjBupTnJ265VoJ/3QU1O1UDkhjo2AVBwqnN8/VqCn1EACsNmQlTMkMn7IQFzQk4MHlHmBgHXKfCt0WRXEAQBEwBC1vP+BBAyISn5hiQCJpsg6XD5mrLzTUazJm8ONAAAxn/e0WUOKLyQebUYg23kRTGVEwEzC+qU/VLyoQ90Qmb2dbAJACCmZtE1DCg07ZIu5TzJ8BydqZwImBk/qF7UxHUXImRm3+kcWpc6dgdQ8Doktebgej0ihm8AhaYnGDIfZVOEWS26yhIwMxz4JvoDlg/1wkHABApbqwLd0m4Nntjl4mcggMJzZ/C9qYdNMWo9m4CAmQlrNTkTT1eLpvhs6mcTAMgBj+rMZOf9ys0iG01i0nGgULVLqpd0H+dOkgItmE1sBgJmuiFv/SQfxKvZDVnRkWNvVgAKz60KtBCMP5l7NAfXdT0nVUBB20DQHHUHhwMBMx1rNfkVo2iKz45cenOcxu4ACu7951IFKjYauVO5WWCDKooA712hoHmrCrcQUAuHAgEzVdXKjW8o6jS1vzXuKLDHNdLEyw0oKB0JvAflYlfZOvGlJ4BA0NyswBdl9Qr0uugpsIxAyCRgpqRFufNN7S1T/E1qsuTKmyEBE4BRCL0vB9drrejWDyD8XOrOYNC8tIDC5lXsegJmKq7NoXXhwzx7J3C5oFpUkgUQaYMCYzL/P/bu6LaNI40D+JfD4eC38CoIXUHoCkJXYLmCSBVErsB2BZYrEFOB6QpMVxCmgvA64L0ZefE97BKifbZEUrs736x+P4AQAjgSOZyZ/f67szvZXIelssC366qvw+Z6pJ915usWME9xNvJO/LOQF3+aqIDkLiLfAzWm4SnnwGFhc7eM9iJy7vV7qrmvWMAcg0ny33eqkoXTKtH3a6kF8C2b+P8nzWZwHu5Bghp8vuU1VC24ieaezecR8UP7cxH1L6WdhhVoAmblZiP8TKUD3jpRW8x1ceA7FpHzzL+lslC3s0J/dxnNFc3dUtqsT84WMAVMjpShKNgU/vvbRBPaTKEG3CLjUtlJGzKBOmV4KvQ6mns1x7qUVsDkQZkleA8fE7yHVaLv5Ey3BL5jGzm3Ljkzd0G1ppFrBdUmbpbSPo7myuYmeftNdSMBs2arEX6mdYL38Hui9nimmwO3WLbFVzbXiiyoVta9bTfRXNl83AbOjHWwgClgVm3b8e+bJ5k4MgTMdeRZdnYWlskCt8t4Rn8SlspCreaR/zkQy4h42r42vjIBk+5CUJemCT7TKtnElcX5iPvxWVhKB/e1jZxLZecRcenrgZRzxl1eVvJZVtFc0XydqD5f62ICZq3ejzBgvk/Uvm8TvZffRtqHJ9Fc4XgXnjwJXRRZVwnf18uwXAyyOSQAzaOuE9yvormauS38PraR7+FrAiYHW3b8+35JMCCXidp3HXmWXExjnFcx3+2FyvOI+CPGufUODOV1WCoLdOdl1HXyd5UkZCJgVhsuuy4i5iMLzF3IdBXz5cj68Ktv9LlpGzIvDXE4yTYslQW6M62w/lgXngc34Z5QAbNSXa8zn4/wM3VhEXnOgk1jPFcxz+84YL2JiA9hySycYpV0Pn0ZVihAjS4rHLvLKPd0bQFTwKzSIrq/ebj0VhirpINxG7muYr4ZQeiatZ/jLvOI+CvcuwWneBX5HjIxCUtloVY1jt0SJ9pWuoqAWaNNNI+j79rZA5wEDnUVea5iTqLupbKzOO7K5DacBYRTXSSdA175aqDK4/ebyt7zJoY/0bbWVQTMGj3vIezMouxVolXkPuOzjVxXMS+jzm09jg2XWQtkqMU68j5VdubrgepcRv69Mb9VYw7po24iYJ5iU/BvX0Q/Z0ZKb4HxuoLv/SpyXUm7rqxAOyVcXoWlJtDF/LpJ+L4slYWyTg1C76KuW1f+O/JAK2CORKmOcxX93Kw8ibJXw5aVDMZt9LM0+T7f27uo437MU8LlOll7Q622Yaks8DDrj6Hr9mXYHkXAPNH7An9z0WOxfVlwksgW2g6ZOJaJ3s808j9p9TyabUcmR/aL56Ya6LTAukr4viyVvQnbUFufreV+zOnIM4KAORLLGPbsxCL6O/s8ibLLY7Mu3brNReQ6OzWL5kmr2QqUSTRL4K5PbONNAF3Pt9uE78tSWdsxlQwE+sXpzisZv0P1p02U2xZFwByJxYB/p8+lTSW3vFhFzjPqd9lGvqtrk2iuZF4mCr0f4rQ9O1/HsFeJSwfznxR0ERHxo8NKRPT78IxtWCqb1UzXFzAr7Re1hMwh/K4JBMz7GuKJon2Hy/mJAWCsIe3YcJztwUST9oTBh4IH50lbKP5x4oFxUaDQnCggUhR08yTtMEsylvuyjJz3vL8s3AdK9/9fBJsHNxbHFLazh8whxtcm6rxoImAms4l+r2L2HS4n0dygXUofW60M7VXkXAoxj2bJ7PXAB6bzNlieukfnMspcXSld2M2SFBA/JmiHDMXcLMkY7lO2Zf4714X6wCTBGDxLFiQewjiopR3OKqmJMofMIfpS1lsQBMwKve7x9/YdLks+GOYixvMI5xeRd0Pd8zZovov+rlRPo1mWe99Auy4ULidJipjzBO8hQztcJngPGa4kPev5928i176++/NJiWNTlgI+U3H+LMF7+C3Be5iNvB26rsXO4/iH+o3h+LoK914e7IfPnz9rhW/416NH+//5Kk6/YvO1bRtY+uyku3BZatK8ivFtPVG6TY+xjGbfq/U9DiyzNoz80lFhto6Ip1HmzF+X4/e+Y/9JlHuw0bQ9SZChHZ5GuZM2Wdoh2v7Qdzv8FTmX3w05J0zagjhLOyyi/H2ymcbBiyi77PDU2z269jr6uX1k3tYvfczlzyPHxYQP0f+97Y+/N1/9/emT4CRgnhQwu5yAnke/DzcpHYQyHDiFzC9t9l7/ueXf/Rz9XO0rGS5nkWuLl5Jt8S7yXMUpWZj0XYhkC9t9FZddjYeLAUL2deRYQfD1sfJFobkg47HsIspcHco2PvoImX1/xr6C8aHOov/bwZ7edrwSMAXM+wTMrgrVPs/UzdpBNhUuhcxERVSpPnEW5e73uitU9L2K4WvnkfO+mUUMt43RtJ0fZwn7w9v2uNBX2Mh0cmHIfjBt+/086efexM0TtYcKmlnHQbRjYMh73Lqq67q2bo8Rq4pC9CbK3Bo1xHd458kPAVPAvE/A7KpI20b3Z6wn0dzXVHIZYOklLkPLeEY8mxJnNSdtIf1r4qJy/4D8ti0u+wpY02ieOnyWvC1W0Tz6vY9Ce972hxrG6yKaDbyXPfSDbPdMfa8fvO9gTMz2vvNJBd/7tv3Mb6O/q7ln0dxzea4tYtK2w8vk/WPTzouLe46HIQLm/hw21EnDFOFSwBQwuwiYXYbMiw6KiAyT5DaGvxqTxWVbvNNP/76r78/2fv7U/pxV2mbrtrBet0X29sT22BUTP7Y/a2yPVTT3EK/iZmn3oUVUfNUf5hWPo1Pb4XteRY57kY8prlcR8Wc7LtbfGBfT9rU/D8yj7v0VdwHr414bHBsmxjIONnvjYH1i4Nxvj0k0zxWYV9oWy6/GQ8aAOVTQvByg9j142baAKWB2FT67CJm7AuLtCYX4WTRnIs+i7Nm3dQxz/0xmsyi7LDljUHre40GltiL55Lnh70+fnh4wF5UoHEr43v0vD+Xz39UOh8r6wJ+j6paIeGiFy13f+0MaBz8c+O8eQh85dJVQyf6xiG5XZZxH/yuUthFx8fenT8vgZP/UBCcPmOggZM7b1za+PGP5rRAziVxn3q7CfkC7QPWkDT2XD7wtSt/oD9zu4oEFcqDsRYDz9rVf566PeE+z9rV7ov1kgLbq8yS5gMlBIXMb3TxEZLI3CLPbxLj2uOzCNpplwu+jWTI7e2Cff9X2CRMy5B+ry6hnU3egmxrlmIA17SHIfavOXd/y3qYx/GoLJ8kFzDSW7QDJ+kS2rieotwbfncXbk3YCfRN1PFziPjZtsF766qEaLwRM4Jb5YR3Niqzfeq5jstTNq73PTUf+oQk6KbKfRHPmY6wW7WcULg9vr8cx3iXEm2iuWD4WLqHK8ftaMwBfWcfNQ+ZejbyO2a9l+t6LWMDkXnaDcTXCoGT54/F2E/S/R9R++8Fy4SuGal2F++eBL729o44ZSwhTywiYVXbap3H/J/2VDkZXgmUvQf1ppZPZKpqb3k3GMA7baJaEAezq18UddcyTtg64qrQ2XLZ1mFpmAO7B7K8gX0VdG3yv4mZDX/rtF7t7oHZbzWQ92CyjOaO5SdaGD+Vgf+i/e/2A2+OhfP5j+8UhFlHvliUPbYnvxjygj/R8PPz9iL74on3N4mbLkFniNnofNw/mZCD2wTzBvx49OvZ/mbZB4tdkg3AZzSOjl+FKZUlncbMFTcn+sd470bD2tZRl42YAtWRHruP2E0rP7xnApm0Ns6tlpoWaddPWMbva9uTP5BgsYNY2KewG4bP252TAt75qg8PHuLmRm3x2QfOn9ue0h8l6074+xpc39iNgAjCugDm0aXy5h2Ufdcyubvlzr77trI5xDBYwa58U9gfhz23gnHcw6KIND7sgsfLNjWLC3k3Qszju5MRu4t2Gq5MCJgACZtk65phadz88DlLPOgYLmGOeFPYH4l12QRIQMAEABEwAAADqZZsSAAAABEwAAAAETAAAAARMAAAAEDABAAAQMAEAABAwAQAAEDABAABAwAQAAEDABAAAQMAEAABAwAQAAAABEwAAAAETAAAAARMAAAAETAAAAARMAAAABEwAAAAETAAAABAwAQAAEDABAAAQMAEAABAwAQAAQMAEAABAwAQAAEDABAAAQMAEAAAAARMAAAABEwAAAAETAAAABEwAAAAETAAAAARMAAAABEwAAAAQMAEAABAwAQAAEDABAAAQMAEAAEDABAAAQMAEAABAwAQAAEDABAAAAAETAAAAARMAAAABEwAAAARMAAAABEwAAAAETAAAAARMAAAAEDABAAAQMAEAABAwAQAAEDABAABAwAQAAEDABAAAQMAEAABAwAQAAAABEwAAAAETAAAAARMAAAAETAAAAARMAAAABEwAAAAETAAAABAwAQAAEDABAAAQMAEAABAwAQAAQMAEAABAwAQAAEDABAAAQMAEAAAAARMAAAABEwAAAAETAAAABEwAAAAETAAAAARMAAAABEwAAAAQMAEAABAwAQAAEDABAAAQMAEAAEDABAAAQMAEAABAwAQAAAABEwAAAAETAAAAARMAAAABEwAAAARMAAAABEwAAAAETAAAAARMAAAAEDABAAAQMAEAABAwAQAAEDABAABAwAQAAEDABAAAQMAEAAAAARMAAAABEwAAAAETAAAAARMAAAAETAAAAARMAAAABEwAAAAETAAAABAwAQAAEDABAAAQMAEAABAwAQAAQMAEAABAwAQAAEDABAAAAAETAAAAARMAAAABEwAAAAETAAAABEwAAAAETAAAAARMAAAABEwAAAAQMAEAABAwAQAAEDABAAAQMAEAAEDABAAAQMAEAABAwAQAAAABEwAAAAETAAAAARMAAAABEwAAAARMAAAABEwAAAAETAAAAARMAAAAEDABAAAQMAEAABAwAQAAEDABAABAwAQAAEDABAAAQMAEAAAAARMAAAABEwAAAAETAAAAARMAAAAETAAAAARMAAAABEwAAAAETAAAABAwAQAAEDABAAAQMAEAABAwAQAAQMAEAABAwAQAAEDABAAAAAETAAAAARMAAAABEwAAAAETAAAABEwAAAAETAAAAARMAAAABEwAAAAQMAEAABAwAQAAEDABAABAwAQAAEDABAAAQMAEAABgZP43AF5Kd4KYqf8KAAAAAElFTkSuQmCC;shadow=1;" vertex="1" parent="1">
          <mxGeometry x="278" y="225" width="213" height="213" as="geometry" />
        </mxCell>
        <mxCell id="Ppe9uCJr2pv7-PK-GDrQ-2" value="" style="shape=image;verticalLabelPosition=bottom;verticalAlign=top;imageAspect=0;aspect=fixed;image=data:image/jpeg,/9j/4AAQSkZJRgABAQAAAQABAAD/2wCEAAcHBwcIBwgJCQgMDAsMDBEQDg4QERoSFBIUEhonGB0YGB0YJyMqIiAiKiM+MSsrMT5IPDk8SFdOTldtaG2Pj8ABBwcHBwgHCAkJCAwMCwwMERAODhARGhIUEhQSGicYHRgYHRgnIyoiICIqIz4xKysxPkg8OTxIV05OV21obY+PwP/CABEIBIQH0AMBIgACEQEDEQH/xAAdAAEBAAMAAwEBAAAAAAAAAAAACAUGBwIDBAEJ/9oACAEBAAAAAKRAAAAAAAAAAAAAAAAAAPzA6lrGt4HE4n5/k9Pu+v6crl87smzbdnv0AAAAAAAAAAAAAAAAAAAAAAAAAAAAAAAAAAAAAalznQNHxP4AAH7ld533pG2gAAAAAAAAAAAAAAAAAAAAAAAAAAAAAAAAAAAHjo/KOXYAAAAAzvUer715AAAAAAAAAAAAAAAAAAAAAAAAAAAAAAAAAAAGJ45xvWwAAAADZOx9kywAAAAAAAAAAAAAAAAAAAAAAAAAAAAAAAAAAatwzkPoAAAAAA9/Xe77MAAAAAAAAAAAAAAAAAAAAAAAAAAAAAAAAABrs/ck8AAAAAAA8+tUDsYAAAAAAAAAAAAAAAAAAAAAAAAAAAAAAAAB8PAuIegAAAAAAA9/ce+faAAAAAAAAAAAAAAAAAAAAAAAAAAAAAAAADls2YMAAAAAAADOUr1AAAAAAAAAAAAAAAAAAAAAAAAAAAAAAAAAxk1cmAAAAAAAADrNK5MAAAAAAAAAAAAAAAAAAAAAAAAAAAAAAAGiSvgQAAAAAAAAM9VW8gAAAAAAAAAAAAAAAAAAAAAAAAAAAAAADh05+sAAAAAAAAA9lHdvAAAAAAAAAAAAAAAAAAAAAAAAAAAAAAA9E08bAAAAAAAAAA7JS/uAAAAAAAAAAAAAAAAAAAAAAAAAAAAAAHwypzcAAAAAAAAAA6RVn2gAAAAAAAAAAAAAAAAAAAAAAAAAAAAAPgkfRQAAAAAAAAAA3uuPuAAAAAAAAAAAAAAAAAAAAAAAAAAAAAB8Ei6OAAAAAAAAAABvNd/aAAAAAAAAAAAAAAAAAAAAAAAAAAAAAPmkTQgAAAAAAAAAADfa7+kAAAAAAAAAAAAAAAAAAAAAAAAAAAAB4SrysAAAAAAAAAAAOqVV5gAAAAAAAAAAAAAAAAAAAAAAAAAAAATvwYAAAAAAAAAAADvVDgAAAAAAAAAAAAAAAAAAAAAAAAAAAA5TKgAAAAAAAAAAABVnVQAAAAAAAAAAAAAAAAAAAAAAAAAAABrMZfCADZNg+PVfhAAAAAAA+racljtLAB91obGAAAAAAAAAAAAAAAAAAAAAAAAAAAA9UcaUABbmyvHT+Y8j1oAAAAADL9b6nuvveEOYQAG62N7gAAAAAAAAAAAAAAAAAAAAAAAAAAAOAz4ABulmg8OdcF0AAAAAA2vvHV/eCcOGgAUJ30AAAAAAAAAAAAAAAAAAAAAAAAAAAGqxf6AAO9UOAc8nbSgAP0fgAM9QvW/MBziRQAPfaO0gAAAAAAAAAAAAAAAAAAAAAAAAAABH/PgAFa9MAHjx6dMYeWy7VtGezeSyf0/R8/hivgwuB1jV9U9B7u697+sAY+D/AMAA6FX4AAAAAAAAAAAAAAAAAAAAAAAAAAA5XKQABceeABip9ym/7t9wAAejUtC0vu+3AAQ5gQAFX9SAAAAAAAAAAAAAAAAAAAAAAAAAAAemKNbAAft++YAAAAAAAAjvQgAGyWx7QAAAAAAAAAAAAAAAAAAAAAAAAAAOMzIAAfdeYAAAAAAAASVzMAAp3sgAAAAAAAAAAAAAAAAAAAAAAAAAAPCJNcAAMjeAAAAAAAAASXzIAA2S2vMAAAAAAAAAAAAAAAAAAAAAAAAAAOVSmAAPK/fIAAAAAAAAR7oAAAq3qgAAAAAAAAAAAAAAAAAAAAAAAAAARzogAAXPmgAAAAAAABEGugADfLFAAAAAAAAAAAAAAAAAAAAAAAAAAGoxYAACtulgAAAAAAAHwQd+AABau2AAAAAAAAAAAAAAAAAAAAAAAAAAE5cLAAB3iiQAAAAAAADmkkgAA7rRgAAAAAAAAAAAAAAAAAAAAAAAAAD8hrCAAA32xAAAAAAAACeOCgAAzlx+QAAAAAAAAAAAAAAAAAAAAAAAAAGiRyAAD7LI20AAAAAAAA+COdTAABY+9AAAAAAAAAAAAAAAAAAAAAAAAAATtwcAAFR9eAAAAAAAADVox+UAAO80QAAAAAAAAAAAAAAAAAAAAAAAAABF2ngAB0qtwAAAAAAAAOEzoAAG42gAAAAAAAAAAAAAAAAAAAAAAAAADFQp+AAD2WrtAAAAAAAAAHpibXQAB+3bkwAAAAAAAAAAAAAAAAAAAAAAAAA5fJwAAdYqkAAAAAAAAA4xMoAAVj1AAAAAAAAAAAAAAAAAAAAAAAAAAJ54IAAFi74AAAAAAAAAfJC/wgADvtCAAAAAAAAAAAAAAAAAAAAAAAAABJPNAABn7h/QAAAAAAAABLnIQAB0ytQAAAAAAAAAAAAAAAAAAAAAAAAAh/XgAB2emgAAAAAAAAA5JLIAA2K3wAAAAAAAAAAAAAAAAAAAAAAAAB6YF/AABUfXgAAAAAAAAAwEOgAD9vr3AAAAAAAAAAAAAAAAAAAAAAAAAGtRGAAFnbmAAAAAAAAAH5BnxAAC3NlAAAAAAAAAAAAAAAAAAAAAAAAANAj0AALtygAAAAAAAAAIo1UAAWFv4AAAAAAAAAAAAAAAAAAAAAAAABymVAAB+375gAAAAAAAAAjrQwABVfVgAAAAAAAAAAAAAAAAAAAAAAAADjswAAD9/oAAAAAAAAAABH3PwABT/YgAAAAAAAAAAAAAAAAAAAAAAAADik0gAD9v/wDQAAAAAAAAAR5oIAApXtgAAAAAAAAAAAAAAAAAAAAAAAABwqcwAB+337QAAAAAAAAARvowAAovuwAAAAAAAAAAAAAAAAAAAAAAAABwucgAAunMAAAAAAAAAAiPWgABRfdgAAAAAAAAAAAAAAAAAAAAAAAADiU1gAD9tPbQAAAAAAAAAQdjwABSfbgAAAAAAAAAAAAAAAAAAAAAAAADjkwgABWvTAAAAAAAAAA+GDAAAp7sYAAAAAAAAAAAAAAAAAAAAAAAABymVAAAo/uQAAAAAAAAAaXGQAAVZ1UAAAAAAAAAAAAAAAAAAAAAAAAA5/HwAAdeqMAAAAAAAAAONTGAAFg9AAAAAAAAAAAAAAAAAAAAAAAAAANZiQAANltwAAAAAAAAAJi42AAFubKAAAAAAAAAAAAAAAAAAAAAAAAAeiBvwAALiz4AAAAAAAAAh7XwAB+3z7wAAAAAAAAAAAAAAAAAAAAAAAABD+vAABSvbAAAAAAAAADTYwAADYrfAAAAAAAAAAAAAAAAAAAAAAAAACSeaAAButmAAAAAAAAAE4cNAADptaAAAAAAAAAAAAAAAAAAAAAAAAABPPBAAAWVu4AAAAAAAAHxw5jQAA77QgAAAAAAAAAAAAAAAAAAAAAAAAAcvk4AAHTa0AAAAAAAAA4TOgAAKy6eAAAAAAAAAAAAAAAAAAAAAAAAAGMhL8AABX/QgAAAAAAAAw8TY8AAP27MoAAAAAAAAAAAAAAAAAAAAAAAAACLtPAABsln/cAAAAAAAAJP5cAADcrPAAAAAAAAAAAAAAAAAAAAAAAAAAnbg4AAHVqp8gAAAAAAAHDpvAAA7zRAAAAAAAAAAAAAAAAAAAAAAAAAAGhR2AAA7jSAAAAAAAAHKJZ9YAAFi74AAAAAAAAAAAAAAAAAAAAAAAAAB4Q3hQAAHbaP9oAAAAAAA4/MXrAAAzlx+QAAAAAAAAAAAAAAAAAAAAAAAAACceGAAAHRakzAAAAAAAHonPiIAAB3WjAAAAAAAAAAAAAAAAAAAAAAAAAADUorAAAGSorsXmAAAAAAOdTZqwAAAtTbQAAAAAAAAAAAAAAAAAAAAAAAAABHOiAPfu2Xw+m/KANr7z1b3gAAAAB+c84RzkAAAN+sMAAAAAAAAAAAAAAAAAAAAAAAAAAOUSqArPpx8PHeAY0AZbrXU978wAAAAapyzkmrgAAAVZ1UAAAAAAAAAAAAAAAAAAAAAAAAAAPVEuugdaqTzGDlHSAAZHft82/bcz+gAAMbqum6RoGCAAAANktrzAAAAAAAAAAAAAAAAAAAAAAAAAABxuYgHS6czQ+GRtFAAP37Ke6sAAGlyRivwAAAACneyAAAAAAAAAAAAAAAAAAAAAAAAAAAemKNbAfdU/TBjIwwAAB1qpwAAOFTmAAAABs1re0AAAAAAAAAAAAAAAAAAAAAAAAAAByuUgD3V7vw0GPvEAD7reyoAAHri7UwAAAAVd1MAAAAAAAAAAAAAAAAAAAAAAAAAAAR9z8AzNo5cTVxMADuVHgAAHHpfAAAADodfAAAAAAAAAAAAAAAAAAAAAAAAAAABqkYegA6pVo9Ef6KACyt3AAAPhhP0AAAAHvtHaQAAAAAAAAAAAAAAAAAAAAAAAAAAAcDnoAV10cfBJmgAD7by8gAABHmggAAAFB9+AAAAAAAAAAAAAAAAAAAAAAAAAAAA9Mc6UAbfaHkPRwvg3xAezslMgAABNXEwAAAG62P7QAAAAAAAAAAAAAAAAAAAAAAAAAAAGtxh8IBWnTQY7lega76Pt2Xeuk5gAAAHB52AAAA+6ztlAAAAAAAAAAAAAAAAAAAAAAAAAAAAHKpTAOkVyAAAAAAcYmUAAACqurgAAAAAAAAAAAAAAAAAAAAAAAAAAAAnfgwBXnRQAAAAAHHJhAAAB3miAAAAAAAAAAAAAAAAAAAAAAAAAAAAAPCVeVgMzZedAAAAAA5FLYAAAdSqzzAAAAAAAAAAAAAAAAAAAAAAAAAAAAAfPIugANirHbgAAAAAcdmAAAAb5Xf1AAAAAAAAAAAAAAAAAAAAAAAAAAAAAD4ZF0YB7+5dxy4AAAAA47MAAABvFdfeAAAAAAAAAAAAAAAAAAAAAAAAAAAAAD4JI0QA93Quh7bnftevEYXXNo6eAAAHIJdAAAbzW+RAAAAAAAAAAAAAAAAAAAAAAAAAAAAAAfFKvNQAAO/0EAAAHGZkAAA6HWH3AAAAAAAAAAAAAAAAAAAAAAAAAAAAAAD0zVxkAAHfKFAAADjMyAAA7BTXvAAAAAAAAAAAAAAAAAAAAAAAAAAAAAAA4rNvqAAHfqDAAADi8zAAD2UV3MAAAAAAAAAAAAAAAAAAAAAAAAAAAAAAAaPKuAAAO90MAAAHFZoAAM3U3QAAAAAAAAAAAAAAAAAAAAAAAAAAAAAAAAfBNPIwAHeKJAAADiU1gAOpU3lAAAAAAAAAAAAAAAAAAAAAAAAAAAAAAAADmM1YEAHeaIAAADiM2AAzFIdZAAAAAAAAAAAAAAAAAAAAAAAAAAAAAAAAB8fBeGfOAO60YAAAHDZwAHu7TQGSAAAAAAAAAAAAAAAAAAAAAAAAAAAAAAAAAMHPnIfWA7lR4AAAcNnAB5dWoLZwAAAAAAAAAAAAAAAAAAAAAAAAAAAAAAAAANb4bxz5wd3ooAAAOJTWD3dX7ztYAAAAAAAAAAAAAAAAAAAAAAAAAAAAAAAAAAYzj/GdXPOwN+AAADWYt+Yz/YuyZwAAAAAAAAAAAAAAAAAAAAAAAAAAAAAAAAAAA/NI5v6elb4AAABp3JPPo3QPMAAAAAAAAAAAAAAAAAAAAAAAAAAAAAAAAAAAAAAAAAAAAAAAAAAAAAAAAAAAAAAAAAAAAAAAAAAAAAAAAAAAAAAAAAAAAAAAAAAAAAAAAAAAAAAAAAAAAAAAAAAAAAAAAAAAAAAAAAAAAAAAAAAAAAAAAAAAAAAAAAAAAAAAAAAAAAAAAAAAAAAAAAAAAAAAAAAAAAAAAAAAAAAAAAAAAAAAAAAAAAAAAAAAAAAAAAAAAAAAAAAAAAAAAAAAAAAAAAAAAAAAAAAAAAAAAAAAAAAAAAAAAAAAAAAAAAAAAAAAAAAAAAAAAAAAAAAAAAAAYrQtV13H/B+e76/szWe2XcskAAAAAAAAAAAAAAAAAAAAAAAAAAAAAAAAAAAAAAGI41yPSwAG2dQ69uQAAAAAANcA9+V94AfDigPbngAAAAD58D5gbGAAAAAAAAAAAAAAAAAAB8M+8M+YAADu9KgPDUvg2zJgAAADQYxAUf30AJb4uAu/OgAAAAJ/nMBZfQQAAAAAAAAAAAAAAAAAA0aTdeAAAOy1OBxmdMI8+r0xmgAAAHOY5AUVQQASzxkBd2eAAAAATzPICxujAAAAAAAAAAAAAAAAAADlkn/ADAAACpO0A4PNYNltTJgAAAc5jkBRVBABLPGQF3Z4AAAABPM8gLG6MAAAAAAAAAAAAAAAAAAc9jz0AAABcm0BrkN+oDt1PAAAAc5jkBRVBABLPGQF3Z4AAAABPM8gLG6MAAAAAAAAAAAAAAAAAAw0SYcAAAMtev6HA5vAZG+fIGM9gHn9gBzmOQFFUEAErccAXdngAAAAE8zyAsbowAAAAAAAAAAAAAAAAACTeSgAAA6pXAJg4kAXxlAfz28AOzVMAc5jkBRVBABK3HAF3Z4AAAABPM8gLG6MAAAAAAAAAAAAAAAAABocXgAZ7bMx7nox2C1j4yle7gnWfQHs/oH7QfzzAdnqUA5zHICiqCACVuOALuzwAAAACeZ5AWN0YAAAAAAAAAAAAAAAAACQuYAD7u59k2cB46pzTmlMbWDn8ZgOlWEB/PMB2OqQDnMcgKKoIAJW44Au7PAAAAAJ5nkBY3RgAAAAAAAAAAAAAAAAAa7C34Ab/WWbAAAEicuB7bQ3cD+eYDsdUgHOY5AUVQQAStxwBd2eAAAAATzPICxujAAAAAAAAAAAAAAAAAA4BOQBv1ifUAAAHwyny0ZOqeoAP55gOx1SAc5jkBRVBABK3HAF3Z4AAAABPM8gLG6MAAAAAAAAAAAAAAAAACMdBAZC4M4AAAA0LnPxbT1XJAH88wHZqmAOcxyAoqggAlbjgC7s8AAAAAnmeQFjdGAAAAAAAAAAAAAAAAAD4YF9YCiaDAAAAAAD+eYDs1TAHOY5AUVQQAStxwBd2eAAAAATzPICxujAAAAAAAAAAAAAAAAABz2NQHuu/LgAAAa/wCoDNfWB/PMB1Ok/wBH2Zk5zHICiqCACVuOALuzxjPYB7vpAYv2gfX7CeZ5AWN0bAcu51qOE+P7c7uHUeqfWAAAAAAAAAAAAAAAHCpoAdJsMAAADS4nAUDRZi+faBz3SQAGWvY5zHICiqCACVuOALuzzFwV4AdVrcDAQkAomgyeZ5AUbovLvEAzNLddAAAAAAAAAAAAAAAExcQAUd34AAADQIyAd8pBwSb/AMAAD779OcxyAoqggAlbjgC7s8wcHgOk2GBrsKgO/wBGk8zyAAAO9UkAAAAAAAAAAAAAAASDzEBYHTAAAANBjEB3ykEycOAAB99+nOY5AffkgAxHygLuzzBweA6TYYGuwqA7/RpPM8gAABTfcQAAAAAAAAAAAAAAEU6SAurYgNa8AANi9xoMYgO+UgmThwAAPvv05zHIAAAAXdnmDg8B0mwwNdhUB3+jSeZ5AAAD6ri2AAAAAAAAAAAAAAACE9fAf0C+oGlRQAAqPtJoMYgO+UgmThwAAPvv05zHIAAAAXdnmDg8B0mwwNdhUB3+jSeZ5AAAB22nwAAAAAAAAAAAAAAIJxIHl/QoDRYtAAU7280GMQHfKQTJw4AAH336c5jkAAAALuzzBweA6TYYGuwqA79RxPM8gAAA+29vpAAAAAAAAAAAAAABAHxAfZ/QADQ4vAAU7280GMQHfKQTTwkAAGWvY5zHIAAAAXdnmDg8B0mwwNdhUB36jieZ5ANt6vvOU+fROC4sArzqAAAAAAAAAAAAAAAP59egD7P6AAaHF4ACne3mgxiA75SD5MOemHAHUaV8x9WZOcxyAAAAF3Z5g4PAdJsMDXYVAd+o4nmeQFV9hBrkV4oB3ukQAAAAAAAAAAAAAAQD8IHn/QkDQ4vAAU7280GMQHfKQA/nmA7NUwBzmOQAAAAu7PMHB4DpNhga7CoDv1HE8zyAvHNgcQmIB0uwQAAAAAAAAAAAAAAQXhwH9BPoBocXgAKd7eaDGIDvlIAfzzAdmqYA5zHIAAAAXdnmDg8B0mwwNdhUB36jieZ5AXjmwMfA3gBstzgAAAAAAAAAAAAAAhfWwF1bEDQ4vAAU7280GMQHfKQA/nmA7NUwBzmOQHc+9ADwmrlQC7s8wcHgOk2GBrsKgO/UcTzPIC8c2AiHUQPq/oEAAAAAAAAAAAAAACMdBAWJ0gGNnH1H5rXPgFO9vNBjEB3ykAP55gOzVMAc5jkBRVBABK3HAF3Z5g4PAdJsMDXYVAd+o4nmeQF45sBInLgPZ/QgAAAAAAAAAAAAAAEn8jAUp3gAHKZJAU7280GMQHfKQA/nmA7NUwBzmOQFFUEAEs8ZAXdnmDg8B0mwwNdhUB36jieZ5AXjmwEscaA9n9CAAAAAAAAAAAAAAATvPYDqlcAA5TJICne3mgxiA75SAH88wHZqmAOcxyAoqggAlnjIC7s8wcHgOk2GBrsKgO/UcTzPIC8c2AlrjAHs/oQAAAAAAAAAAAAAADk8lgPrvT7QA5TJICne3mgxiA75SAH88wHZqmAOcxyAoqggAlnjIC7s8wcHgOk2GBrsKgO/UcTzPIC8c2AlbjgHs/oQAAAAAAAAAAAAAADBQgAU924AOUySAp3t5oMYgO+UgB/PMB2apgDnMcgKKoIAJY40Au7PMHB4DpNhga7CoDv1HE8zyAvHNgJO5IB7v6DAAAAAAAAAAAAAAAQ1rADP3B9oA5TJICne3mgxiA75SAH88wHZqmAOcxyAoqggAljjQC7s8wcHgOk2GBrsKgKBosnmeQF45sBG3PAM1eQAAAAAAAAAAAAAAE38DAOxVUAOUySAp3t5oMYgO+UgB/PMB2apgDnMcgKKoIAJV46Au7PMHB4DpNhga7CoCgaLJ5nkBeObAQprwG6WwAAAAAAAAAAAAAABqERADtdNe8BymSQFO9vNBjEB3ykAP55gOwVYAc5jkBRVBABKvHQF3Z5g4PAb7Z4GuwqAoGiyeZ5AXjmwMPBYDq1bAAAAAAAAAAAAAAAI254ANq731j7wcVl0BTvbzQYxAd8pAD+fHqA2y3/0BzmOQFFUEAEscaAXdnmLgcB997e8GsQ0AoGiyeZ5AXjmwODTYAoKigAAAAAAAAAAAAAAHPo0AB57LmfLwx2ExYBTvbzQYxAd8pACDcKA7/Q3vA5zHICiqCACV+NgLuzz1/z3AO+0b5Hq5hPWmAKBosnmeQHUO+79+jnkh/EAr3p4AAAAAAAAAAAAAABKXIAAAACne3mgxiA75SAEY6CAZbfPv+D1V55ucxyAoqggAlfjYC7s8QprwBs28+7D6JjQBQlEE8zyAMru2X8NV0oA918fcAAAAAAAAAAAAAAAY2JteAAAAU7280GMQHfKQAmvg4AD+gf0ucxyAoqggAlfjYC7s8SdyQAAAFBUUTzPIAAAOpV0AAAAAAAAAAAAAAAGpxpigAAAKd7eaDGIDvlIAaHF4AD+gf0ucxyAoqggAlfjYC7s8chlEAAAFBUUTzPIAAALF6OAAAAAAAAAAAAAAADUJBwAAAAKb7iaDGIDvlIAI254AB/QT6HOY5AUVQQASvxsBd2ePTDeugAABQVFE8zyAAAHS7BAAAAAAAAAAAAAAAAYuXuUAAADaqy3A0GMQHfKQAa1FuKAB/QP6XOY5AUVQQAStxwBd2eHO468AAB9HzhQVFE8zyDZNbAAM5aWeAAAAAAAAAAAAAAAAHN560AAAG4d27B7hokXAO90iAahI2tgB/QT6HOI6AUVQQASlyABdufDlkqfCABvVF8j4sFAUYT1PALw45wD4QAbVXO0gAAAAAAAAAAAAAAAAadyTmmm+AA89y6V1TeP0Hwy5jwePeOlgD5eH8W1YDy3qzPY1yXQfjvHTgA4nyTyB7az+0GC4Fx/GgMr1Psu/uW8Gfr97l1c5jwbyGbqpiuM8h0wBnu390+sAAAAAAAAAAAAAAAAAPVqGrcl0MZnt+37t7gAAAADBaloHJvPsW+bn9wAAAAAAHq1XnvBfne/vfQts8wAAAGI0nmXJmW7nvO3+QAAAAAAAB//xAAWAQEBAQAAAAAAAAAAAAAAAAAAAQL/2gAIAQIQAAAAAAAAAAAAAW0CJAAAAAAAAAAAAAAAAAAGqAASQAAAAAAAAAAAAAAAAA1QAAGYAAAAAAAAAAAAAAAAGqAAADMAAAAAAAAAAAAAAAAugAAACZAAAAAAAAAAAAAAADVAAAABgAAAAAAAAAAAAAAA1QAAAAGAAAAAAAAAAAAAAANUAAAAAYAAAAAAAAAAAAAADVAAAAABgAAAAAAAAAAAAAAugAAAAAGAAAAAAAAAAAAAAGwMGqAADMXQJkAAAAAAAAAAAAAGwJkNUQFGYGwMwAAAAAAAAAAAAAXQEyAACwDYDAAAAAAAAAAAAAA2AzAAAAGwGYAAAAAAAAAAAAAugEyAAAA2AYAAAAAAAAAAAAAaoCZAAAAbAMAAAAAAAAAAAAANgDAAAADYBMgAAAAAAAAAAAAugDAAAABdAGAAAAAAAAAAAAAaoDMAAAAGwDAAAAAAAAAAAAANgGAAAAAugGYAAAAAAAAAAAAGwDAAAAANgJkAAAAAAAAAAAANgJkAAAAGwEyAAAAAAAAAAAAGwEyAAAADYCZAAAAAAAAAAAAF0AmQAAAAbATIAAAAAAAAAAAAugEyAAAADYCZAAAAAAAAAAAADYCZAAAABsBMgAAAAAAAAAAABsAwAAAAF0AmQAAAAAAAAAAAA2AYAAAADVATIAAAAAAAAAAAAbAJkAAAAbAMwAAAAAAAAAAAANUAwAAAAXQBgAAAAAAAAAAAAF0ATIAAADYAwAAAAAAAAAAAABsATIAAANgCZAAAAAAAAAAAAA1QBMgAAF0AGAAAAAAAAAAAAAF0JLQmQAAugAMAAAAAAAAAAAAAGxMmwIyAW0AAzAAAAAAAAAAAAAC6DC6AmQBsAAYAAAAAAAAAAAAADYTLVBgANUABmAAAAAAAAAAAAAA2GY1QwAF0ABMgAAAAAAAAAAAAAXQYFIAC6AAwAAAAAAAAAAAAAAaozAAANgAwAAAAAAAAAAAAAAGqJkAALoAMAAAAAAAAAAAAAAAaoQMgBdADAAAAAAAAAAAAAAABqgJkALoAwAAAAAAAAAAAAAAAF0BMgBdATIAAAAAAAAAAAAAAADVBgALoGYAAAAAAAAAAAAAAAAGqMABdCZAAAAAAAAAAAAAAAAANXMABpIAAAAAAAAAAAAAAAAAAAAAAAAAAAAAAAAAAAAAAAAAAAAAAAAAAAAAAAAAAAAAAAAAAAAAAAAAAAAAAAAAAAAAAAAAAAAAAAACACgAACKBAoAAgUAAAAAAAABAAUQUACCggUAAQKAAAAAAAABAAKQKABBQQKAAIFAAAAAAAAAgAFIFIFCCggUAAQKAAAAAAAACAUAQKQKEFBAoAAgUAAAAAAAAECgARQgUIKCBQABAoAAAAAAAAIFAAAQKEFBAoAAgUAAAAAAAAEFAAgWACoKCBYFEFQAFAAAAAAAECgAQLABUAALAogqAAUAAAAAAAgUQCoFgAqAAFgUQVAAKAAAAAAAQKIBUCwAVAACwKIKgUgUAAAAAAAgUQCoFIFCAAFgUQVAogUAAAAAABAogFQKQKEFBAsCiCoFECgAAAAAAEFAgqBSBQgoIFgUQVAogUAAAAAAAgUEFQKQKEFBAsCiCoFECgAAAAAAECggqBSBQgoIFgUQVAogUAAAAAAAgFEFQKQKEFBAsCiCoFEFAAAAAAACAAKgUgKIKCBYCoFQKQKAAAAAAACAAVAogFQUECoACoABQAAAAAAAQACoFEAqCggVAAVAAUAAAAAAAAQBRAoQFQUECkAsKgAKAAAAAAAACCgAAigAAAhQACKAAAAf/EABYBAQEBAAAAAAAAAAAAAAAAAAABAv/aAAgBAxAAAAAAAAAAAAACEApQAAAAAAAAAAAAAAAAAEgAAtAAAAAAAAAAAAAAAAASAAAFoAAAAAAAAAAAAAAAAZAAAAtAAAAAAAAAAAAAAAAkAAAAGgAAAAAAAAAAAAAAAkAAAABaAAAAAAAAAAAAAAAyAAAAAWgAAAAAAAAAAAAAAyAAAAAFoAAAAAAAAAAAAAAyAAAAABoAAAAAAAAAAAAAAkAAAAAAaAAAAAAAAAAAAAAkA0iAAAtSAaAAAAAAAAAAAAABkBoJAogWhkC0AAAAAAAAAAAAASAWglAAAyA0AAAAAAAAAAAAAMgLQAAAGQGgAAAAAAAAAAAACQBaAAAAyAaAAAAAAAAAAAAAZAGgAAAGQDQAAAAAAAAAAAADIA0AAABIAWgAAAAAAAAAAAAmaAtAAAASAGgAAAAAAAAAAAAZALQAAABkA0AAAAAAAAAAAADIBoAAAAJAGgAAAAAAAAAAAAZANAAAAAyAtAAAAAAAAAAAADIC0AAAAGQDQAAAAAAAAAAAAZAWgAAAAyAaAAAAAAAAAAAADIC0AAAAGQDQAAAAAAAAAAAAZAWgAAAAyAaAAAAAAAAAAAADIBoAAAAGQDQAAAAAAAAAAAAZANAAAAAyAaAAAAAAAAAAAADIBoAAAAJAFoAAAAAAAAAAAAZALQAAABkA0AAAAAAAAAAAADIAtAAAASAGgAAAAAAAAAAAASADQAAAEgA0AAAAAAAAAAAABkAWgAAAyALQAAAAAAAAAAAAMgA0AAASABoAAAAAAAAAAAABIKQLQAAkAA0AAAAAAAAAAAAAZDSQCqARAAC0AAAAAAAAAAAAAkDSQBoAZAAGgAAAAAAAAAAAAAyDTIGgAyAAWgAAAAAAAAAAAABIFqQNAAyAA0AAAAAAAAAAAAABIGhFAAZAA0AAAAAAAAAAAAAAZC0AADIALQAAAAAAAAAAAAABkLQAAZAC0AAAAAAAAAAAAAAGQKKADIAtAAAAAAAAAAAAAAASAGgAZALQAAAAAAAAAAAAAABIA0ADIDQAAAAAAAAAAAAAAADIGgAZBoAAAAAAAAAAAAAAAAJA0ADItAAAAAAAAAAAAAAAAARLQAQoAAAAAAAAAAAAAAAAAAAAAAAAAAAAAAAAAAAAAAAAAAAAAAAAAAAAAAAAAAAAAAAAAAAAAAAAAAAAVAAAAAAAAAAAAAAAAAAAAtASAAAFEBQgAAoQAAAAAAAABaAGRoyAA0Mg0JAABoMgAAAAAAAANAAyWjIAGhkGhIAANBkAAAAAAAADQAGTQZLRkNDINCQAAaDIAAAAAAAALQkAFoyWjIaGQaEgAA0GQAAAAAAAAaDIAFsgtGQ0Mg0JAABoMgAAAAAAAA0GQAAFoyGhkGhIAANBlSAAAAAAAAaGQALRmqAy0Mg0JLRkaGWgAkAAAAAAAF1DIAFozoAZaAASWjI0MtAAkAAAAAAALRkaBcLRnQAy0AAktGRoZaAAyAAAAAAAWjI0C4WjNUIRoABJaMjQy0EjQZAAAAAAALRkaBcLRktGQ0AAktGRoZaEg0JAAAAAAAFoyNAuFoyWjIaGQaEloyNDLQkGhIAAAAAAAaGQNFwtGS0ZDQyDQktGRoZaEg0JAAAAAAADQkBouFoyWjIaGQaEloyNDLQkGhIAAAAAAAaDINFwtGS0ZDQyDQktGRoZaEg0JAAAAAAAC0MhouFoyWjIaGQaEloyNDLQkGhkAAAAAAANAAXC0ZLRCNDINCS0QoZaCFDIAAAAAAANAAuFoyNAZaGQaEjQAMtAAZAAAAAAAA0ADK0ZGgMtDINCRoAGWgAZAAAAAAAALQEhaMhaGWhkGhIaAlMtEmgZAAAAAAAAA0JAAAtkAAADRkAA0kAAAAf/xABaEAABAwICAgkMDQoFBAEEAwABAgMEBQYHEQAwEiExNkBBUXKzEyAyVmFwcXN1k7LSFBYiIzRQUmB0gZGUwxAVFzVCVWKSobEkQ4KkwiUzU9HBVGSDokRjoP/aAAgBAQABPwD53kgDM6TbotyApaJVZhtLRuoLydn/AC6TMW7KYQS1KfknkaYUOk2GkzHCnoI9h0R53uuuhr0QvSXjdXV/BaXDa55W56mknFu9Hjm1MZj+LZSfTz0fxGvR9JSutvDmBCPRA0Vdl0K3a/UfvLmi7gry+zq81XhfWdFVGoLz2U188ubijp7LlbLZeyHM+XZHPRNRqCMtjNfHJk4oaIuGvI7CrzU+B9Y0Tdt0oyKa/UfvLmjOI16MpCUVt489KF+kDpFxdvVjs5jL/jGEf8MtImN1eQf8XTITyf4Nm0f7r0h44wF5iZRHmvFOh30gjSJi5ZT6El2TIjHjDrJPRbPSFdNtTy2mJWobq1jaQHkhf8p0GRGY78R2hmdKnfVpUsqTKrDJWDkW2j1Vf2I0qWN9OQMqbSH3TxqfWGvR2elQxcvGXtMvsRByMtA9Js9J9erdS2QnVSVICjmUuOqWPsOmfAs9IFerdO2PsGqSo4ScwGnVIH2DSnYvXnDzDsliZ49r1NjpTcb4C801KkPNcimFhz+i9jpSr6tKqkJjVhgLO11N33lf1BegIIzHfbJCQSSABtnSs4kWjRytDlQEl5P+VGHVT6o0rGNlTezRS6czGR8t0l1elVui4axshUKo+8k5ZtlWTf8AInIcMpVz3BRyj831SQwlJJDaVkt7fKg7WlIxrqjJCKrT2ZKdrNxo9SXpQ8SbRq5bQid7GeP+VJ96/r2OgIUAQQQdsaAd9WrVykUZgv1Ka1HRxbM7auakbZOlexrYbCmqJALi/wDzydpP1IGlbu64q6Vez6i6ts/5IOwa/kHxFQ7uuKhKT+b6k822P8knZt/yHSg41srCGq3AKD/5o+2n60K0pFdo1ZZ6tTag1ISACpKVe7TnubJO6O+lX7wt+3kf9QmgO5ZpYR7t1X1aXBjJWZmzZpDAgtbYDpyceI0ky5Mt5b8l9x51fZOOKK1K8JV8TRpUmI8h+M+4y6jbS42ooUnwFO2NLfxkrcIts1ZlM5ncLnYPaW/eFvXEyn83zQXss1sOZIdT9XfOuC6aHbzHValMCFEHqbKfduuc1OlzYu1upFxilA0+Mcxswc31DRx1x1xbji1LWtRUpSjmVE7pJ4/iptxxpxDja1IWhQKVA5EEbhB0tnF2uU3YMVQGfG+Wdp9I53Hpb91UK4o/VabLClgAuMr9y6jwp75VRqcCmRHZc6ShhhvdWs5DwDlOl1YxvvbONb6CyjjluAFZ5idJMqTKeW/JfcedWc1uLUVKUe6Ttn4ujyZMV5D8d9xp1BzS4hRSpJ7hG2NLVxlkNBES4Wy+jiltjJY56dKbUqfU4jUyDKQ+wvsVIP8AQ8mmXfGvDFCk0IriwdjNnjMEA5tNK5HDpXbjq9fl+yajKU4RnsEbiGweJA+MqFcdXoEsSqdKU0o5bNO6hYHEsaWdilSa2Gok7YwZ5AG2cmnVfwHviVWr02kRFy6hKQwynjWdtR3ckjdJ0vHFSpVnqkSl7OFB+x5znEbg+NrNxUqdFLcSqbObB+15vmk6UqrU2rwkTKfKQ+yrjSdtJ3clDdB74N437SrXa6mr3+csZtx0+ks8Q0uC5avcMz2VUZJWRmG0DabbB4kD44oFyVi3pnsqnSS2TkHEHbbcA4ljSzb+pN0NdSRlGnIHu2Fn+qDxjvf3zis1CK6fQHUPP7jsvaUhHcb5To888+6t15xTji1FS1qJKlKO6STun46aedYdbdacUhxCgpC0khSVDcII3DpYmKzU0op1fcbafyAamdihzuOch73j77Udlx951LbTaSpa1nJKUjdJPENL9xPdq6HabRytmCdp17cW/wD+kfH1g4ovUdLFMrBW9AGSW3t1cdP/AMp0YfZkMtvMupcacSFIWg7JKknbBBG6O9zPnwqbDfmTZCWY7KdktatwaXziHNuVZisBUenJVtNcbuW4pz5gWLiHOtlwRXwt+nLVttcbXKpvSBUIdShsTIUhL0d5OyQtO4R3t6jU4dJhPzpr6WmGhmpav7DlJ4tL3viddM3jZgMqzYY/5r5V/MKx75n2rN43oDys34//ADRyL0ptRgVWCxOgyEvMOjNKx/Y90cfe1qNRhUuC/Omvpajsp2S1q/sOUniGl73tNumfxswWSfY7H/NfKv5iWPe861Z+Y2TsF1Q6ux/zRyK0p1Sh1OAxMgvpdjvJ2SVp/seQjjHezly48OM9JkuJbZaSVLWo5BKRx6X3fEu6Z2xRsmqewo9QYPSL5V/MaxL5l2tPyXsnqe8odXY/ERyL0hy402KxKjOh1l5AW2sbhSe9itSUoKlEJSkZknaAA0xHv56vyl06CsopjC/vC0/tn5kYc4gO29JTAnrKqY8vwlhR/bTolSVJSpJBBGYIOYIPewxWvxTjjtApj3vSdqa8g9mrja+ZWFN+racaoFTfzaVtQnVHsVcTXevxNvb8wwfzfCX/ANQlIO2DtsN/L53zMwyvcV+B+bpzh9nxEDbJ232/l87vW3XckS26O/UHxs19gy1nkXHDuDSpVGXU58mdLdLj76ytaj/YcgHENbRLRuKvNOu0ynLfbbVsVLzShOy5M1kaHCm/P3N9j7PraSMN72jpKl0N48xSHPQJ0mUypQFBMyFIjqO4HW1N+kPiyLCmTHOpxYzr7mXYNoKz9idIeHt5zEBbdDkJ8bkz0hGgwqvnjpQT4X2vW0qOHl4U2I9Lk0lYZaSVLWhxtzJI48kEnW02oy6ZPjTojpbfYWFoUP7HlB4xpatyRLlo0eoMDYL7B9rdLbg3R3q3nWo7Lr77qW2m0la1qOSUpSMySeQaX1dbtzVpbySREYzbio/g+We6rXWhRRQ7cplPO04hrZO+NX7tX5VJStJSpIUCNsEZjSpYf2bUUAO0Zltfy2B1D0NK1ggdtVGqmfI1J9dGldtC46CpQqNNdbbH+cBs2v5x8TUmg1msu9Sp0B6QdwlCfcjnK3BpRMFKg7sHKxPRHHGyz7telKw0s2mgZU0SXAMi5JPVc/qO1oxHYjNpaYZQ02kAJQhISkAcgH5VpQ4hSFpCkqBBB3CDpcdIXRa5UacrPKO+pKCogko3UKOXKNbYl2O2zWkPKJMN/JuUj+D5fORoy61IZafZdS404hK0LSc0qSoZgg96rF68CkC3oThBOS5ix0Wuw+pAq120plYJabd6u5zWfddepKVgpUAQRkQRtHS4cLLWrCVLjs/m+TxLYACCe63pcuG9x0HqrpY9lRE5nq7GZAHKtO6n4it2y7huJaTBhnqPHIc9w0NKBhBQYGxdqa1T3xxbaGdI0aPFZQxHZQ00gZJbQkJSkDkA6/G2kdRqdMqiAcpLJac57WuwgvErBt2Y4SdtcNR6LvU3jcjNt0KTOVkXiNhHbP7bqtzSTIelSHpD6yt11aluLO6pSzmTrsEKXm/WKotHYIRHaVzjs16q58Nbbr4ceQz7CmH/AD2RtKPKtG4dLosOv20sqks9Vi8Uprbb/wBXyddt8mm3yabfJrqDbVZuCUWKbEU7ll1Re4hsHjUrS1sJKPTAh+rFM+T8jLJhHr6NoQ2hKUJCUpGQSBkABqcV6aJ9my1pQS5EcQ+PQOujSHoshmQwsodaWlbaxupUg5g6WdcjFyUKNPQQHuwkN/IdT3qMRrqNw15wMuBUKIVNRuRXynP9evwlgoi2XFdyIXKfeePRj0dWpKVpKVJCgRkQRmCDpdeENMqWzlUUiFJ42f8AIV6mlWo1To0xcOoxFsPpGexVxjlSRtEdYlKlKCUgkk5ADdOekGzLrnqAj0SYcxmFKbLaf5l5DSHhBeUhObrMaL414HowvSNgXOLYMquMtL4w2yXB/Uo0YwSoSUASKpNcVxlAQjRjCGy2QAtqS/3VveplozhjYrJJFFCuc86f7q0bsaz2xtW/CPOb2WntPtIblvU/7ujQWVanHQKd91b0NoWn2u077sjR2yrNWN70H6mgNHsN7He7KhtjmOOI9EjR7Cax1dhDeRzXl/8AI6O4KWyrPqdQno8Kmzo/gZtrLFf5oWx/6XpJwZuxkLLLkJ/kCHSFH+caTsPrygpzeock+KAe6Mq0kRZMV0tSGHGnBuoWkpI+o9YxHfkvIZYZW66s5IQhJUpR5ABpaWDzqyiVcRKE8UNB6RY0hQYcCM3Ghxm2GUD3KG0hCR9Q1dVhIqFLqEJZOUiM60f9actCMiQddhtdhtyvt9WXlClkNSe58lz/AE6Z96bFa5zRqGILCymXPzRzGv2zrxpakYxbYoLKk7BSYLGyTuEKKQTrazRKTW4aolQhofaJzTstpSSONJG4dK5gxWmJ6BR3kSYi+N1YQtrn6UzA93JC6pWEJ+W1HR/Za9KdhZZkENkwFyXE/tPuFf8AQZJ0h02nQGw3DgsR0DiabCPRHAn48eS0pqQw262oEFK0hQOfcOlQw7sueSV0Rpo5HIsEs+gQNKpgfTlHOnVd5n+B9Ac9HYaJwZuoTWGVuxAwvbXIS4SEaWvZdEtpjKIxs5BGS5Tm24rPiHINddMYxLlrTBTkETnwB3NmctfhTdJrNC9gSnM5VPyR3VtHsVd6V55lhl195wNtNoK3FqOQSlIzJOl23A9cNdmVBeYQtWxZQf2Gk9iNekEkAcejaQhptA3EpAHxMDr8Tmw3fNbH8bZ+1pJ19pXA7b1dh1BGZQhWxeQP22ldkNGHmZDLT7LgW04gLQtJzCkqGYI70mMNyewKS1RmHMn52273GU+seAUttDtShNrGaVvtpI5QVD42xcYDV8T1A/8AcaYV9iAjgGDlyidSXqM+5m/C22s+Nk+oe9G4tDTa3HFBKEJKlE7gA3TpddfduCvTqivMIcXkyk/sNJ2kjgFHOVWp5PFJa9MfG2LjoXe01GWXUmWEfajPgFpV52gV+BUEk7BDmTwHG0vaXo24hxtDjawpK0hSSNwg7h70WLlwfmu3fYDSvf6got+BlPZ8BQSlQI4jolWyQhXEUg/b8a4oKCr6rRHEpofY0kcBwkuH86W4YDys36cQ34WVdh3osR67+erqmrSc2Yx9jM+Bo8BGlsy/Zlt0SStWyW7BYUs90oGfxrd0szLorj5OeznPZc1KiBwHDevGi3VCWTkzJPsZ7mun1u9De9c/Mds1GYlzYPlHUo/jXNoEcDwnnolWVFb2RK4jzrJ+3Zj0vjSqzUU+mT5zgJRGjuOkD+BJOiiSSTund4FZFcFdtimzFubN9KOpP+Nb2iT3nzpjXWw7Op9Hac2mEdXf569pPA8EqrsZVVpS1bTjaH2h3Ue5X8aYs1T2BZ77SSQ5NeQwPTVwPBOulmbUaM45kmQjqzPPRtK7z61pQlSlHJKRmTyAaXJV11qu1GpKzykPFSAeJG4gfUOB4asVRy8KY5T0AllZW8TuJZ7BfxpjfHqhlUh8t5wENLQhY4nlnNQPA7arC6JXqbUkZ/4d8KUBxo3Fj6wdEqSpIUk5pIzB5Qe89iTVxSrOqRBHVZSRGR/+XgdPp8ypTWIUNlTr7ywhtCd0k6WhakK2KWmKwAt9zJUl/jcX6o4h8aVKnw6nCkQprCXY7yditB0vG1ZVsVdyI4FKjr93GeI2nEesOPgeG1X/ADrZ1NJI2cUexljxW0O89jdVs5dKpKCcm2jId5CV7SeB4V2WKRTxV5rRE6Wj3CFf5TPrL+NrwtiJc1FchPHYvJOzjuj/AC3NJsOTBlvxJTKmn2VlDiDupI4FgjVspVVpS17TiEyGh3Ue4X3nr9qhql21h/8AZS+WUc1n3HAsMrSFerYflM7OBDyW6CM0uL4m/jjGK0urMIuGGx7tvJEzIbqNxLnArBqppd3UaRnklT4ZXzXvcd52uT/zbRqlO3THjOuAcpQkkDRRJUSSSScyTwFppx1xDbaFLWtQSlKRmVE7gA0s+3m7doEOAkAu5dUkLH7Tq+y+OJEdmUw9HfbDjTrakLQrcKVDIg6XVQHrers2muZlLa82l/LaVtpVwFJKVApJBBzBG6CNKJP/ADlRaZOyAMmM24RyFacz3nMXpwiWa61xzJLTP8p6qfR4FhFbyancCp7yApinAODuvL7D46xkt4TKQxWWW/foWSHu6ys8CwiqAlWayzxxJLzR6Qen3nMb6gC/RqeHNtKHH1o5+SU8Cw4oYo1pwULQQ/K/xL3hcG0PjqdCYnwpUR9GyafaW2sdxYyOlTgP02oTIL4ydjvLbX4UHLMdw8BwNn5P1qnFzs2230J5pKVHvOYtzVSb1mNcUVpllPpn0uA2tSTWbhpdPyzS8+kOcxPul/0GgAAAAyA+O8ZaQIlyMz0JyROYBPjGskHgOEk9US9YbYAIlMvMn7NmPR7zl2y1TLmrb6lZ7Ka9lzQogcBwVpgfrk+eoAiJHCU9xbx+PMZKYZVqtTAE5wpSVHmOe44DaUtUO56I+lWWxms581SgD3m5L6I8WQ+sgJaaWsnuJGehOZJJ4DgzBLFrypKkAGVMVkeVDQCfjy7IAqNs1qIEBS3IjhQP40jZJ4Ck5EEHSM8h+NHfQQUutIWD3FDPvNXm8GrRuBX/ANg8n+dJTwLD6GIll0Nv5UfqvniV6H47IBBB3DpUohhVCZEKtkWH3GidzPYKKeA2Y8HrRt5QO5AZT/IkJ7zWKaiixasflKYR9rqeBUSKmHRKTFBz6jDYb/kQBofjy943sa7q83mfhrq/OHZ8BwtcKrEpO3uF9P2OnvNYySVs2e2gAZPzmkH6gV8BG7ogBKEJHEkD49xOTsb6rY/ja6JPAcHJJes9bZy94nOoH1gL7zWNu1bNNHyqh6La+BDcHx7ilv8AK34WOhRwHBNedsVFHJUT0ae81jmsJpFFbHHJWr7EcBGiTmAe4Pj3FHf3W+cz0KeA4Hu/9FrTXJKQe81jntQbf7rr/ARpHUFx2Fg57JtJ+0fHuJKtne9c8elP8qAOA4Gq/wADXk8jzHeax1QBCt/xr/ArdkGVb1EfPZOwI6z3CUA6H48vJ9T9119ajt+z30/UhZTwHAwZQq+eVxjvNY4ozpFGXyS3PQ4FYUhMmzKC4lWeUVLfmvcaH48q0pM2qT5Sc8n5Drgz5FqJ4DgegCj1lXLKR/RPeaxtANt05XJPHRr4FhJLbfsqM0k7caQ+2r61bP48qktMGlVGYs7UeM66f9CSdDwHBMAWzUVctQPRo7zWMkZT1oNuDcYnNLP1go4FgfOC6ZW4XG0+0750Zf8AD48xFlmHZNbd+WyGfPKCOBYOxyxZyl5/CJrrn2AI7zWKaCuxKttbimFfY6ngWDM/qFzSIpcyEqIsBPKtsg/HmNU4M29T4YcyXJmbPLlQyngWFqSixKT3S+v7XVd5q9GQ9aNwp5IDy/5ElXArOqf5ruijzCQlCJKUrJ4kOe4V/Q/HmNNRD9ww4KVAiJFBVz3jmeBWY0GbRt5I/d7Kv507LvNSWUSIshhYBS60tBHcUMtCMjlwEaWvVfzvbtKn7IKU9GSXCNwLT7lY+0fHROW2dLqq354uKq1DPND0hZb5idpH9BwEDM5DSMymPGYYSAEtNoQB3EjLvN3ZFVDuatsKTlsZr+XNKiRwLBWsh+k1Ckrc93GdDrfMd+Or+rAo1p1ORsyl11osMZHI7N3a2tDwG0oqpdz0RhKc9lNYz5qVAnvOYtQTEvWaviktMvD7Nh/dPAsPq8KFdUCS45sGHSWH+Y78dY013q06FRm17UcF57nr2kjgWEcL2TekR3iisvPH0B6XecxxgBMmizw32bbrC18whaRwPD+4hX7YiPuLzkse8P8APRx/WPjifNj0+FKmyFZMx2lOOHkSgZnSsVN+rVSbUHyeqSHlOEE55ZnaSO4NwcCwOgDq9ZqJRtpQ2whXOJUod5zF6AJdnOvccOS06OiPpcDwsub8y3EiO8vKLPyZX3HP2F/HGM9yhuLGoLC/dvZPyuYOwRwPCGAIlmsvccyS68eiHo95yt08VKi1SBnkqRFdbSeQrSQNFAhRBBBByIPFlwPDa7DcVBCH3AZ0PJp/lWOJfxtXazDodKl1KUT1NlGeQ3VqO0Ejuk6VWpyqrUZc+WvZPSHCtf8A6GfEBtAcCSFKUAkEknIAbpJ0okD820amQCczGjNNE8pQMie87ftKNLu6sx/2S+XkbWXuHvd8DtS45Vt1qNUWNtI9w83xONK7JOlOqEOpwY06G8HWH0bJCh/Y8hHH8aHc0xPvIV6piFDdCqfDWQlSTtPOca+B2BSjVbvo0fI7BMgPL5rPu+89jdSCiZSashJydaLDnhRtp4JhpfS6FMFOnO/9NkL8wv5WgIUAQQQdsHw/GeKt9+w2naBT1gvuoylu/IQf2B3TwTBGlEyatVVoOSEJjNnur92vvPYl0dFVs+pbQ6rEAlNnxW7wXDTEj2B1GiVl7/CbkaSv/J5EL/g+MsRMQmqAyunU9aV1RwbZ3RGB4z/Ho66484txxalrWoqUpRzKid0k8Z4JhvSRS7PpiSB1SSgyXO6Xdsd55SUrSpKhmlQyI5QdLipK6NXKjTlg+8PqSnPdUjdQr6xwXDrE1dNDVHrLpMPaSw+dss9xXKjRp1t9pDrTiVtuJCkLSc0kHcIPGPi+/cTI1HQ/TqQ6l2o5lC3d1DH/ALXo686864664pbi1FS1qOalKO2SSd08EtukLrVdp1OTnk+8AsjiQNtZ+oDRKUoSEpGQAyA7zx0xronUp8CstNZJkI6i9z29tPBrJxGqlsKRGczk04rzUwTtt57paOlDr9Jr0FMynSg6g7SxuLQfkqG6PiyTKjw2HZEh5DTLac1uLOxSkd06Xniy/MDsGglbDBBC5R2nF8z5A4NgpROqzahWXEbTCOoMc9e2vvQXxQ/z7a9ShhvZvJR1Zjxre2AOD0qsVOjy0y6dLXHfSMgpPGOQg7RGlp4wU2cGotcSIj+4Hk59QV6miHEOIQtCwpKhmFA5gg8nxTdGJVv0DqjKHRNmjMdQZO0k/wAa9LlvGuXK8FT5HvSTm2wjaaRweyKH+YrZp0Mo2DxR1V/xrm2e9DiRQTRLrmtpGTMk+yWea7qY0WTLeQxGYcedX2LbaStSvAE6RcMr2lJQtNHUhKuN1xDf9Cc9Bg7eZTn1KJ58aTMM72iBSl0da0jjaWhz+iTnpLhTITvUZUZ1hzLPYOoKFZHuK1du3rcVuKHsCYeo8cdz3bR0oGMNBn9TZqba4Dx/b7NnRiRHksofjvIdaWM0LQoKSQeMEaZfEZIAJJ2hx6V/E216KVNCQZkkbrUfJQHOXpcmJ1x1vZstu+wop/ymTtnnL4RhtQDWrqhBac48UiS8e43uDvRYuW9+c7dE9lOb9OJWfEns9ThTTKbFtKFMjtpL8suKfd4yULKQnrJ1PgVCOY82IzIaP7DqAsf10uXBiE+lT9BfMdz/AOmeJU0eavSq0ipUeYuHUIq476BmUKHFyjiI1dJrtXo7/VqdOejr49graVzk7h0omNdTYKEVeC3JRtAute9uaUjEuzqmkf8AURFd+RJHUv69jo24262lba0rSoZgpOYOfdHDswNKre9qUhRTLq7OzByLTR6qsHkIRpWMbUZFFHpZ8bK9RGldvK5K8VCoVJ1bROfUU+4a/lTwrCS3jS7d9nOpyfqJDngaT2HeidaafacZebC23ElC0K2woKGRB0uugu29Xp1OXmUNrzZWf22lbaTqMMb6TQ5RptReIpz6s0q/8LnqnRKkrSlSVBSVDMEHMEHra/b1JuCAqHUI+zGR2Dg2ltq5UHS9LGqdqS0h73+I4cmZKU5AnkPIrW0+r1SmOFyBOfjKJBJaWUZ5coG7pT8XbyiDJ59iX49r1NhpBxxhK2p9EdR3WXQv+istIOK1lSw3s5zkZauJ5pX905jSJcdvTV7CLWYTy8s9ih5JOgIIBB4LMrNIgjOXUorHjHUo/vpNxKsqGSlVXS6rLcZQtz+oGWk7G6kNgiDSZL55XVhkf02elSxlueTsxDZiw0cRCC4sfWvSp3LX6rsxOqkl9CsiW1LOw/kG1wy0qC5X6/Bp6Qdgtebx+S0jbXohCW0IbQkJQhISkDcAG0B3o8YraE+kM1mO1m/B9w/3WVeqdTZOJNStvKHIBlU4n/tE7bXdb0olxUSvRQ/TJiXvlo3Ft89J2x1tQp0KpwpEKcwl6O8nYrQrS+LJmWtP43YDyj1B/wD4L5F8Az0iVGowiTEmvsHjLTikeidMNqPdLcUVKt1easPpzZiOuqXkn5a9nwK9qNXqnS1qodUkRZTQJDba9gl8fJ2W6lWlRqlbkKcYqE6Y4pCylbb7i1FKknbBCztEfEOD1tmBSXaw+3k/O2muVLA9c96R5hmQw6w+2HGnUFC0KGaVJUMiDpdlvvW9XZlOXmUIVsmVn9tpW2lWpp1Tn0uW3LgynGH2zmlaDkdr+47mlhYixblSIUsIj1JCcwP2XwN0o62s0iDWabJp8xGzZeTl3UniUnkKeLS5remW5WJFNlbZRttuAZBxB3FDgGFtlorc5VTnMhcCIvIIO469uhPBMXbKS80u4YKPfGgBMbSN1PE78QWhbrtx12LATmGySt9Y3UNI3dGGWWGW2GW0ttNoCEITtBKUjIADvS4r2wazQ0zozecyBmrns/tjVMPvRnmn2HVNutrCkLSclJUNwg8ulg3vGumnBt1QRUo4HV2uJQ/8iOtxCtFFy0Qhkf46Lm5G5V8rei0LQtSFJKVJORBGRBGuplOlVOoRYMVGyekOpbQO6o7p7g4zpRaTFo1Lh06MPe2GwnPjUeNR7pPBHEIcQttaQpCklKkkZgg7o0va3DblxS4Iz6gffY55Wl7nD8KrWNGofs2S3lLn5LIO6hr9hPemy4jpiNairdrznUkZQpZU7G7nym/9OqoFcnUGqxajDWQ40rbTxLTxoV3DpQ6zCrtKi1KGT1J5G2FdklQ2ik90dbi3ZhhS116Ej/DSXMpKANpt0/t81euwVoIenzqy83mmMnqLHjF9lwbGKhezaAzU20ZuwXPd+Kd4dhvantirqS+jOFDydf8A4vkt6Zd6e87aYuWgvwVZB9PvkZfyXU6SY70WQ9HfQUOtLUhxB3UqQciNVhZd66HWBAfc/wAFOWlJ5G3dxK+tkx48uO9GkMpcZdQULQoZgpO6NL6smZa1RIGydgPE+x3z6C/49bhzSk0yz6UjIbN9v2S4eUvbY4NUoDVRp02E8SG5LC2iRu5LBGY0kx3Ysl6O8nYuNOKQtPIpByI4ZGjPypLMdhBW684lDaBuqUs5AaWdbbNt0ONARkXuzkL+W6rd71OMFnFY9scJrkRMQnpdXhlc5r1voafczmwsmnuVaf2F9bU6ZBqkCRBnRw8y8nJST/cHiI0vawana8lTgSt+nrObUkei5q6ZDVPqMKGk5GQ+20D3XFBOiEJQhCE7QSAAO4OD4nU72BelWCW9ih9aX0d3qqcyeGYQ2eUA3DMbIJBRDSel71IOj7TT7DrDzSXGnEFC0KGYUlQyII0vq03rZrTjABMR7NcVf8HyD3U6qxrkVblxRJpUQwslqT4pfq7uiVJUlKkkEEAg8Rz619lmQ04y+0hxpxJSttYCkqSd0EHdGl3YOhwuTLdIBOZMNZ6JWk+mz6bJVGmxXWHk7qHElJy5RqGmnXnENNIUtxaglKUjMkncAGmH+HlwordOqs+GI0VhYdyeOTi9o5ZI4RjfDLVcpkridhlvzSj6/C7EtN2560hlQIhsZOSl/wAHyOcrRlpqOy0ww0ltptIQhCRkEpSMgAOTvV3XbUS5aNIgPnYL7Jl3dLbg3DpUqdLpk+TBltlt9hZQtJ/uOUHiOqwqr4qtrsxXHM5FPPUVeL3Wz19RpNMqjAYqEFmS2DmA4kKyPKOTSsYLUGSVrps1+EriQv35saT8GLpYLhjPRJIG4AsoUf59HcM75bBzojp5q21f2VoMPL0/cUjRnC2+XVAfmcoHGVvNADSFgpX3V/4uoQ2EdwqdVpTMGLcjbBU6ZKmLG6naZbOlKoNFo7ewp1OYj5gAqQgbNQHylbp4TjrHzYoD43ErfR/PlwqmU6XVJ8aDEaK333AhCR/c8gHGdLUtuJbdHYp7B2a+zedyyLjh3T3rcTrITXoH5xgoP5wioPuQMy+38nnarC+4vzNcjTLq8o0/JhzuKPYK+KMbRnb1LPJO/DPCsMrI/MMEVGaj/qEpse4I22G/kc7vX4rWGtt16v01gdSVtzGkDsVcbuqw3u4XFROpvrzqEMBD/wDGP2XPifG3e3TvKA6NXCcKrDW641X6kx70jbhtL6XvYKSlSFJUAQRkQRmCDpiRYLtAlrqMFBXTH1+YUr9g6mgV2oUCqMVCC5sXWztj9laeNCu4dLeuGm3DTGp8F3NKtpxs9k0vjQr4mx03u0z6eOjVwjDqwHbgkCfPQUUtlfgL6x+wnRCUISlKUgBIySkDIADvYyoseZHejSWkuMuoKHEKGYKTpfljTLWnZp2TtPfWeoP/AIa+7qbbueq23O9lQHeyGTrSttDg5FDS071o1zxAqMsNSwnN6KtQK0esn4lxu3tUr6f+Grg9i2PMuidmrZNU9lQ6u/8Aho5V6Q4keDGYiRmktMsoCG0DcSkd7OpU+DU4L8GbHS8w+nYrQr+/cI4tL3siba079p6A6T1B/wD4L5FjUxpUmI+h+M+4y6g5ocQopUk9wjS2cZn0BuNX2C6kZASmQAr/AFo0pFco1aZ6rTagzIGQJSlXu057myTuj4jxwAFt0r6cOjPBrJsmddM7LbagtEdXf/4I5VaU2mwqZBYgwmEtMMp2KEp/ueUnjPe1qVNhVWC/CnR0vMOpyUg/3HIRxaXxY0+1ZvG9AeUQxI/4L5F6piQ/GdQ8w8tpxBzStCilQ8BGlJxWvGmoDa5aJjYAAElGz/qCDpTscIR2qjRXUd1hwL9PYaQ8WrJfbQXZj8YnidYWejChoxfVnvJBRX4Y569h6eibttMjfDTfvTentstXLfFTPvTehvK0kbarhp/1PpOj+JNkR9pdabPMQtz0RpLxgs9jLqRlyfFs5dIUaTccYYOUKhur7rrwR6IXph7fNQuuRVRJjMMtxkslsN555rzzzJ4Rjof+gUv6d+Grgtk2RPumbxswWle/v/8ABHKvSmUyFSoLEGCwGWGk5JSP7k8ZPe3nwIVShvwp0dLzDySlaFaX3h3NtlZlxyqRTVK2neNrPcS5wTAf4XXuYx/z4RjdvepX04+geCWRh/ULlfQ+6FMU1Kvdv8a8t1DelPp8KmwmIMJhDMdlOSEJ3B/7J4z3uXmGn2lsvNIcacSUrQtOySpJ2iCDujS/sLnKQh2p0YLdhDbeY3Vsf+0cDwL/AO/cPio/pK4RjhkKBSfph9A8DsPDF+shipVYKagEhSGtxb4/+EaMMMxmWmGG0ttNpCUIQMkpSNwAd7y/MKW6gt2pUNCGZRBLsTcQ73UcSVaPMvMOuNPNqbcQopWhYKVJUN0EHcPAcCVhMuveKY4RjhtUKkfSz6B4C00686hppCluLUEpQkZlSjtAAcZ0sXCluJsKhcDSHXd1qH2SEd13TLvfXfYNJuhnqrmceahOTclHorHGnS4rYrFuTfYtSjFBOewWNtDgHGg8AwKXsZle8QxwjHHaotH+lH0OAUK3qtX5qYlOjKdVmNmvcQ2DxrVxDSzsPqVbCA6cpVQ45Kk9h3GhxDvg1Ol06qwnYc+Mh9lzdSr+4O6DpeOFVSo4XMpWzmwuNOWbzevwMOU6u/R2fS4Rjh+p6P8ASl+hr7NwvqleDUuds4cAgEKI98dH8A0pFHplGiJiU6IhhkcQ3VH5SzxnviXjhhR691WXCyhTzmcwPe3VfxpGletqs2/L9jVKIpoknYL3UOAcaFa3Ak5VSs/Rm/S4Rjj+qKJ9Jd9HW0WgVauTExadFW8s9kf2EA8a1bgGloYV0yilqXUiibOBBH/haI9LvjzoEKoRXIs2M2+wvsm3E5g6XVg26gLlW86XU8cN1Q2Y5i9JUSTDfcjyWHGXkHJbbiShSfCDq8DTlVK13YiOEY4/q2h+Pe1bEd+S6hlhpbrizklCElSlE8QA0tXB6dJLUmvOGMzuiMjbdXzzuI0plJptIiJiU+I3HZTxIG6QMs1HdJ7p75Vftmh15jqNSgodIGSHNxxHgUNLowgrFNK36QTOjfI3H06OtOsuradbUhaFEKQoZFJG6COLU4HfrStfREenwjHXIQqF457UoQtxaUISVKUcgBtkk8Wls4SV6q7B+of4CMeJYzeUOZpb1n0C3WQmnxAHSMlSHPdur8Ku+dX7St+4WsqhBQp0DJL6PcOp8ChpcWDNWiBb9GfE1r/wryQ8NJUOXDfWxKjuMPI7JtxJQseEK6/AxtX5xrb3EiO0j+c8IxxiqNIo0jiRKWg+Fac+vYjvyXUMsMrddWckIQkqUo9wDS3sIK9PKHaooQGPkdm8dLfsu3beSkwYYL+W3Jd926e+lVaNSqvGMapQWpCOILG2M+MK3QdK/gpDd2b1EnFg8TD+a0fUvSuWbclB2Rn05xDQ/wA5Hu2v5k9Y20464httClrWoJSlIzJJ3ABph1a7tuUBDUhOUyQvqz4+RxBHCLvt9FxW9Npw2IeOS2FncS6jbTpMhyYUp6LKZU080soWhQ20kdZRrXr9cVlTqa8+njcy2KP51ZDShYKbaHa3UPCxH9dWlHtyiUNrqVMp7TAO6sDNxfOWds99Y5EZHSt4d2pWNkp2nJYeOfv0f3pWZ4zxHSXgYrZrVErYDfEHWdG8C5gPv9dZTzGSvS18PLftx0SWW1yJY3H3tso5gG0OFXTYtv3MAuW0pqSlOSZLW0vSbgbU29uJWI7njW1NetpEwOmko9mVthHyg00V+kU6UXDG0aUApUH2Y98uSeqfYjsdEJQhISlISkAAJAyAy0B//wBRmWmXfxqFeodLH/UKpFjbW0lx1KVHwDSbjDZUUe9PyZfcZZI6TY6TceIgOUOgOLT8p18I/oArSTjpXyR7FpUFrn7N3R3G2817iIKPAydFYw3yT8NY8wjT9L99cc9nzCNE4yXuD8IjeYGicbryG61A8yr1tGMdLmB9/ptPWjuBxB9M6MY9LGQdt1PORJ/9o0YxzttaQH6bPb5oQvSHipY8ohP526ko8TrS0aU+s0apZ+wanFk5boadS4R9nfqq1eo1FY6vUqgzGRkSNkfdK5qRtq0ruOMVrZt0Sml5XE/J2kfUgaVnEO76wSH6s622SfemPeUD+TQkkkk5k7p1oJBBB2xpSr5u2k/A61JCAANg4rqqPqS5mBpR8dJyClFYpTTyflxyWyBzTpQL8tev7BEKoJS+sfBnve3c+QA7vxWu8LTQsoXcNOSobRBkI0F5Wd2y07z6NBeVndstO8+jQXlZ3bLTvPo0F5Wd2y07z6NBeVndstO8+jQXlZ3bLTvPo09vNmnaNw0/7wjSNJjS2EPx5DbzKxmhxtQUlQ7hG7rJtRg09jq82WzGazy2bqw2nM8WatBeVndstO8+jQXlZ3bLTvPo0F5Wd2y07z6NBeVndstO8+jQXlZ3bLTvPo0F5Wd2y07z6NBeVndstO8+jSNdVszHm2I1dguurOSG0voKlE8QGfxFJkxojDj8l9tlpAzW44oJSkd0nQ3naHbFTvvCNBeVndstO8+jQXlZ3bLTvPo0F5Wd2y07z6NBeVndstO8+jQXlZ3bLTvPo0F5Wd2y07z6NG7wtFxYQm4admTkB7IRoDmMx886hUYFNiOSp0pthhHZLWchpdWNL7hcjW8z1JG57LdGajzEaTZ0yfIXJmSXH3l9k44oqUfrPBMLcQK89WYdBnvqmRnwsIW4c3WihJXpnqFrQ2kqWsJSkZlSjkBpMv8AsuF/36/FPcaJe6PZaM4o2E8oIFcQD/Gy8gfaUaU+tUaqBRp9Tiycssw06lZHDcUX3o1iVpxlZQVBpskfJccCSNTgNMfMW4IpWS02thxA5FOBQV6OsxwkvquSnRy4S03AC0I4gVrUDqbYkvyrbocl9wreegR1uLO6pSmwSfiHHiS+GLejBeTK1yVrRyqQEAHU4WSnn7EpBdWVqR1VAJ+QhZCR88ryvukWqxk8erTVpzZip3T3V8idLjumsXJNEmpP7LY5htpO021zBwbBKmeyLmlTlIBTCiKyPI47tai9cWoVHddgUhCJcxG0t0/9lr1jpWbkrtcc2dTqL0jbzCCckJ5qBtD8rTrrLiHGlqQtJzSpJyII4wdLWxdr9JU2xUlGoxP4z78kdxelCr1Kr9PbnU2SHWjtKG4tCuNKxxHheLG8Krc5jpkanADs7m8ET8TWY6b8Yvk1rpF6myzlaVveTIvRD4hx6G9jwTPw9ThHvCp3Pf6VXzxxBxGj2ygwoexfqa09jxMA8a9Js2XPlvS5b63n3VbJxxRzKjwfBCmdQt2dOKMly5WQPK2z1+K2ITkEu0ClOlL5TlMfG6gK/wApHX2rdVSteqImw1ZoOQfYJyS6jkOlFrEGtUuHUoatky+jZAHdB40q7o4VixvCq3OY6ZGpwA7O5vBE/E1mOm/GL5Na6Repss5Wlb3kyL0Q+IcehvY8Ez8PU4R7wqdz3+lV88MQL3YtWnAN5LqMkER2z0i+4NJUmRLkvSZDqnHnllbi1HMqUo5knhFk0782WlRIZQUkRULWDxLd92r+p666663QKBUKmoZqZb97T8pxe0gaSJD0l96Q+4VuurUtxZ3VKWcyTqMFrkVFqz9CeX7zNzcZ7jyBwrFjeFVucx0yNTgB2dzeCJ+JrMdN+MXya10i9TZZytK3vJkXoh8Q49Dex4Jn4epwj3hU7nv9Kr531+twqDSZVSmKPUmE7g3VqO0EDuk6V+uT6/VZNRmrzcdVtJ4m08SE9wcIoFNNVrdLp+RIkymm1ZfJUrb0SAAAOux0qK0QqLThuPOuPr//ABAAenqaRUHKZVYE9vPZRpDboAOWewIOWiVBSUkHaIBH19e/XKFGeUzKrEJhxI223H0IV9ijp7a7X7YKb96b09tdr9sFN+9N6e2u1+2Cm/em9PbXa/bBTfvTentrtftgpv3pvT212v2wU3703p7a7X7YKb96b0h1CBObLkOYxIQDkS04FgHwg6rFjeFVucx0yNTgB2dzeCJ+JrMcN90Tya10i9TZZytK3vJkXoh8Q49Dex4Jn4epwj3hU7nv9Kr534tXaazWjTIzhMKnrKOe/uKVwnByney7yaf4oUd178IenoetGmOrizc1MRxCnDpV6qhOKcoVIcc7NcJgkchKBn17rjjri3HFlS1qKlKO6Sd06jA5xYuucjMhJprnSI1WLG8Krc5jpkanADs7m8ET8TWY4b7onk1rpF6myzlaVveTIvRD4hx6G9jwTPw9ThHvCp3Pf6VXztz0xEuc27bUl5peUuR7xG5691f+ka6nWtclTCFQqNLeQvccDSth/MdrSJhHfT6sl01DA5XXkf2QSdE4IXcRty6YPC6v1NP0G3Px1GnfzuepovAy6uKfTfrW56misELuA2pdN86v1NH8Hr5a7CEw/wCLfRpLw7vaIM3KDJV4rJ7oydJlOqEFYRMhPx1HcDrakH+o6zAqndTplZqPG8+hgeBoZn09D1o0x5gFEmhTQjs2nWVHUsMuvvNMtIK3HFhCEjdKlHIDRhpLEdhhHYtNpQnwJGWvwL34y/JjvSI1WLG8Krc5jpkanADs7m8ET8TWY4b7onk1rpF6myzlaVveTIvRD4hx6G9jwTPw9ThHvCp3Pf6VXzuxZuE1e6XYrS849OBYRz91w6um0uo1WWiJT4jsh9W4htOZA3MzyDu6W9gitQQ9XZ+x5Y8f/wCVnSkWfbFFCfYFIjtrG46odUc/nXmdStKVApUAQd0Hb0qdiWdVAr2RQowUTmVtJ6iv7W8tKvgdTXc10qpvMH5D4DqdJuEt7xn+pNwG5KeJxl5Gx/8A3KTpZVAct22oFNdWhbyNmt1aNwrWSrr8TqAquWlNQwgqfiESWRxko1OFNAXV7rjPqRnHge/uc4dgOAYH77Zfk1zpEarFjeFVucx0yNTgB2dzeCJ+JrMcN90Tya10i9TZZytK3vJkXoh8Q49Dex4Jn4epwj3hU7nv9Kr523XWUUK3anUj2TDJ6n3XV+5QPtOilKWpSlKJUo5kk5kk6qx7AqV0yQ4QqPTkH32SfQb5TpQbepFvwxFpkVLKP2jurcPKtXB8ULJXbtWMyKzlTZqipvIbTS+Nvr2GHpDzTDDanHXFBCEIGalKO0ABxnSw7SbtehtxV7FUt49UlODjXxJHcRwDA/fdL8mu9I3qsWN4VW5zHTI1OAHZ3N4In4msxw33RPJrXSL1NlnK0re8mReiHxDj0N7Hgmfh6nCPeFTue/0qvnYNMc6zsI1JpCF7bqlSXh3Ee4RqrAsiTdNSzcBbp0dQMh38NHdOkKJGhRmYsZlLTLSAlCEjIJA4RUadCqcGTCnR0vx3k7Fbatw/+iOIjS9cLqtbynZUILmU4ZkrA92z4wdbSKLVa1LEWmw3JDp4kjaSOVRO0BpYeG0K2MpspaZNTKMtn+wyDxN8BwQ33S/JrvSI1WLG8Krc5jpkanADs7m8ET8TWY4b7onk1rpF6myzlaVveTIvRD4hx6G9jwTPw9ThHvCp3Pf6VXzsGmJ1XNVvWqrC824y/YzfcDO0dTSqZMq1Ri0+IjZPyHAhA4u6T3BpbtBhUCkxabDB2DQ90rjcWeyWeF17Da0K2px12B7GfXtl6N72dJeAyc1KiXBkjiS4xojAefn77XWU81kq0pWCVuxCldRmyJyuNAyYb0ptJptKjCNAhtRmR+y2nLM8p5TwLAvfjK8mu9IjVYsbwqtzmOmRqcAOzubwRPxNZjhvuieTWukXqbLOVpW95Mi9EPiHHob2PBM/D1OEe8Knc9/pVfOypzWqfTp01zsI0dx5XgbSVaPPOvvOPOrK3HFFa1HdKlHMnU4KW0EtSq++jbXmxF/5q+MsC9+Mrya70iNDqcWN4VW5zHTI1OAHZ3N4In4msxw32xPJrfSL1NlnK0re8mReiHxDj0N7Hgmfh6nCPeFTue/0qvyH51Yp1EwbHquxUAt/qbAPjFbepjx3pMhmOygrddWlDaRuqUs5AaUKksUakQKcyBsIzKUZgZbI8avCo8Keu21oz7jMiuwW3EHJSC+gEHT27Wf2x07z6dPbtZ/bHTvPp09u1n9sdO8+nT27Wf2x07z6dPbtZ/bHTvPp09u1n9sdO8+nT27Wf2x07z6dIUyHOjpkxJTT7CswlxpYWkkboBTwDCCr02k3S+/UJjUZpcB1sLdOSdmVJOnt1s/tjp3n06e3az+2OnefTp7drP7Y6d59Ont2s/tjp3n06e3az+2OnefTpTrioFSeUzBq8SQ6E59TaeSpeXWYsbwqtzmOmRqcAOzubwRPxNZjhvuieTWukc1NlnK0re8mReiHWSq3RYbpZlVWGw5xodfQhW33CdPbXa/bBTfvTentrtftgpv3pvT212v2wU3703p7a7X7YKb96b09tdr9sFN+9N6e2u1+2Cm/em9PbXa/bBTfvTekWZDmNB6JKZfbJI2bSwsbXdGpk12hxHVMyaxCZdTutuPoQofUTp7a7X7YKb96b09tdr9sFN+9N6e2u1+2Cm/em9PbXa/bBTfvTentrtftgpv3pvT212v2wU3703p7a7X7YKb96b0adbeQlxpxK0KAKVJOYIPIR1mPQ3seCZ+HqcI94VO57/Sq/JWrmoFDRnUqmywcswgnNw+BAzOlWxwozGaKZTX5SvlukMo0qOMt4SsxGMWGOVtrZ9JnpLvi75i9m9X53gbdLQ+xvLSRVanK+ET5L3PdUr+502a9lstmdly57ekeq1SL8GqElnxbqkf2OkO+7xhHNmvzD41wvdJnpTMaLsilAloizUcZWjYL+1vSh4z2zOKEVBl6A751rSJMiTWESIkhp9lfYuNqC0n6x84MdZoRSKNC43pS3vNIy/56nCakpqd6QisJKIaFyiDyo2k/Yo8KxAnyafZ1akx1lDoZCErG0R1VQQSNTgTJe6rX42zPUtgw4EdZUKzSKYAqfUo0YHPLqrqUE+AHSpYw2ZC2mHpM1XIy1l0mw0qWOdRWCKdR2Gv431l30dhpVcRbyqiVofrDqGlfsM5M+hr6BJei1ylPsrKHG5TRSRzusxY3hVbnMdMjU4Adnc3gifiazHDfdE8mtdI5qbLOVpW95Mi9EPy1uU7DotVltZdUjxHnUeFCSRo666864664pbi1FS1qOalKO2STxnUYOT5Me8mIzbhDMth5DqOI7BBWND191yn4Vr1yVHWUPNQnlNrG6lQTujQnPbOowImSSivRC6eoo6g6hHItWYPWY9Dex4Jn4epszEC3basOntSpBdlBx/KK1tubbmlw4uXPVtm1DWKdHPEyc3frc0Wtbi1LWoqUo5qUTmSTxnVUS4KxQZYlU2YtheY2QBzQvuLTuEaWVixTa4pmDVEohTlEBB/yXj838dJZXX6VE4mYOz+t1ZB9DU4E07KLW6if23G2EHmArVwrE/eJXOY10qdTgP8ADbg8Qx+XGa56tTnKbTIEp2Ml5pTry21FClcQGilKWpSlKJUo5kk5kk8CpP60p/0lr0usxY3hVbnMdMjU4AkBdzeCJ+JrMcN90Tya10jmpss5Wlb3kyL0Q/LdG9mu+T5PRnU4Sb/KXzJPQq0PX34gJsyv/QXvQ1OA3wi4vFRusx6G9jwTPw+D4cYouMLZo9dkZsnJEeYvdb/gd+b2L8sv3zOb4ozLDQ/kC9ThHDRGsaAsJyMh595X8+w/snhWKO8WucxrpUanAf4bcHiGPy46/r2j/QT0h4HSf1pT/pLXpdZixvCq3OY6ZGpgVWqU1TioFQkxSsALLLqmyoDl2JGntuuvtiqf3t31tPbddfbFU/vbvrae266+2Kp/e3fW09t119sVT+9u+tp7brr7Yqn97d9bT23XX2xVP72762ntuuvtiqf3t31tPbddfbFU/vbvrae266+2Kp/e3fW09t119sVT+9u+tp7brr7Yqn97d9bSbPnT3urzZb0h3IDqjyy4rLiGatTZZytK3vJkXoh+W6N7Nd8nyejOpwk3+UvmSehVqL8QE2ZX/oL3oanAb4RcXio3WY9Dex4Jn4fCMJL5NSZFCqT2cphGcVxR23W07qOcn5u4jyBIvivLB3JGw82kI1NmsiNaFusgZH2AwpQ7qkA6hy87RZWptdfgBadojq6dPbvZ3bHT/PDT272d2x0/zw09u9ndsdP88NPbvZ3bHT/PDT272d2x0/zw09u9ndsdP88NPbvZ3bHT/PDT272d2x0/zw09u9ndsdP88NPbvZ3bHT/PDT272d2x0/zw09u9ndsdP88NBe9m9sMDzydGH2JLDT8d5t1pxOyQ4hQWlQPGCOsxR3i1zmNdKjU4D/Dbg8Qx+XHX9e0f6CekPA6T+tKf9Ja9LrMWN4VW5zHTI4dZZytK3vJkXoh+W6N7Nd8nyejOpwk3+UvmSehVqL8QE2ZX/oL3oanAb4RcXio3WY9Dex4Jn4fCIM2VAmR5kV0tPsLC21jdBGlr16PcNChVNkBJdRk438hxO0pPzcu1RXdVwq5alK6Q6mCyGIcVkAZNstoH+lIHX4jSX4tkV51leSiwG/qdUEHX4HPvLtupMrWShqb7gHizSOsxR3i1zmNdKjU4D/Dbg8Qx+XHX9e0f6CekPA6T+tKf9Ja9LrMWN4VW5zHTI4dZZytK3vJkXoh+W6N7Nd8nyejOpwk3+UvmSehVqL8QE2ZX/oL3oanAb4RcXio3WY9Dex4Jn4fCcFbiMWrv0R5fvM0FxnuPN/NyvudVrtXc+XNfP2rOoQgrWlA3VEAaAdfibvCr/MZ6VOvwK/UNX+mD0B1mKO8WucxrpUanAf4bcHiGPy46/r2j/QT0h4HSf1pT/pLXpdZixvCq3OY6ZHDrLOVpW95Mi9EPy3RvZrvk+T0Z1OEm/wApfMk9CrUX4gJsyv8A0F70NTgP8Kr/ADI/WY9Dex4Jn4fCabPfptQhzmDk7GeQ6julBzyOkKXHnQIcxhebchlDqOasZj5t1JWzqM1XK+4ftVqKcnZVCGnlfbH2q1GKG8at8xrpU6/Ar9Q1f6YPQHWYo7xa5zGulRqcB/htweIY/LjpFfFTo8ooPUVR1thXdB4HQIz0uuUqOygqccltAAc7rMWN4VW5zHTI4dZZytK3vJkXoh+W6N7Nd8nyejOpwk3+UvmSehVqL8QE2ZX/AKC96GpwH+FV/mR+sx6G9jwTPw9VQbGuev7FcGnL6gcvf3fe2vtO7pScC+wXVqzzmoyP7LXpEwhsdhsIcgvSD8t19Y6Mo0bw0sdsZChNfWtxX9zo9hZYjuZNGCea86NK5ghEWhTlFqC218TMjbR/MnSs0WqUScuFUYqmH0jPI7YUOIpPGNVhDVTPs1hlRzXDeWwfTHzblZiS+Du9UVn9uopytjUIauR9s/YrUYobxq3zGulTr8Cv1DV/pg9AdZijvFrnMa6VGpwH+G3B4hj8s6BCnMKjTYrMhlRBLbqAtJPFmFaGzbO7Wqd5hGhs2zu1qneYRobNs7tap3mEaLsu0FJI9rtP+phI1OEdKptUud9mfDaktoguLCHU7JOYWgae0u0O12n/AHdGhs2zu1qneYRobNs7tap3mEaGzbO7Wqd5hGhs2zu1qneYRpBt6gU58vwKRDjO5FOzaZShWXhHWYsbwqtzmOmRw6yzlaVveTIvRD8t0b2a75Pk9GdThJv8pfMk9CrUX4gJsyv/AEF70NTgP8Kr/Mj9Zj0N7Hgmfh6nD7Dy22KLTKrIjCZMksIeze20N7MZ5IRoNoZDrrntil3LTHIU1HKWnR2bS+UaVujT6HVJVOnN7B9heR5FDiUnuHU4E1EIn1qnEn31hD6B4o7A+n826onYVOen5Mh0fYrUNr2DiFj9lQOg6/FDeNW+Y10qdfgV+oav9MHoDrMUd4tc5jXSo1OA/wANuDxDHAMDN+Mnya76aNVixvCq3OY6ZHDrLOVpW95Mi9EPy3RvZrvk+T0Z1OEm/wApfMk9CrUX4gJsyv8A0F70NTgP8Kr/ADI/WY9Dex4Jn4epsXeZbnk5j0NRjVbQlUmPXWW8nYhDT3dZX6qtThHNXFvqnJB2pCHmlfyFXzbuNvqVw1pv5E+Qn7FnUxHg/DiujccaQsHnDPr8UN41b5jXSp1+BX6hq/0wegOsxR3i1zmNdKjU4D/Dbg8QxwDAzfjJ8mu+mjVYsbwqtzmOmRw6yzlaVveTIvRD8t0b2a75Pk9GdThJv8pfMk9CrUX4gJsyv/QXvQ1OA/wqv8yP1mPQ3seCZ+HqbF3mW55OY9DUVenNVSlToDpGwksLaPc2Yyz0dacZdW04kpWhRSpJ3QRujUWbJXGu233knLKoRwfAVgH5t3k0tq7bhQr95ST9rhOps98v2lb7hXmTT44PdIQB1+J28KucxnpRr8Cv1DV/pg9AdZijvFrnMa6VGpwH+G3B4hjgGBm/GT5Nd9NGqxY3hVbnMdMjU4K0akVNdfNQp0eV1IRg31ZsOZbPZ6KtGzuK26Z91b0VaNncVt0z7q3oq0bO4rbpn3VvRVo2dxW3TPureirRs7itumfdW9FWjZ3FbdM+6t6KtGzuK26Z91b0VaNncVt0z7q3oq0bO4rbpn3VvRVo2dxW3TPuregtC0ct7lM+6taYwUunUy6Y7MCGzGaXAbWUNICE5laxqbLOVpW95Mi9EPy3RvZrvk+T0Z1OEm/yl8yT0KtRfiAmzK/9Be9DU4D/AAqv8yP1mPQ3seCZ+HqbF3mW55OY9DU37CMG8q+xyzFujwPe+D0tRAfXHnRH0dk282seFJB+beKLQavuuADIFbS/52knU4TyxJsWmJ2eamFvNK/nJ6+s0mPWKTNp8nMNSWlIJG6ORQ7qdJOBVzIcV1CpU9bXEpZcQfQOhwLu/jm0vzrvqaHAu7+ObS/Ou+pocC7v45tL8676mgwNu3inUvzrvqaXThtXbXpyJ82TCdZL6WsmVrKgVAn9pCdTgV+oav8ATB6A6zFHeLXOY10qNTgP8NuDxDHAMDN+Mnya76aNVixvCq3OY6ZGpwA7O5vBE/E1Y0xw33RPJrXSL1NlnK0re8mReiH5bo3s13yfJ6M6nCTf5S+ZJ6FWovxATZlf+gvehqcB/hVf8XH6zHob2PBM/D1Ni7zLc8nMehqcYoxZviWv/wA7DDn9NhqGP+81zx/f5t41RQzeQdA+EQmnPSRqcCp4XTa3A42n23/OjYH0NbjlvPY+nteirU4FfqGr/TB6A6zFHeLXOY10qNTgP8NuDxDHAMDN+Mnya76aNVixvCq3OY6ZGpwA7O5vBE/E1mOm/GL5Na6Repss5Wlb3kyL0Q/LdG9mu+T5PRnU4Sb/ACl8yT0KtRfiAmzK/wDQXvQ1OA/wqv8Ai4/WY9Dex4Jn4epsXeZbnk5j0NTjkMrwi+TWvTXqGP8AvNc8f3+bePEX3ygTEI3UvsqP2KGpwdqog3kywvsJzDjB6Qejrcct57H09r0VanAr9Q1f6YPQHWYo7xa5zGulRqcB/htweIY4BgZvxk+TXfTRqsWN4VW5zHTI1OAHZ3N4In4msx034xfJrXpr1NlnK0re8mReiH5bo3s13yfJ6M6nCTf5S+ZJ6FWovxATZlf+gvehqcB/hVf8XH6zHob2PBM/D1Ni7zLc8nMehqcdd+ETyY10i9Qx/wB5rnj+/wA28ZoPsqzOr8cSW059Ss29TT5z9PnxJsc5PRnkOt85BzGelPnR6hBiTI6iWpDKHUE7W0sZjWY5bz2Pp7Xoq1OBX6hq/wBMHoDrMUd4tc5jXSo1OA/w24PEMcAwM34yfJrvpo1WLG8Krc5jpkanADs7m8ET8TWY578Y3k1r016myzlaVveTIvRD8t0b2a75Pk9GdThJv8pfMk9CrUX4gJsyv/QXvQ1OA/wqv+Lj9Zj0N7Hgmfh6mxd5lueTmPQ1OOG+6H5MZ9NeoY/7zXPH9/m3c9M/O1uViAEgqeiOBvxgGaNVgvcYmUh+ivL9+hErZ7rLnqnWY5bz2Pp7Xoq1OBX6hq/0wegOsxR3i1zmNdKjU4D/AA24PEMcAwM34yfJrvpo1WLG8Krc5jpkanADs7m8ET8TWY578Y3k1r016myzlaVveTIvRD8t0b2a75Pk9GdThJv8pfMk9CrUX4gJsyv/AEF70NTgP8Kr/i4/WY9Dex4Jn4epsXeZbnk5j0NTjU4F3psR+xCZGoioUuSwhIzKnEgeEn5uXpSDRrprEEJAQiQpTfMc92nU2vX5FvVyFU2NvqS/fG+JxtW0pGlPnxajCizYjocYfbC21dw6vHLeex9Pa9FWpwK/UNX+mD0B1mKO8WucxrpUanAf4bcHiGOAYGb8ZPk1300arFjeFVucx0yNTgB2dzeCJ+JrMc9+Mbya16a9TZZytK3vJkXoh+W6N7Nd8nyejOpwk3+UvmSehVqL8QE2ZX/oL3oanAL4dXvFMdZj0N7Hgmfh6mxd5lueTmPQ1OKzocvys8iOoo+xpOotpoPXHQ2juLqEdP2uAfNzHOiFudS6y2n3DzZjO89vbTqsLL9RRH/zTU38oD682nFbjDnqK0B49VjlvPY+nteirU4FfqGr/TB6A6zFHeLXOY10qNTgP8NuDxDHAMDN+Mnya76aNVixvCq3OY6ZGpwA7O5vBE/E1mN+++L5Ob6Repss5Wlb3kyL0Q/LdG9mu+T5PRnU4Sb/ACl8yT0KtRfiAmzK/wDQXvQ1OAXw6veKY6zHob2PBM/D1Ni7zLc8nMehqbtmezrorsnZ7IOTnyk8qQshOow6iplXvQGyNyUHfNAufNy/aEa/a1ShNt5vpR1Zjxjfrbmrw8xTXSG2qVW1rcgDaZf21rY/9o0jSWJTDUiM8h1pxIUhaCFJUDxgjU45bz2Pp7Xoq1OBX6hq/wBMHoDrMUd4tc5jXSo1OA/w24PEMcAwRWE3fIHyqc96aNVixvCq3OY6ZGpwA7O5vBE/E1mN+++N5Ob6Repss5Wlb3kyL0Q/LdG9mu+T5PRnU4YPIZvuhqXuFxxP87Sk6i/EBNmV/wCgvehqcAvh1e8Ux1mPQ3seCZ+HqbF3mW55OY9DUV+pppNDqlQJH+GjOOJz41Ae5GhJJJJzJ2ydRgzED96oeO7FiPujov8An83cT7cVQrqlltvKLMJkMHn9mnV2zelw2w6VU2Xk0o5uMODZtL0oGM1vzkpbqrS4D3GrbcaOlPqtLqTRdgz48lHK04F5eHLr8aqhANtMQxLZMn2c2rqIWCvIJVqcCv1DV/pg9AdZijvFrnMa6VGpwH+G3B4hjUPo6m+6jLLYrKcuTI6ixq0ih3XSZ7qillDuwdPIh0FBOgIUAQdo6nFjeFVucx0yNTgB2dzeCJ+JrMc9+Mfya16a9TZZytK3vJkXoh+Wts9WodXa41wnk/agjU0qeum1SBPQM1RpDTwHi1BWkaQxKjR5DDgW082lxCxuFKxmOvvjIWbcX0B7U4BfDq94pjrMehvY8Ez8PU2LvMtzycx6GoxsuNDMKLQGV+/PFL8nuNjsE6nAmCSuuzijiZZQv7VK+buJNpm47ddDCM50PN6Nyq4lI/161txxpaVtrUhaTmFJORBHd0h3td0I5sV+cO4p5TifsXonFS/kgAVxXmWfV0OK1/ndrh8wz6mhxTv39+K+pln1dH7/AL0kAhdwTB4tfUvQy0l1ytzUFEuqzH0nideWsf1OqwK/UNX+mD0B1mKO8WucxrpUanAf4bcHiGNRcjIYuKts8Tc+Qj+VwjU4cYqMQo0ai1xZQyjJEeXxITxIc0YfYkstvx3kOtODNC0KCkqB4wRu6jFjeFVucx0yNTgB2dzeCJ+JrMct+Ufyc16a9TZZytK3vJkXoh+V1sONOIO4pJB+vQggkEEEbR1OFeI0WAwih1iSGmkk+xZK+xQPkLOiVBQBSQQQCCO71jrzTLanXXEttpGalKIAA7pOlw4uWtSg43DdNRkj9hnab85pdN+V+51lEt/qUQHNEVrNLf8Aq+VqcAvh1e8Ux1mPQ3seCZ+HqbQxUrdvMtQ30CdBRtJbWditA5EL0oGJln1kIAniI+RtsycmtApKkhSSCDtjL8mX5bzxDpFsMraStMmoEZIjJPY91zkGlSqMyqT5M6Y6XH31la1H+w5AOIanCCm+wbKjukELmPuvnox83sW7NNGqxq0VGUKe55p87ZHDMCv1DV/pg9AdZijvFrnMa6VGpwH+G3B4hjUYnwRCvmtJCMkOuIeT3eqoCjqqVXq1R17OnVF+Nt5lLayEq5ydw6Q8Yr2jJyckxpPddYA6PYaHG+8Mvg9O80v19JGMd7ujJuTHY5jCT6eekDFy9Y0xl6RPEplKs3GFtNpCx4Up0acS6224ncWkKGfIfy4sbwqtzmOmRqcAOzubwRPxNZjlvyY8nM+mvU2WcrSt7yZF6IdZd0JUG6K5GKdiETXtiP4VKJTqqNedz0RIbgVV5triaVk42PAleYGjWNt3oSAtinu91bS/+K9DjldvFBpfmnfX0m4vXxK7Cc1GHGGWU/3XnpUazVqovZ1CoSZRBJHVXFLA8AJ2tXgD8NuHxLHWY9Dex4Jn4erpterdKOcCpyYwzzybcKUk90aRMXL3j9nOakdx1lH/AACdBjddvHDpvmnPX0cxsu5Y2o1OR3Q0v19KniLedTQUP1l5CPks5M9GAdCSSSSSTtnUxo70qSxGZTsnXnEtoTyqWcgNKXBaptNgwGdtuMwhpOfIgAZ/N6sUqFWKZKp0xrZsPp2Kh/ZQ7o4tLotudbVXep0ohWXumnQMg62dxQ4XgV+oav8ATB6A6zFHeLXOY10qNTgP8NuDxDGoxypZRPpNUA2nWVML8LZ2Y18H4DD8Q16I/LixvCq3OY6ZGpwA7O5vBE/E1mOW/Jjycz6a9TZZytK3vJkXoh1mM9KMK7vZYSdhOjNuZ/xo97I4TgF8Or3imOsx6G9jwTPw+E4RUE1S62pTjebFPT1dXjNxv5wXhaFOuqkqivgIfbzVGf42l/8Ao6Vqi1Kh1F+n1BgtPtn6lDiUk8YPCsCv1DV/pg9AdZijvFrnMa6VGpwH+G3B4hjUYjUE121J7DSNk+xlIY5zWvgDKFD8Qj0R+XFjeFVucx0yNTgB2dzeCJ+JrMct+THk5n016myzlaVveTIvRDrMZaGahbKJ7SM3qe7sz4pzaXwnAL4dXvFMdZj0N7Hgmfh8Jwvts0G12FPtlMucQ+9nupB7BHzhu+zaZddP6hK97fRmY8hIzW2fV0uO2Kxbc8w6kxsCcy24nbbdT8pB4TgZ+oqt9NHodZijvFrnMa6VGpwH+G3B4hjU4lWmq3LgdLTYTBmFTsbLi+Wj/TroXwOJ4hv0R+XFjeFVucx0yNTgB2dzeCJ+JrMct+THk5n016myzlaVveTIvRDrJEdiVHfjvthxp5tTbiDuKSsZEHS7Ldk25XptMezIbXm0v5bSuxVwjAL4dXvFMdZj0N7Hgmfh8IwxtA3DW0PyWc6fCIW9mNpxfE1846zQ6ZW4K4VSioeaPERtoPykndSdLxworNBDsuATPgAkkpHvrQ/jHB7asu4Lldyp8T3kHJclz3DSNLMtKPalJMFp8vLW4XXnSMs1kAbQ6zFHeLXOY10qNTgP8NuDxDGpuu2odzUR+nSMkKJ2bLoGZacG4rSt0Wo0OpP0+eyW3mj9SkncWk8aTrYXwOL4hv0R+XFjeFVucx0yNTgB2dzeCJ+JrMct+THk5n016myzlaVveTIvRDrcRbKbumkbOOkCpRAtUc/LHG0dHmXWHXGXm1NuNrKVoUMlJUnaII4jwGVElQ3epSo7jLmxCtg4koVkoZg5HlHXYBfDq94pjrMehvY8Ez8Pr6jaVdp1IgVd6KTCltJWl1G2EbPcC+QngFu2/UbhqrFOgt5rWc1r/ZaRxrV3BpbtvwLepTFOhIyQ3tqWeycWd1avnLdWF9uXAp19pBgTDmS8yNpfPRpceGl00JbijDMuMNx+Pmv+Ybo4HQLCuiv7BcOnrQwrb9kPe9taW5g1Q6ept+qumoPD9jsGRoywzHabZZaS22hIShCAEpSkbgAG4OtxOQVWHXu4210qdTgT8Nr/AIljVXfZlLuunliV71Jb+DyQNtv1hpclp1u2pXUKjHySr/tvo22nOarWQ/gUXxLfoj8uLG8Or+GP0ydTgB2dzeCJ+JrMbN90fyc16a9TZisrSt7yZF6IddiDhpFuUGfAKI9TSjbO4h8DiXpUaZPpcx2HPiuMPtnJSFj+o5R3ddbWHVy3D1N1mL7HiK//AJL/ALhJHKgbqtLVwzt63C3ILZmTR/nvDaTzEaY4Q1t3HTpX7D0EI+tpZ67AQZza/wCLY6zHwb2OZLPR9fSaW0xQKdTJDaXW2oTTDiVgELCUBJBB0u/Bht1T0u3XQhe6YbhyQfFK0qNMqNLlLiz4jsd9O6hxJSeTMco7uttWza1dEsNQmSGEnJ6Svabb0tS0qVa9O9iwkEuLyL76uzdV3e4OIfOiuWHatdC1zKa2H1bZfZHUnM+UlO7pWMDHhmuj1dC+RqUMj/OjSqYd3lTD79Rn3U59mwOr9Ho604y4pt1CkLSclJUMiD3Rq223HVpbbQpa1HIJSMyT3BpS8O7yqh95or7aONb46gB5zSkYGSSQur1ZCBxtRgVn+delDw7tOibBUemodeGXv7/vq8xxjPaTqKpT41Tp0uBIBLUllTawN0BYyzGlTwYu6K+tMIMTWeJxLga+0L0/RBf/AO6UfeGfW0/RBf8A+6UfeGfW0/RBf/7pR94Z9bT9EF//ALpR94Z9bT9EF/8A7pR94Z9bT9EF/wD7pR94Z9bQYSX4T+q0efa0w3sd+1IMwy3kLmSyguBvbQhCNwaubBhVCK5FmRkPsOABTbgCknLuHS5MEIrxW9QZoYP/ANK+SUfUvStWTdND2Zn0l9LSQSXkDqjYHdUjUIQtxaUIQVKUcgkDMnPSh4bXbV3mf+muxWFLAW++OphI5clZFWjaA22hsbiUhI+r8t20L2w25UqWlwNrfQC2s7gWhQWnR3CW/m3FoFIS4AezS+1kftVp+iTEL9x/7lj19P0SYhfuP/csevp+iTEL9x/7lj19P0SYhfuP/csevp+iTEL9x/7lj19BhNiAdyif7lj19DhLiD+4/wDcMevphjZcu1qfMVNWky5ikFaEHMIS3uDWYo4eVe4JkSqUoIddQx1F1hSwgkJJIKM9DhNiAndon+5Y9fT9EmIX7j/3LHr6fokxC/cf+5Y9fT9EmIX7j/3LHr6fokxC/cf+5Y9fT9EmIX7j/wByx6+n6JMQv3H/ALlj19IWEV7PyW2n4CIrZO28t5tQT9SCdKbBbp1OhQWlEtxWG2UE7pDaQkZ9fXrbodwRvY9ThJeCc9g5uLRzFDS4cEqpGK3aHLRMa4mXSG3fVOlSo1XpTnU6hT5EZWZA6q2UhWXyTuHU0uhVmrubCnU6RJOyyJbQSAT8o7g0ouCdfllC6pKZgo40D353SgYa2pQih1qF7KkJ2w/JyWQe4NwflxSsybc1NguU8IVLhrWQ2pWxC0OaHCu/hu0NfnmfW0/RXf24KGrzzPrafopv/wDcS/PM+voMKb+O5Qz59n19P0UYgfuI+fZ9fTC2yala8We/UskypZb95Sdl1NKOsxOsqVdNOgrgrR7MhlZShZyC0uaHCbEBO7RP9yx6+n6JMQv3H/uWPX0/RJiF+4/9yx6+n6JMQv3H/uWPX0/RJiF+4/8AcsevpbmEFzu1SKusRW4sJDoW7m4hwrCdsoAbJ/LVaLSazGMapQWpLW3tODbTnxoO6k90aV/A+I6Vu0Oolk8TD+a0fUsaVjD28KOT7IpDzjfE6wOrI2uZoQQSCNsaij2vcNbIFNpb76flhOxb8BWrJOltYJsNlD9flh7/AO2YJCP9a9IUKHBjNxYcZphlsZIbbSEJH1D52TKbT5bCm5sRiSgjsHW0rH9dJeG1izVKLtDZR4oqZ6MjSoYMWasksqmsdxDwPSBWl0WLSaQkmO/KVz1JP9kjT83MfKX/AE0/NzHyl/00/NzHyl/00/NzHyl/00oFuwqnM6i848lPKggH+oOlMwatRxtp51+e5yoLqAP6I0g4Z2RCVs0UVpxX/wDcpb39FkjSBSqfDaCIcJiK38lltKB/T4iqVrW3VMzOo8R5SxtrLYC/5xt6T8GrFeRk1HkxjytPk9Js9KxhPbsEZtS555y2/U0qdDiRJBbbW6R3SNKXQYcteTjjo5pH/rSkYQWzMZQ67LqH1ON+ppCwusWIA6KQHnE8bzq1jSFS6XT0KRAgR4qCexZaSj0fix5ttxpaHG0rSpO2lQzB0qeHFkT07N6hsIWeNnNjoyNKxg7azDLj7MiejkQHEEf1RpOpEaNLdZQtwpScgSRp+bmPlL/pp+bmPlL/AKaQqVHkSG21KcAUrI5EaUXB+1X2GZD7053lQXUhP9E6QsP7LppAjUOMo/LeBf6TPRASlCUpSEpG0EgZADhdRt+hVMn2fSoklW4FuNJUoA8h0mYQ2PJQoNw34yjxsvq/E2ely4ZUGktLUxKmqI+WtB/sjT83MfKX/TT83MfKX/TSi2/Dnz0xnXHgjlSQD/UaUnB201NtvvOTnuVC3QE//okaU+w7Opu3GocYqSQoKdHVlA9wuZ6JAAyAAA+NP//EACIRAQAABQQDAQEAAAAAAAAAAAEAETAxYAIgIUAQElBBsP/aAAgBAgEBPwD6wMGlj1gCJES8yiREiPWJZcESiRW4iREnKpEcdNCHTkxpjjroMI5EDAHbTIA7yY8HwUxsM8D4jCYub5kTOvM3piwUhY9o46KkTfJvTFQ43ttwxx4nEyJke0e0e0TImQJ5Uibu/N6c4mHNDVQnTFoFt6cYmWoPbLUE5xEOaOrtlqCcYiWotu3+UXGV4+Jqw8ifxBotsPKL3S2LlvjFFvh35QbfH1Yb+0dXx3DS9HV3y1Bthpejq75ag2w0vR1d/wDKDbDS9Ft3/wAoNsN/aLbvF6Lh358bTR1YcWo6julqLfDj4oUm+HESop8RtjSdkKWrEC1NOsDABTcQHnasTY9o42pCPRkwFReMSHjYjsHchEiPWkE49YArrziQ87U8jQe0vGKDxtTyO9aZXcaTnyMcdArLiw7U42zibE2qXqrjA7Xpl6jjQ7XS9Ivk47UIkR6x6xIhCVQvTVcdGi2qF6K5ALAm9tUL0FyP2jja2qF9ykK5NOOPLaoX2TI9sq9omQtWZEyJv9Or/8QAIREAAQMFAQEBAQEAAAAAAAAAAREgMQAQMEFgQFBwIYD/2gAIAQMBAT8A+wtFaUsU0FpaXsFo51peqXyKaXpl9C9Ivdr7lP8AlYn4i8+lJ50NIej2xO5EuRyUlJSWN0fvoh3o9Znoh3ontN/NHHmMKewjCJ5gfF3x5nBvtd4BPv3gHLD3754fHE8sPjieWHv3gE8sJ+OJ/S94N+44RxxnCPxknDvvRPIbxL8Mc2D26UlI3+0vvA5kjAtLjU0p6YHGBjT9pTuhLkHZkfga/gC0tLW+0T3IeoE9ujhPiTp08qdUhzpSUn+zEpDSGkNf2k7ZMBpPMlJSUjwKSkpKI8IFJSUlEcKZYng20y4Qw+EQwxxA8O2mXCGHwiGGPsRhBFKMWmBhhu2mXCGHwiGGPrhxOMFhYGGG7aZcIYfCIYY4kEUopWhhhu2mXCGHwiGGPr6YT5Rh20y4Qw+EQwxZKSkpKT6AlpnKGGLJSUMO2mXCGGww6YZsIZNI4j54nxCGGLCMe85sGGG6YZsI+0Gabp5mwhhiwjHvObBhhumGbCPtBmmbwGbCGGLA0rlpaW285sGGG6YZsIZFLcFpn5oZpm8BmwhhhgYYbvObBhhumGbCGFuvuKGmbCGGGBhhu2mcRsGGG6YZsIYWhh+aJaZcJaZsIYYYGGG7aZcIYbBhhumGbCGFohh+drEJaZsIYYYGGG7aZcIYbBhhumGbCGFohh+cIxCWmbCGGGBhhu2mXCGGwYYbphmwhhaPpBstEtM2EMMMDC3bTLhDDYYdMM2EMLdMM/VSkFIHGbCGGMJFIaQ220y4Qw2DSKQ0hpGmbCGpSUnBmbCGGMerbaZcIYbCcpmwjjBDDGPVttMuEMNxkM2EY1+oopQ8mlaopRSiiQ5aD1FKKUUooy4EUopRSiixWrS2BFKKUUTYIlKKUUSLLwB+aPn/AP/Z;shadow=0;" vertex="1" parent="1">
          <mxGeometry x="610" y="276.53" width="205.77" height="118.94" as="geometry" />
        </mxCell>
        <mxCell id="Ppe9uCJr2pv7-PK-GDrQ-5" value="" style="endArrow=classic;startArrow=classic;html=1;rounded=0;fontSize=12;startSize=8;endSize=8;curved=1;fillColor=#d5e8d4;strokeColor=#82b366;flowAnimation=1;shadow=1;" edge="1" parent="1">
          <mxGeometry width="50" height="50" relative="1" as="geometry">
            <mxPoint x="447" y="328" as="sourcePoint" />
            <mxPoint x="626" y="328" as="targetPoint" />
          </mxGeometry>
        </mxCell>
      </root>
    </mxGraphModel>
  </diagram>
</mxfile>
